<?xml version="1.0" encoding="utf-8"?><svg width="76" height="71" viewBox="0 0 76 71" xmlns="http://www.w3.org/2000/svg" xmlns:xlink="http://www.w3.org/1999/xlink"><svg width="14" height="14" viewBox="0 0 14 14" id="alert" x="62" xmlns="http://www.w3.org/2000/svg"><g fill="none" fill-rule="evenodd"><path d="M-1-1h16v16H-1z"/><path fill="#FFF" d="M7 13.667A6.667 6.667 0 1 1 7 .333a6.667 6.667 0 0 1 0 13.334zM7 12.5a5.5 5.5 0 1 0 0-11 5.5 5.5 0 0 0 0 11zm0-8.833c.368 0 .667.298.667.666V7a.667.667 0 0 1-1.334 0V4.333c0-.368.299-.666.667-.666zM7 9a.667.667 0 1 1 0 1.333A.667.667 0 0 1 7 9z"/></g></svg><svg width="10" height="6" viewBox="0 0 10 6" id="arrow-down" x="32" y="16" xmlns="http://www.w3.org/2000/svg"><g fill="none" fill-rule="evenodd"><path d="M-7-9h24v24H-7z"/><path fill="#676370" d="M5 6l4.756-4.6A.806.806 0 0 0 9.758.244.856.856 0 0 0 8.566.24L5 3.683 1.434.241A.856.856 0 0 0 .242.244.806.806 0 0 0 .244 1.4L5 6z"/></g></svg><svg width="10" height="6" viewBox="0 0 10 6" id="arrow-up" x="24" y="57" xmlns="http://www.w3.org/2000/svg"><g fill="none" fill-rule="evenodd"><path d="M-7-9h24v24H-7z"/><path fill="#676370" d="M5 0l4.756 4.6a.806.806 0 0 1 .002 1.156.856.856 0 0 1-1.192.003L5 2.317 1.434 5.759a.856.856 0 0 1-1.192-.003A.806.806 0 0 1 .244 4.6L5 0z"/></g></svg><svg width="12" height="15" viewBox="0 0 12 15" id="delete" x="24" y="42" xmlns="http://www.w3.org/2000/svg"><g fill="none" fill-rule="evenodd"><path d="M-6-4h24v24H-6z"/><path fill="#FFF" fill-rule="nonzero" d="M1.526 14.299L1 4h10l-.526 10.299c-.018.392-.366.701-.79.701H2.316c-.423 0-.771-.31-.789-.701zm6.141-7.741v5.884c0 .164.144.297.32.297h.514c.177 0 .32-.133.32-.297V6.558c0-.164-.143-.297-.32-.297h-.513c-.177 0-.32.133-.32.297zm-2.244 0v5.884c0 .164.144.297.32.297h.513c.178 0 .321-.133.321-.297V6.558c0-.164-.144-.297-.32-.297h-.513c-.178 0-.321.133-.321.297zm-2.244 0v5.884c0 .164.143.297.32.297h.513c.177 0 .32-.133.32-.297V6.558c0-.164-.143-.297-.32-.297H3.5c-.177 0-.32.133-.32.297zm8.313-5.71c.28 0 .508.232.508.52V3H0V1.367c0-.287.228-.52.508-.52h3.49V.174c0-.095.076-.173.17-.173h3.664c.094 0 .17.078.17.173v.675h3.49z"/></g></svg><svg width="12" height="15" viewBox="0 0 12 15" id="delete-active" x="12" y="42" xmlns="http://www.w3.org/2000/svg"><g fill="none" fill-rule="evenodd"><path d="M-6-4h24v24H-6z"/><path fill="#FF2D55" fill-rule="nonzero" d="M1.526 14.299L1 4h10l-.526 10.299c-.018.392-.366.701-.79.701H2.316c-.423 0-.771-.31-.789-.701zm6.141-7.741v5.884c0 .164.144.297.32.297h.514c.177 0 .32-.133.32-.297V6.558c0-.164-.143-.297-.32-.297h-.513c-.177 0-.32.133-.32.297zm-2.244 0v5.884c0 .164.144.297.32.297h.513c.178 0 .321-.133.321-.297V6.558c0-.164-.144-.297-.32-.297h-.513c-.178 0-.321.133-.321.297zm-2.244 0v5.884c0 .164.143.297.32.297h.513c.177 0 .32-.133.32-.297V6.558c0-.164-.143-.297-.32-.297H3.5c-.177 0-.32.133-.32.297zm8.313-5.71c.28 0 .508.232.508.52V3H0V1.367c0-.287.228-.52.508-.52h3.49V.174c0-.095.076-.173.17-.173h3.664c.094 0 .17.078.17.173v.675h3.49z"/></g></svg><svg width="12" height="15" viewBox="0 0 12 15" id="delete-icon" y="42" xmlns="http://www.w3.org/2000/svg"><g fill="none" fill-rule="evenodd"><path d="M-6-4h24v24H-6z"/><path fill="#FFF" fill-rule="nonzero" d="M1.526 14.299L1 4h10l-.526 10.299c-.018.392-.366.701-.79.701H2.316c-.423 0-.771-.31-.789-.701zm6.141-7.741v5.884c0 .164.144.297.32.297h.514c.177 0 .32-.133.32-.297V6.558c0-.164-.143-.297-.32-.297h-.513c-.177 0-.32.133-.32.297zm-2.244 0v5.884c0 .164.144.297.32.297h.513c.178 0 .321-.133.321-.297V6.558c0-.164-.144-.297-.32-.297h-.513c-.178 0-.321.133-.321.297zm-2.244 0v5.884c0 .164.143.297.32.297h.513c.177 0 .32-.133.32-.297V6.558c0-.164-.143-.297-.32-.297H3.5c-.177 0-.32.133-.32.297zm8.313-5.71c.28 0 .508.232.508.52V3H0V1.367c0-.287.228-.52.508-.52h3.49V.174c0-.095.076-.173.17-.173h3.664c.094 0 .17.078.17.173v.675h3.49z"/></g></svg><svg width="14" height="16" viewBox="0 0 14 16" id="duplicate" y="26" xmlns="http://www.w3.org/2000/svg"><g fill="none" fill-rule="evenodd"><path d="M-5-4h24v24H-5z"/><path fill="#FFF" d="M2.667 2.667H2a2 2 0 0 0-2 2V14a2 2 0 0 0 2 2h6.667a2 2 0 0 0 2-2v-.667h.666a2 2 0 0 0 2-2V2a2 2 0 0 0-2-2H4.667a2 2 0 0 0-2 2v.667zm1.333 0v-.334a1 1 0 0 1 1-1h6a1 1 0 0 1 1 1V11a1 1 0 0 1-1 1h-.333V4.667a2 2 0 0 0-2-2H4zM1.333 5a1 1 0 0 1 1-1h6a1 1 0 0 1 1 1v8.667a1 1 0 0 1-1 1h-6a1 1 0 0 1-1-1V5z"/></g></svg><svg width="14" height="16" viewBox="0 0 14 16" id="duplicate-active" x="14" y="26" xmlns="http://www.w3.org/2000/svg"><g fill="none" fill-rule="evenodd"><path d="M-5-4h24v24H-5z"/><path fill="#FF2D55" d="M2.667 2.667H2a2 2 0 0 0-2 2V14a2 2 0 0 0 2 2h6.667a2 2 0 0 0 2-2v-.667h.666a2 2 0 0 0 2-2V2a2 2 0 0 0-2-2H4.667a2 2 0 0 0-2 2v.667zm1.333 0v-.334a1 1 0 0 1 1-1h6a1 1 0 0 1 1 1V11a1 1 0 0 1-1 1h-.333V4.667a2 2 0 0 0-2-2H4zM1.333 5a1 1 0 0 1 1-1h6a1 1 0 0 1 1 1v8.667a1 1 0 0 1-1 1h-6a1 1 0 0 1-1-1V5z"/></g></svg><svg width="10" height="10" viewBox="0 0 10 10" id="grid" x="14" y="57" xmlns="http://www.w3.org/2000/svg"><g fill="none" fill-rule="evenodd"><path d="M-7-7h24v24H-7z"/><path fill="#FFF" d="M1 0h2a1 1 0 0 1 1 1v2a1 1 0 0 1-1 1H1a1 1 0 0 1-1-1V1a1 1 0 0 1 1-1zm6 0h2a1 1 0 0 1 1 1v2a1 1 0 0 1-1 1H7a1 1 0 0 1-1-1V1a1 1 0 0 1 1-1zm0 6h2a1 1 0 0 1 1 1v2a1 1 0 0 1-1 1H7a1 1 0 0 1-1-1V7a1 1 0 0 1 1-1zM1 6h2a1 1 0 0 1 1 1v2a1 1 0 0 1-1 1H1a1 1 0 0 1-1-1V7a1 1 0 0 1 1-1z"/></g></svg><svg width="10" height="10" viewBox="0 0 10 10" id="grid-active" x="51" y="42" xmlns="http://www.w3.org/2000/svg"><g fill="none" fill-rule="evenodd"><path d="M-7-7h24v24H-7z"/><path fill="#FF2D55" d="M1 0h2a1 1 0 0 1 1 1v2a1 1 0 0 1-1 1H1a1 1 0 0 1-1-1V1a1 1 0 0 1 1-1zm6 0h2a1 1 0 0 1 1 1v2a1 1 0 0 1-1 1H7a1 1 0 0 1-1-1V1a1 1 0 0 1 1-1zm0 6h2a1 1 0 0 1 1 1v2a1 1 0 0 1-1 1H7a1 1 0 0 1-1-1V7a1 1 0 0 1 1-1zM1 6h2a1 1 0 0 1 1 1v2a1 1 0 0 1-1 1H1a1 1 0 0 1-1-1V7a1 1 0 0 1 1-1z"/></g></svg><svg width="16" height="16" viewBox="0 0 16 16" id="info" xmlns="http://www.w3.org/2000/svg"><g fill="none" fill-rule="evenodd"><path d="M-4-4h24v24H-4z"/><path fill="#FFF" d="M8 16A8 8 0 1 1 8 0a8 8 0 0 1 0 16zm0-.8A7.2 7.2 0 1 0 8 .8a7.2 7.2 0 0 0 0 14.4zm1.665-2.802c-.412.163-.74.286-.985.372a2.6 2.6 0 0 1-.855.128c-.499 0-.887-.122-1.163-.366a1.178 1.178 0 0 1-.414-.925c0-.146.01-.295.03-.447.022-.151.055-.322.1-.514l.516-1.82c.045-.175.084-.34.116-.495.03-.156.046-.299.046-.429 0-.231-.049-.394-.144-.485-.097-.092-.279-.137-.55-.137-.133 0-.27.02-.41.061a5.82 5.82 0 0 0-.359.12L5.73 6.9c.337-.138.66-.256.968-.353.308-.099.6-.148.874-.148.495 0 .877.12 1.146.36.267.238.402.55.402.931 0 .08-.01.219-.028.418-.018.2-.053.382-.103.55l-.513 1.814a5.232 5.232 0 0 0-.113.499c-.033.186-.05.328-.05.424 0 .24.054.405.163.493.107.087.294.131.56.131.125 0 .265-.022.424-.066a2.41 2.41 0 0 0 .342-.115l-.137.56zm-.09-7.367c-.24.222-.528.333-.864.333-.336 0-.626-.11-.867-.333a1.064 1.064 0 0 1-.361-.808c0-.315.122-.585.36-.81a1.23 1.23 0 0 1 .868-.336c.336 0 .625.111.863.336.24.225.36.495.36.81 0 .317-.12.586-.36.808z"/></g></svg><svg width="14" height="9" viewBox="0 0 14 9" id="list" x="62" y="14" xmlns="http://www.w3.org/2000/svg"><g fill="none" fill-rule="evenodd"><path d="M-5-7h24v24H-5z"/><path fill="#FFF" d="M.5 0h13a.5.5 0 1 1 0 1H.5a.5.5 0 0 1 0-1zm0 4h13a.5.5 0 1 1 0 1H.5a.5.5 0 1 1 0-1zm0 4h13a.5.5 0 1 1 0 1H.5a.5.5 0 1 1 0-1z"/></g></svg><svg width="14" height="9" viewBox="0 0 14 9" id="list-active" x="62" y="46" xmlns="http://www.w3.org/2000/svg"><g fill="none" fill-rule="evenodd"><path d="M-5-7h24v24H-5z"/><path fill="#FF2D55" d="M.5 0h13a.5.5 0 1 1 0 1H.5a.5.5 0 0 1 0-1zm0 4h13a.5.5 0 1 1 0 1H.5a.5.5 0 1 1 0-1zm0 4h13a.5.5 0 1 1 0 1H.5a.5.5 0 1 1 0-1z"/></g></svg><svg width="14" height="9" viewBox="0 0 14 9" id="list-icon" x="62" y="37" xmlns="http://www.w3.org/2000/svg"><g fill="none" fill-rule="evenodd"><path d="M-5-7h24v24H-5z"/><path fill="#FFF" d="M.5 0h13a.5.5 0 1 1 0 1H.5a.5.5 0 0 1 0-1zm0 4h13a.5.5 0 1 1 0 1H.5a.5.5 0 1 1 0-1zm0 4h13a.5.5 0 1 1 0 1H.5a.5.5 0 1 1 0-1z"/></g></svg><svg width="16" height="16" viewBox="0 0 16 16" id="move" x="46" y="10" xmlns="http://www.w3.org/2000/svg"><g fill="none" fill-rule="evenodd"><path d="M-4-4h24v24H-4z"/><path fill="#FFF" d="M15.875 7.698l-1.97-1.97a.427.427 0 0 0-.604.604l1.03 1.03a.123.123 0 0 1-.088.21H8.551a.123.123 0 0 1-.124-.123V1.757c0-.11.133-.165.211-.087l1.03 1.03a.427.427 0 0 0 .604-.605L8.302.125a.428.428 0 0 0-.604 0l-1.97 1.97a.427.427 0 0 0 .604.604l1.03-1.03a.123.123 0 0 1 .21.088v5.692a.123.123 0 0 1-.123.124H1.757a.123.123 0 0 1-.087-.211l1.03-1.03a.427.427 0 0 0-.605-.604l-1.97 1.97a.428.428 0 0 0 0 .604l1.97 1.97a.427.427 0 0 0 .604-.604l-1.03-1.03a.123.123 0 0 1 .088-.21h5.692c.068 0 .124.055.124.123v5.692c0 .11-.133.165-.211.088l-1.03-1.03a.428.428 0 0 0-.604.604l1.97 1.97a.428.428 0 0 0 .604 0l1.97-1.97a.427.427 0 0 0-.604-.604l-1.03 1.03a.123.123 0 0 1-.21-.088V8.551c0-.068.055-.124.123-.124h5.692c.11 0 .165.133.088.211l-1.03 1.03a.427.427 0 0 0 .604.604l1.97-1.97a.428.428 0 0 0 0-.604z"/></g></svg><svg width="16" height="16" viewBox="0 0 16 16" id="move-active" x="28" y="26" xmlns="http://www.w3.org/2000/svg"><g fill="none" fill-rule="evenodd"><path d="M-4-4h24v24H-4z"/><path fill="#FF2D55" d="M15.875 7.698l-1.97-1.97a.427.427 0 0 0-.604.604l1.03 1.03a.123.123 0 0 1-.088.21H8.551a.123.123 0 0 1-.124-.123V1.757c0-.11.133-.165.211-.087l1.03 1.03a.427.427 0 0 0 .604-.605L8.302.125a.428.428 0 0 0-.604 0l-1.97 1.97a.427.427 0 0 0 .604.604l1.03-1.03a.123.123 0 0 1 .21.088v5.692a.123.123 0 0 1-.123.124H1.757a.123.123 0 0 1-.087-.211l1.03-1.03a.427.427 0 0 0-.605-.604l-1.97 1.97a.428.428 0 0 0 0 .604l1.97 1.97a.427.427 0 0 0 .604-.604l-1.03-1.03a.123.123 0 0 1 .088-.21h5.692c.068 0 .124.055.124.123v5.692c0 .11-.133.165-.211.088l-1.03-1.03a.428.428 0 0 0-.604.604l1.97 1.97a.428.428 0 0 0 .604 0l1.97-1.97a.427.427 0 0 0-.604-.604l-1.03 1.03a.123.123 0 0 1-.21-.088V8.551c0-.068.055-.124.123-.124h5.692c.11 0 .165.133.088.211l-1.03 1.03a.427.427 0 0 0 .604.604l1.97-1.97a.428.428 0 0 0 0-.604z"/></g></svg><svg width="16" height="10" viewBox="0 0 16 10" id="preview" x="16" y="16" xmlns="http://www.w3.org/2000/svg"><g fill="none" fill-rule="evenodd"><path d="M-4-7h24v24H-4z"/><path fill="#FFF" fill-rule="nonzero" d="M8 0C4.943 0 2.17 1.672.125 4.39a.633.633 0 0 0 0 .755C2.171 7.865 4.943 9.537 8 9.537c3.057 0 5.83-1.672 7.875-4.389a.633.633 0 0 0 0-.756C13.829 1.672 11.057 0 8 0zm.22 8.127a3.367 3.367 0 0 1-3.578-3.578A3.373 3.373 0 0 1 7.78 1.411a3.367 3.367 0 0 1 3.577 3.577A3.383 3.383 0 0 1 8.22 8.127zm-.102-1.552a1.81 1.81 0 0 1-1.925-1.924 1.82 1.82 0 0 1 1.692-1.692A1.81 1.81 0 0 1 9.81 4.883a1.82 1.82 0 0 1-1.692 1.692z"/></g></svg><svg width="16" height="10" viewBox="0 0 16 10" id="preview-active" y="16" xmlns="http://www.w3.org/2000/svg"><g fill="none" fill-rule="evenodd"><path d="M-4-7h24v24H-4z"/><path fill="#FF2D55" fill-rule="nonzero" d="M8 0C4.943 0 2.17 1.672.125 4.39a.633.633 0 0 0 0 .755C2.171 7.865 4.943 9.537 8 9.537c3.057 0 5.83-1.672 7.875-4.389a.633.633 0 0 0 0-.756C13.829 1.672 11.057 0 8 0zm.22 8.127a3.367 3.367 0 0 1-3.578-3.578A3.373 3.373 0 0 1 7.78 1.411a3.367 3.367 0 0 1 3.577 3.577A3.383 3.383 0 0 1 8.22 8.127zm-.102-1.552a1.81 1.81 0 0 1-1.925-1.924 1.82 1.82 0 0 1 1.692-1.692A1.81 1.81 0 0 1 9.81 4.883a1.82 1.82 0 0 1-1.692 1.692z"/></g></svg><svg width="15" height="16" viewBox="0 0 15 16" id="rotate" x="31" xmlns="http://www.w3.org/2000/svg"><g fill="none" fill-rule="evenodd"><path d="M-5-4h24v24H-5z"/><path fill="#FFF" d="M13.143 0c.315 0 .571.256.571.571V4a.571.571 0 0 1-.39.544l-3.43 1.143a.572.572 0 0 1-.36-1.086l2.531-.844A6.286 6.286 0 0 0 1.143 8 .571.571 0 1 1 0 8a7.414 7.414 0 0 1 12.571-5.341V.57c0-.315.256-.571.572-.571zm1.143 7.429a.57.57 0 0 1 .571.571 7.414 7.414 0 0 1-12.571 5.341v2.088a.571.571 0 1 1-1.143 0V12a.572.572 0 0 1 .39-.544l3.43-1.143a.572.572 0 0 1 .36 1.086l-2.531.844A6.286 6.286 0 0 0 13.714 8c0-.316.256-.571.572-.571z"/></g></svg><svg width="15" height="16" viewBox="0 0 15 16" id="rotate-active" x="16" xmlns="http://www.w3.org/2000/svg"><g fill="none" fill-rule="evenodd"><path d="M-5-4h24v24H-5z"/><path fill="#FF2D55" d="M13.143 0c.315 0 .571.256.571.571V4a.571.571 0 0 1-.39.544l-3.43 1.143a.572.572 0 0 1-.36-1.086l2.531-.844A6.286 6.286 0 0 0 1.143 8 .571.571 0 1 1 0 8a7.414 7.414 0 0 1 12.571-5.341V.57c0-.315.256-.571.572-.571zm1.143 7.429a.57.57 0 0 1 .571.571 7.414 7.414 0 0 1-12.571 5.341v2.088a.571.571 0 1 1-1.143 0V12a.572.572 0 0 1 .39-.544l3.43-1.143a.572.572 0 0 1 .36 1.086l-2.531.844A6.286 6.286 0 0 0 13.714 8c0-.316.256-.571.572-.571z"/></g></svg><svg width="16" height="10" viewBox="0 0 16 10" id="shortcuts" x="46" xmlns="http://www.w3.org/2000/svg"><g fill="none" fill-rule="evenodd"><path d="M-4-7h24v24H-4z"/><path fill="#FFF" fill-rule="nonzero" d="M15.687.313c.209.208.313.46.313.754v7.466c0 .295-.104.546-.313.754-.208.209-.46.313-.754.313H1.067c-.295 0-.546-.104-.754-.313A1.028 1.028 0 0 1 0 8.533V1.067C0 .772.104.52.313.313.52.104.773 0 1.067 0h13.866c.295 0 .546.104.754.313zm-.754 8.22V1.067H1.067v7.466h13.866zM2.267 7.467c-.09 0-.134-.045-.134-.134v-.8c0-.088.045-.133.134-.133h.8c.089 0 .133.045.133.133v.8c0 .089-.044.134-.133.134h-.8zm0-2.134c-.09 0-.134-.044-.134-.133v-.8c0-.089.045-.133.134-.133h1.866c.09 0 .134.044.134.133v.8c0 .089-.045.133-.134.133H2.267zm0-2.133c-.09 0-.134-.045-.134-.133v-.8c0-.09.045-.134.134-.134h.8c.089 0 .133.045.133.134v.8c0 .088-.044.133-.133.133h-.8zM11.6 6.4c.089 0 .133.045.133.133v.8c0 .09-.044.134-.133.134H4.4c-.089 0-.133-.045-.133-.134v-.8c0-.088.044-.133.133-.133h7.2zM5.333 5.2v-.8c0-.089.045-.133.134-.133h.8c.089 0 .133.044.133.133v.8c0 .089-.044.133-.133.133h-.8c-.09 0-.134-.044-.134-.133zm-.933-2c-.089 0-.133-.045-.133-.133v-.8c0-.09.044-.134.133-.134h.8c.089 0 .133.045.133.134v.8c0 .088-.044.133-.133.133h-.8zm3.067 2v-.8c0-.089.044-.133.133-.133h.8c.089 0 .133.044.133.133v.8c0 .089-.044.133-.133.133h-.8c-.089 0-.133-.044-.133-.133zm-.934-2c-.089 0-.133-.045-.133-.133v-.8c0-.09.044-.134.133-.134h.8c.09 0 .134.045.134.134v.8c0 .088-.045.133-.134.133h-.8zm3.067 2v-.8c0-.089.044-.133.133-.133h.8c.09 0 .133.044.133.133v.8c0 .089-.044.133-.133.133h-.8c-.089 0-.133-.044-.133-.133zm4.133 1.2c.09 0 .134.045.134.133v.8c0 .09-.045.134-.134.134h-.8c-.089 0-.133-.045-.133-.134v-.8c0-.088.044-.133.133-.133h.8zM8.667 3.2c-.09 0-.134-.045-.134-.133v-.8c0-.09.045-.134.134-.134h.8c.089 0 .133.045.133.134v.8c0 .088-.044.133-.133.133h-.8zm2.133 0c-.089 0-.133-.045-.133-.133v-.8c0-.09.044-.134.133-.134h.8c.089 0 .133.045.133.134v.8c0 .088-.044.133-.133.133h-.8zm.933 2v-.8c0-.089.045-.133.134-.133h.933v-2c0-.09.044-.134.133-.134h.8c.09 0 .134.045.134.134V5.2c0 .089-.045.133-.134.133h-1.866c-.09 0-.134-.044-.134-.133z"/></g></svg><svg width="14" height="14" viewBox="0 0 14 14" id="sidebar" y="57" xmlns="http://www.w3.org/2000/svg"><g fill="none" fill-rule="evenodd"><path d="M-5-5h24v24H-5z"/><path fill="#FFF" d="M2 0h10a2 2 0 0 1 2 2v10a2 2 0 0 1-2 2H2a2 2 0 0 1-2-2V2a2 2 0 0 1 2-2zm0 1a1 1 0 0 0-1 1v10a1 1 0 0 0 1 1h6V1H2z"/></g></svg><svg width="14" height="14" viewBox="0 0 14 14" id="sidebar-active" x="62" y="23" xmlns="http://www.w3.org/2000/svg"><g fill="none" fill-rule="evenodd"><path d="M-5-5h24v24H-5z"/><path fill="#FF2D55" d="M2 0h10a2 2 0 0 1 2 2v10a2 2 0 0 1-2 2H2a2 2 0 0 1-2-2V2a2 2 0 0 1 2-2zm0 1a1 1 0 0 0-1 1v10a1 1 0 0 0 1 1h6V1H2z"/></g></svg><svg width="15" height="15" viewBox="0 0 15 15" id="zoom-in" x="46" y="26" xmlns="http://www.w3.org/2000/svg"><g fill="none" fill-rule="evenodd"><path d="M-5-5h24v24H-5z"/><path fill="#D8D8D8" d="M10.89 9.477l3.181 3.18a1 1 0 0 1-1.414 1.414l-3.18-3.18a6 6 0 1 1 1.414-1.414zM6 11A5 5 0 1 0 6 1a5 5 0 0 0 0 10zm-.5-5.5V3h1v2.5H9v1H6.5V9h-1V6.5H3v-1h2.5z"/></g></svg><svg width="15" height="15" viewBox="0 0 15 15" id="zoom-out" x="36" y="42" xmlns="http://www.w3.org/2000/svg"><g fill="none" fill-rule="evenodd"><path d="M-5-5h24v24H-5z"/><path fill="#D8D8D8" d="M10.89 9.477l3.181 3.18a1 1 0 0 1-1.414 1.414l-3.18-3.18a6 6 0 1 1 1.414-1.414zM6 11A5 5 0 1 0 6 1a5 5 0 0 0 0 10zM3 5.5h6v1H3v-1z"/></g></svg></svg>