<svg width="20" height="20" viewBox="0 0 20 20" fill="none" xmlns="http://www.w3.org/2000/svg">
<path d="M14.1122 9.03225H10.9677V5.88775C10.9677 5.3526 10.5351 4.91997 9.99997 4.91997C9.46482 4.91997 9.0322 5.3526 9.0322 5.88775V9.03225H5.8877C5.35255 9.03225 4.91992 9.46487 4.91992 10C4.91992 10.5352 5.35255 10.9678 5.8877 10.9678H9.0322V14.1123C9.0322 14.6474 9.46482 15.0801 9.99997 15.0801C10.5351 15.0801 10.9677 14.6474 10.9677 14.1123V10.9678H14.1122C14.6474 10.9678 15.08 10.5352 15.08 10C15.08 9.46487 14.6445 9.03225 14.1122 9.03225Z" fill="#716B7C"/>
<path d="M10 0C4.48525 0 0 4.48525 0 10C0 15.5147 4.48525 20 10 20C15.5147 20 20 15.5147 20 10C20 4.48525 15.5147 0 10 0ZM10 18.0675C5.55275 18.0675 1.9325 14.4502 1.9325 10C1.9325 5.55275 5.54975 1.9325 10 1.9325C14.4502 1.9325 18.0675 5.5525 18.0675 10C18.0675 14.4475 14.4475 18.0675 10 18.0675Z" fill="#716B7C"/>
</svg>
