<svg width="24" height="24" viewBox="0 0 24 24" fill="none" xmlns="http://www.w3.org/2000/svg">
<circle cx="12" cy="12" r="12" fill="#FFBC5B"/>
<path fill-rule="evenodd" clip-rule="evenodd" d="M15 12.75H12C11.586 12.75 11.25 12.4148 11.25 12V9C11.25 8.58525 11.586 8.25 12 8.25C12.414 8.25 12.75 8.58525 12.75 9V11.25H15C15.4148 11.25 15.75 11.5852 15.75 12C15.75 12.4148 15.4148 12.75 15 12.75ZM12 4.5C7.8645 4.5 4.5 7.8645 4.5 12C4.5 16.1355 7.8645 19.5 12 19.5C16.1355 19.5 19.5 16.1355 19.5 12C19.5 7.8645 16.1355 4.5 12 4.5Z" fill="#231F20"/>
<mask id="mask0_394_25994" style="mask-type:luminance" maskUnits="userSpaceOnUse" x="4" y="4" width="16" height="16">
<path fill-rule="evenodd" clip-rule="evenodd" d="M15 12.75H12C11.586 12.75 11.25 12.4148 11.25 12V9C11.25 8.58525 11.586 8.25 12 8.25C12.414 8.25 12.75 8.58525 12.75 9V11.25H15C15.4148 11.25 15.75 11.5852 15.75 12C15.75 12.4148 15.4148 12.75 15 12.75ZM12 4.5C7.8645 4.5 4.5 7.8645 4.5 12C4.5 16.1355 7.8645 19.5 12 19.5C16.1355 19.5 19.5 16.1355 19.5 12C19.5 7.8645 16.1355 4.5 12 4.5Z" fill="white"/>
</mask>
<g mask="url(#mask0_394_25994)">
<rect x="3" y="3" width="18" height="18" fill="white"/>
</g>
</svg>
