<svg width="24" height="24" viewBox="0 0 24 24" fill="none" xmlns="http://www.w3.org/2000/svg">
<circle cx="12" cy="12" r="12" fill="#FF7439"/>
<path fill-rule="evenodd" clip-rule="evenodd" d="M11.1111 8.24304C11.1111 7.75239 11.5093 7.35418 11.9999 7.35418C12.4906 7.35418 12.8888 7.75239 12.8888 8.24304V11.7985C12.8888 12.2892 12.4906 12.6874 11.9999 12.6874C11.5093 12.6874 11.1111 12.2892 11.1111 11.7985V8.24304ZM11.1111 14.4651C11.1111 13.9745 11.5093 13.5763 11.9999 13.5763C12.4906 13.5763 12.8888 13.9745 12.8888 14.4651C12.8888 14.9558 12.4906 15.354 11.9999 15.354C11.5093 15.354 11.1111 14.9558 11.1111 14.4651ZM19.8795 16.5566C19.6759 16.9166 19.2795 17.1317 18.819 17.1317H5.18025C4.71981 17.1317 4.32338 16.9166 4.12071 16.5566C4.02472 16.3877 3.8985 16.0438 4.13583 15.6527L10.9543 4.34802C11.3694 3.66004 12.6299 3.66004 13.045 4.34802L19.8644 15.6527C20.1008 16.0438 19.9755 16.3877 19.8795 16.5566Z" fill="white"/>
</svg>
