<svg xmlns="http://www.w3.org/2000/svg" width="28" height="22" viewBox="0 0 28 22">
    <g fill="none" fill-rule="evenodd">
        <path d="M-2-5h32v32H-2z"/>
        <path fill="#FFF" fill-rule="nonzero" d="M14 8.333a4 4 0 1 0 0 8 4 4 0 0 0 0-8zm10.667-4h-3.2c-.44 0-.914-.341-1.053-.759l-.828-2.482c-.14-.417-.613-.759-1.053-.759H9.467c-.44 0-.914.342-1.053.76l-.828 2.482c-.14.417-.613.758-1.053.758h-3.2A2.675 2.675 0 0 0 .667 7v12c0 1.467 1.2 2.667 2.666 2.667h21.334c1.466 0 2.666-1.2 2.666-2.667V7c0-1.467-1.2-2.667-2.666-2.667zM14 19a6.667 6.667 0 1 1 0-13.333A6.667 6.667 0 0 1 14 19zm9.733-10.135a.933.933 0 1 1 0-1.867.933.933 0 0 1 0 1.867z"/>
    </g>
</svg>
