<svg width="24" height="24" viewBox="0 0 24 24" fill="none" xmlns="http://www.w3.org/2000/svg">
<path d="M4.22722 12.7164C4.07574 12.5731 4 12.3582 4 12.2149C4 12.0716 4.07574 11.8567 4.22722 11.7134L5.28757 10.7104C5.59053 10.4239 6.04497 10.4239 6.34793 10.7104L9.35858 13.8448C9.51006 13.9881 9.73728 13.9881 9.88876 13.8448L17.6521 6.21493C17.955 5.92836 18.4095 5.92836 18.7124 6.21493L19.7728 7.21791C20.0757 7.50448 20.0757 7.93433 19.7728 8.2209L10.116 17.7851C9.9645 17.9284 9.81302 18 9.5858 18C9.35858 18 9.2071 17.9284 9.05562 17.7851L4.22722 12.7164Z" fill="white"/>
</svg>
