<svg xmlns="http://www.w3.org/2000/svg" width="28" height="23" viewBox="0 0 28 23">
    <defs>
        <filter id="a" width="109.7%" height="113%" x="-4.8%" y="-6.5%" filterUnits="objectBoundingBox">
            <feOffset dy="2" in="SourceAlpha" result="shadowOffsetOuter1"/>
            <feGaussianBlur in="shadowOffsetOuter1" result="shadowBlurOuter1" stdDeviation="2"/>
            <feColorMatrix in="shadowBlurOuter1" result="shadowMatrixOuter1" values="0 0 0 0 0 0 0 0 0 0 0 0 0 0 0 0 0 0 0.16 0"/>
            <feMerge>
                <feMergeNode in="shadowMatrixOuter1"/>
                <feMergeNode in="SourceGraphic"/>
            </feMerge>
        </filter>
    </defs>
    <g fill="none" fill-rule="evenodd" filter="url(#a)" transform="translate(-133 -115)">
        <path d="M135 112h24v24h-24z"/>
        <path fill="#FFF" fill-rule="nonzero" d="M141.25 131.432c-2.37-.137-4.25-2.111-4.25-4.533 0-2.51 2.019-4.546 4.509-4.546h.011c-.003-.073-.011-.146-.011-.22 0-2.835 2.28-5.133 5.09-5.133 2.495 0 4.566 1.81 5.003 4.196.102-.006.204-.016.307-.016 2.812 0 5.091 2.298 5.091 5.132 0 2.835-2.28 5.132-5.09 5.132-.075 0-.146-.008-.22-.01v.002h-10.022c-.053.003-.105.008-.16.008-.052 0-.105-.005-.158-.008h-.102l.002-.004zm4.25-6.932v4h3v-4h2l-3.5-4-3.5 4h2z"/>
    </g>
</svg>
