<svg width="24" height="25" viewBox="0 0 24 25" fill="none" xmlns="http://www.w3.org/2000/svg">
<g id="icon/outline/darkmode/code">
<path id="Vector" d="M8.70041 16.3997L4.80041 12.4997L8.70041 8.59967C8.79305 8.50814 8.8666 8.39914 8.9168 8.27898C8.967 8.15882 8.99285 8.02989 8.99285 7.89967C8.99285 7.76944 8.967 7.64051 8.9168 7.52035C8.8666 7.40019 8.79305 7.29119 8.70041 7.19967C8.60889 7.10703 8.49989 7.03347 8.37973 6.98328C8.25957 6.93308 8.13064 6.90723 8.00041 6.90723C7.87019 6.90723 7.74126 6.93308 7.6211 6.98328C7.50094 7.03347 7.39194 7.10703 7.30041 7.19967L2.71041 11.7897C2.61771 11.8822 2.54416 11.9921 2.49398 12.113C2.4438 12.234 2.41797 12.3637 2.41797 12.4947C2.41797 12.6256 2.4438 12.7553 2.49398 12.8763C2.54416 12.9973 2.61771 13.1072 2.71041 13.1997L7.30041 17.7997C7.69041 18.1897 8.31041 18.1897 8.70041 17.7997C8.79305 17.7081 8.8666 17.5991 8.9168 17.479C8.967 17.3588 8.99285 17.2299 8.99285 17.0997C8.99285 16.9694 8.967 16.8405 8.9168 16.7203C8.8666 16.6002 8.79305 16.4912 8.70041 16.3997ZM15.3004 16.3997L19.2004 12.4997L15.3004 8.59967C15.2078 8.50814 15.1342 8.39914 15.084 8.27898C15.0338 8.15882 15.008 8.02989 15.008 7.89967C15.008 7.76944 15.0338 7.64051 15.084 7.52035C15.1342 7.40019 15.2078 7.29119 15.3004 7.19967C15.3919 7.10703 15.5009 7.03347 15.6211 6.98328C15.7413 6.93308 15.8702 6.90723 16.0004 6.90723C16.1306 6.90723 16.2596 6.93308 16.3797 6.98328C16.4999 7.03347 16.6089 7.10703 16.7004 7.19967L21.2904 11.7897C21.6804 12.1797 21.6804 12.8097 21.2904 13.1997L16.7004 17.7997C16.6089 17.8923 16.4999 17.9659 16.3797 18.0161C16.2596 18.0663 16.1306 18.0921 16.0004 18.0921C15.8702 18.0921 15.7413 18.0663 15.6211 18.0161C15.5009 17.9659 15.3919 17.8923 15.3004 17.7997C15.2078 17.7081 15.1342 17.5991 15.084 17.479C15.0338 17.3588 15.008 17.2299 15.008 17.0997C15.008 16.9694 15.0338 16.8405 15.084 16.7203C15.1342 16.6002 15.2078 16.4912 15.3004 16.3997Z" fill="white"/>
</g>
</svg>
