<svg width="16" height="16" viewBox="0 0 16 16" fill="none" xmlns="http://www.w3.org/2000/svg">
<path d="M0.864014 11.4027C0.864014 12.0625 1.4008 12.5993 2.06062 12.5993C2.2916 12.5993 2.50739 12.5334 2.69047 12.4195L6.7574 14.7685C6.75706 14.7801 6.75651 14.7917 6.75651 14.8034C6.75651 15.4632 7.29329 16 7.95311 16C8.61293 16 9.14971 15.4632 9.14971 14.8034C9.14971 14.7909 9.14916 14.7786 9.14877 14.7662L13.2148 12.4196C13.3978 12.5334 13.6136 12.5993 13.8445 12.5993C14.5043 12.5993 15.0411 12.0625 15.0411 11.4027C15.0411 10.9474 14.7854 10.5507 14.4101 10.3485L14.4109 5.65305C14.7858 5.45075 15.0411 5.0543 15.0411 4.59932C15.0411 4.59898 15.0411 4.59867 15.0411 4.59833C15.0411 4.59799 15.0411 4.59767 15.0411 4.59733C15.0411 3.93754 14.5043 3.40073 13.8445 3.40073C13.6133 3.40073 13.3973 3.46685 13.2141 3.58089L9.14924 1.2331C9.14935 1.22675 9.14974 1.19953 9.14974 1.1966C9.14974 0.536784 8.61293 0 7.95314 0C7.29335 0 6.75654 0.536784 6.75654 1.1966C6.75654 1.19953 6.7569 1.22646 6.75701 1.23271L2.68974 3.58C2.50684 3.46646 2.29131 3.40068 2.06064 3.40068C1.40082 3.40068 0.86404 3.93746 0.86404 4.59728C0.86404 4.59762 0.864066 4.59793 0.864066 4.59827C0.864066 4.59861 0.86404 4.59893 0.86404 4.59927C0.86404 5.05412 1.11918 5.45046 1.49384 5.65281L1.49306 10.3495C1.11878 10.5521 0.864014 10.9482 0.864014 11.4027ZM13.2148 5.61624C13.2354 5.62902 13.2563 5.64131 13.2776 5.65284L13.2768 10.3495C12.9026 10.5521 12.6478 10.9482 12.6478 11.4027C12.6478 11.4145 12.6484 11.4262 12.6487 11.4379L8.58111 13.7854C8.56103 13.773 8.54059 13.761 8.51975 13.7498V9.05365C8.8945 8.85129 9.14971 8.45493 9.14971 8C9.14971 7.98753 9.14916 7.97522 9.14877 7.96285L13.2148 5.61624ZM7.30971 2.22214C7.49567 2.34123 7.71638 2.41064 7.95311 2.41064C8.18971 2.41064 8.41029 2.34133 8.59617 2.22235L12.6487 4.56301C12.6484 4.57443 12.6479 4.58578 12.6479 4.59728C12.6479 4.59762 12.6479 4.59793 12.6479 4.59827C12.6479 4.59861 12.6479 4.59893 12.6479 4.59927C12.6479 4.61106 12.6484 4.62275 12.6487 4.63446L8.58114 6.98201C8.39844 6.86889 8.18333 6.8034 7.95314 6.8034C7.72216 6.8034 7.50637 6.86936 7.32328 6.98322L3.25635 4.63427C3.25669 4.62264 3.25724 4.61106 3.25724 4.59935C3.25724 4.59901 3.25722 4.59869 3.25722 4.59835C3.25722 4.59801 3.25724 4.5977 3.25724 4.59736C3.25724 4.58536 3.25669 4.57346 3.25633 4.56152L7.30971 2.22214ZM2.62707 5.65305C2.64864 5.64141 2.66974 5.62902 2.69047 5.61613L6.7574 7.9651C6.75706 7.97673 6.75651 7.98831 6.75651 8.00003C6.75651 8.45495 7.01173 8.85132 7.3865 9.05367V13.7498C7.36498 13.7614 7.34396 13.7738 7.32325 13.7866L3.25633 11.4377C3.25667 11.426 3.25722 11.4145 3.25722 11.4027C3.25722 10.9474 3.00153 10.5508 2.62626 10.3486L2.62707 5.65305Z" fill="#FF2D55"/>
</svg>
