<svg width="20" height="20" viewBox="0 0 20 20" fill="none" xmlns="http://www.w3.org/2000/svg">
<path d="M10 18.3334C14.2758 18.3334 17.5 16.7209 17.5 14.5834V5.83335H17.4558C17.4833 5.69669 17.5 5.55835 17.5 5.41669C17.5 3.27919 14.2758 1.66669 10 1.66669C6.0075 1.66669 2.93333 3.07335 2.54417 5.00002H2.5V14.5834C2.5 16.7209 5.72417 18.3334 10 18.3334ZM10 16.6667C6.43917 16.6667 4.16667 15.4334 4.16667 14.5834V7.82835C5.51917 8.65585 7.5925 9.16669 10 9.16669C12.4075 9.16669 14.4808 8.65585 15.8333 7.82835V14.5834C15.8333 15.4334 13.5608 16.6667 10 16.6667ZM10 3.33335C13.5608 3.33335 15.8333 4.56669 15.8333 5.41669C15.8333 6.26669 13.5608 7.50002 10 7.50002C6.43917 7.50002 4.16667 6.26669 4.16667 5.41669C4.16667 4.56669 6.43917 3.33335 10 3.33335Z" fill="white"/>
</svg>
