<svg width="48" height="48" viewBox="0 0 48 48" fill="none" xmlns="http://www.w3.org/2000/svg">
<rect width="48" height="48" rx="24" fill="#242129"/>
<path fill-rule="evenodd" clip-rule="evenodd" d="M21.5693 15.0303H17.2345C16.8856 15.0303 16.6029 15.3131 16.6029 15.662V17.6462H31.5093V15.6619C31.5093 15.3131 31.2265 15.0303 30.8777 15.0303H26.5428V14.2108C26.5428 14.0944 26.4485 14 26.3321 14H21.7801C21.6636 14 21.5693 14.0944 21.5693 14.2108V15.0303ZM28.7541 34C29.2936 34 29.7372 33.5746 29.7598 33.0355L30.4308 18.8701H17.6812L18.3522 33.0355C18.3748 33.5746 18.8184 34 19.3579 34H28.7541ZM21.5216 21.9797C21.7474 21.9797 21.9305 22.1628 21.9305 22.3885V30.4815C21.9305 30.7074 21.7473 30.8903 21.5216 30.8903H20.8677C20.6419 30.8903 20.4589 30.7073 20.4589 30.4815V22.3885C20.4589 22.1628 20.6421 21.9797 20.8677 21.9797H21.5216ZM24.3829 21.9797C24.6087 21.9797 24.7917 22.1628 24.7917 22.3885V30.4815C24.7917 30.7074 24.6087 30.8903 24.3829 30.8903H23.7291C23.5033 30.8903 23.3203 30.7073 23.3203 30.4815V22.3885C23.3203 22.1628 23.5034 21.9797 23.7291 21.9797H24.3829ZM27.2443 21.9797C27.4701 21.9797 27.6531 22.1628 27.6531 22.3885V30.4815C27.6531 30.7074 27.47 30.8903 27.2443 30.8903H26.5904C26.3646 30.8903 26.1816 30.7073 26.1816 30.4815V22.3885C26.1816 22.1628 26.3647 21.9797 26.5904 21.9797H27.2443Z" fill="white"/>
</svg>
