<svg xmlns="http://www.w3.org/2000/svg" width="12" height="15" viewBox="0 0 12 15">
    <g fill="none" fill-rule="evenodd">
        <path d="M-6-4h24v24H-6z"/>
        <path fill="#FFF" fill-rule="nonzero" d="M1.526 14.299L1 4h10l-.526 10.299c-.018.392-.366.701-.79.701H2.316c-.423 0-.771-.31-.789-.701zm6.141-7.741v5.884c0 .164.144.297.32.297h.514c.177 0 .32-.133.32-.297V6.558c0-.164-.143-.297-.32-.297h-.513c-.177 0-.32.133-.32.297zm-2.244 0v5.884c0 .164.144.297.32.297h.513c.178 0 .321-.133.321-.297V6.558c0-.164-.144-.297-.32-.297h-.513c-.178 0-.321.133-.321.297zm-2.244 0v5.884c0 .164.143.297.32.297h.513c.177 0 .32-.133.32-.297V6.558c0-.164-.143-.297-.32-.297H3.5c-.177 0-.32.133-.32.297zm8.313-5.71c.28 0 .508.232.508.52V3H0V1.367c0-.287.228-.52.508-.52h3.49V.174c0-.095.076-.173.17-.173h3.664c.094 0 .17.078.17.173v.675h3.49z"/>
    </g>
</svg>
