<svg xmlns="http://www.w3.org/2000/svg" width="14" height="16" viewBox="0 0 14 16">
    <g fill="none" fill-rule="evenodd">
        <path d="M-5-4h24v24H-5z"/>
        <path fill="#FFF" d="M2.667 2.667H2a2 2 0 0 0-2 2V14a2 2 0 0 0 2 2h6.667a2 2 0 0 0 2-2v-.667h.666a2 2 0 0 0 2-2V2a2 2 0 0 0-2-2H4.667a2 2 0 0 0-2 2v.667zm1.333 0v-.334a1 1 0 0 1 1-1h6a1 1 0 0 1 1 1V11a1 1 0 0 1-1 1h-.333V4.667a2 2 0 0 0-2-2H4zM1.333 5a1 1 0 0 1 1-1h6a1 1 0 0 1 1 1v8.667a1 1 0 0 1-1 1h-6a1 1 0 0 1-1-1V5z"/>
    </g>
</svg>
