<svg width="32" height="32" viewBox="0 0 32 32" fill="none" xmlns="http://www.w3.org/2000/svg">
<circle cx="16" cy="16" r="16" fill="#537FEE"/>
<path fill-rule="evenodd" clip-rule="evenodd" d="M16 6C15.8135 6.00262 15.6452 6.1219 15.5677 6.3054L10.1272 15.0256C10.0425 15.1252 9.99767 15.2563 10.0001 15.3926C9.99767 15.6299 10.1418 15.8396 10.3525 15.9038L15.6973 19.2854C15.8741 19.4427 16.1284 19.4427 16.3077 19.288L21.6888 15.8803C21.782 15.8409 21.862 15.7715 21.9177 15.6823L21.9189 15.6797C21.9261 15.6679 21.9334 15.6548 21.9395 15.643C21.9455 15.6312 21.9504 15.6207 21.9552 15.6089C21.9564 15.6063 21.9576 15.6037 21.9588 15.5998C21.983 15.5421 21.9964 15.4792 22 15.4149V15.4031V15.3717C22 15.3599 21.9988 15.3481 21.9976 15.3363V15.3297C21.9879 15.2249 21.9504 15.1266 21.8874 15.0453L16.4456 6.30296C16.3657 6.11553 16.1913 5.99625 16 5.99887L16 6ZM10.837 17.8241C10.5209 17.8385 10.3017 18.1715 10.3938 18.4991L10.395 18.503C10.3986 18.5175 10.4035 18.5306 10.4083 18.5437C10.4131 18.5555 10.418 18.5686 10.4228 18.5804L10.4253 18.5856C10.4422 18.6223 10.4616 18.6564 10.4858 18.6865L15.5814 25.7288C15.7643 26.0893 16.2426 26.0906 16.4279 25.7315L21.5331 18.663C21.5392 18.6538 21.544 18.646 21.5501 18.6368C21.5525 18.6342 21.5537 18.6315 21.5561 18.6276C21.8334 18.1453 21.3018 17.5974 20.8708 17.9198L16.0067 21L11.1426 17.9237C11.0542 17.8543 10.9477 17.8189 10.8387 17.8228L10.837 17.8241Z" fill="#FCFCFC"/>
</svg>
