<svg xmlns="http://www.w3.org/2000/svg" width="16" height="16" viewBox="0 0 24 24">
    <path fill="#FFF" d="M15.883 10c-4.227-4.529-.1-8.598-.1-8.598l-1.393-1.389 5.61-.013v5.607l-1.394-1.391c0 .001-4.252 1.685-2.723 5.784zm-2.904-8.438l-1.452-1.438-7.255 4.108 1.992 1.171 6.715-3.841zm11.021 6.483v10.83l-9 5.125v-11.132l9-4.823zm-5.959 9.388l-.35.199v1.713l.35-.195v-1.717zm.584-.333l-.344.195v1.717l.344-.195v-1.717zm.82-.468l-.343.196v1.717l.343-.196v-1.717zm.575-.326l-.342.195v1.717l.342-.195v-1.717zm.584-.333l-.349.199v1.717l.349-.199v-1.717zm.844-.481l-.343.195v1.717l.289-.165.054-.031v-1.716zm-8.479-3.825l-10.094-5.938-2.875 3.91 10.108 5.997 2.861-3.969zm-10.969 1.484v4.298l11 6.265v-8.67l-2.339 3.245-8.661-5.138z"/>
</svg>