<?xml version="1.0" encoding="UTF-8"?>
<svg width="12px" height="22px" viewBox="0 0 12 22" version="1.1" xmlns="http://www.w3.org/2000/svg" xmlns:xlink="http://www.w3.org/1999/xlink">
    <g id="smart-item" stroke="none" stroke-width="1" fill="none" fill-rule="evenodd">
        <g id="share-modal" transform="translate(-597.000000, -532.000000)">
            <g id="modal" transform="translate(460.000000, 151.000000)">
                <g id="CTA" transform="translate(80.000000, 370.000000)">
                    <g id="fb" transform="translate(47.000000, 6.000000)">
                        <rect id="bounds" x="0" y="0" width="32" height="32"></rect>
                        <path d="M21.5481152,5.33777209 L18.6698609,5.33333333 C15.4362408,5.33333333 13.3465335,7.3940264 13.3465335,10.5834955 L13.3465335,13.0041717 L10.4525775,13.0041717 C10.2025053,13.0041717 10,13.1990332 10,13.4393919 L10,16.946676 C10,17.1870347 10.2027362,17.3816742 10.4525775,17.3816742 L13.3465335,17.3816742 L13.3465335,26.2316685 C13.3465335,26.4720272 13.5490389,26.6666667 13.799111,26.6666667 L17.5749004,26.6666667 C17.8249726,26.6666667 18.0274779,26.4718052 18.0274779,26.2316685 L18.0274779,17.3816742 L21.4111874,17.3816742 C21.6612596,17.3816742 21.8637649,17.1870347 21.8637649,16.946676 L21.8651504,13.4393919 C21.8651504,13.3239842 21.8173527,13.2134591 21.7326098,13.131786 C21.647867,13.0501129 21.5324136,13.0041717 21.412342,13.0041717 L18.0274779,13.0041717 L18.0274779,10.9521342 C18.0274779,9.96584238 18.2720083,9.46515055 19.6087283,9.46515055 L21.5476534,9.46448474 C21.7974947,9.46448474 22,9.2696233 22,9.02948653 L22,5.7727703 C22,5.53285547 21.7977256,5.33821597 21.5481152,5.33777209 Z" id="Path" fill="#FFFFFF" fill-rule="nonzero"></path>
                    </g>
                </g>
            </g>
        </g>
    </g>
</svg>