<svg width="14" height="14" viewBox="0 0 14 14" fill="none" xmlns="http://www.w3.org/2000/svg">
<path d="M11.0003 12.3333H12.333V13.6666H6.99967C3.31767 13.6666 0.333008 10.682 0.333008 6.99998C0.333008 3.31798 3.31767 0.333313 6.99967 0.333313C10.6817 0.333313 13.6663 3.31798 13.6663 6.99998C13.6672 8.03503 13.4267 9.05601 12.9639 9.98184C12.5011 10.9077 11.8288 11.7128 11.0003 12.3333ZM6.99967 5.66665C7.3533 5.66665 7.69243 5.52617 7.94248 5.27612C8.19253 5.02607 8.33301 4.68693 8.33301 4.33331C8.33301 3.97969 8.19253 3.64055 7.94248 3.3905C7.69243 3.14046 7.3533 2.99998 6.99967 2.99998C6.64605 2.99998 6.30691 3.14046 6.05687 3.3905C5.80682 3.64055 5.66634 3.97969 5.66634 4.33331C5.66634 4.68693 5.80682 5.02607 6.05687 5.27612C6.30691 5.52617 6.64605 5.66665 6.99967 5.66665ZM4.33301 8.33331C4.68663 8.33331 5.02577 8.19284 5.27582 7.94279C5.52587 7.69274 5.66634 7.3536 5.66634 6.99998C5.66634 6.64636 5.52587 6.30722 5.27582 6.05717C5.02577 5.80712 4.68663 5.66665 4.33301 5.66665C3.97939 5.66665 3.64025 5.80712 3.3902 6.05717C3.14015 6.30722 2.99967 6.64636 2.99967 6.99998C2.99967 7.3536 3.14015 7.69274 3.3902 7.94279C3.64025 8.19284 3.97939 8.33331 4.33301 8.33331ZM9.66634 8.33331C10.02 8.33331 10.3591 8.19284 10.6091 7.94279C10.8592 7.69274 10.9997 7.3536 10.9997 6.99998C10.9997 6.64636 10.8592 6.30722 10.6091 6.05717C10.3591 5.80712 10.02 5.66665 9.66634 5.66665C9.31272 5.66665 8.97358 5.80712 8.72353 6.05717C8.47348 6.30722 8.33301 6.64636 8.33301 6.99998C8.33301 7.3536 8.47348 7.69274 8.72353 7.94279C8.97358 8.19284 9.31272 8.33331 9.66634 8.33331ZM6.99967 11C7.3533 11 7.69243 10.8595 7.94248 10.6095C8.19253 10.3594 8.33301 10.0203 8.33301 9.66665C8.33301 9.31302 8.19253 8.97389 7.94248 8.72384C7.69243 8.47379 7.3533 8.33331 6.99967 8.33331C6.64605 8.33331 6.30691 8.47379 6.05687 8.72384C5.80682 8.97389 5.66634 9.31302 5.66634 9.66665C5.66634 10.0203 5.80682 10.3594 6.05687 10.6095C6.30691 10.8595 6.64605 11 6.99967 11Z" fill="#FCFCFC"/>
</svg>
