<svg xmlns="http://www.w3.org/2000/svg" width="12" height="13" viewBox="0 0 12 13">
    <g fill="none" fill-rule="evenodd">
        <path d="M-6-5h24v24H-6z"/>
        <path fill="#736E7D" fill-rule="nonzero" d="M11.626 2.43L6.242.051a.594.594 0 0 0-.485 0L.373 2.429A.634.634 0 0 0 0 3.012v6.976c0 .253.147.483.373.582l5.385 2.378a.593.593 0 0 0 .484 0l5.385-2.378c.226-.1.373-.33.373-.583V3.012a.636.636 0 0 0-.374-.583zM7.168 5.563l3.6-1.59v4.665l-3.6-3.075zM1.23 3.974l3.601 1.59-3.6 3.075V3.974zm4.155 2.765v4.665l-3.602-1.59 3.602-3.075zM6 1.324l3.822 1.688L6 4.7 2.177 3.012 6 1.324zm.615 5.415l3.601 3.074-3.601 1.59V6.74z"/>
    </g>
</svg>
