<?xml version="1.0" encoding="UTF-8"?>
<svg width="20px" height="18px" viewBox="0 0 20 18" version="1.1" xmlns="http://www.w3.org/2000/svg" xmlns:xlink="http://www.w3.org/1999/xlink">
    <!-- Generator: Sketch 60.1 (88133) - https://sketch.com -->
    <title>Path</title>
    <desc>Created with Sketch.</desc>
    <g id="smart-item" stroke="none" stroke-width="1" fill="none" fill-rule="evenodd">
        <g id="landing" transform="translate(-306.000000, -154.000000)" fill-rule="nonzero" stroke="#FFFFFF" stroke-width="1.5">
            <g id="Group-2" transform="translate(294.000000, 140.000000)">
                <g id="view" transform="translate(6.000000, 6.000000)">
                    <path d="M15.944362,25.0054282 L22.5328994,19.3159614 C23.8157681,18.1904481 24.6904122,16.777665 25.0679351,15.2288037 C25.266534,14.415125 25.2826709,13.8268705 25.2269687,13.4896508 L25.2202237,13.4375086 C24.9631731,10.6988483 22.9985136,8.75037232 20.5542915,8.75037232 C18.931303,8.75037232 17.430368,9.59208605 16.5830163,10.9651478 L15.9377439,12.0107569 L15.3027079,10.9588995 C14.4638722,9.56947373 13.0364868,8.75 11.4456382,8.75 C9.0016224,8.75 7.03678617,10.6986513 6.7730099,13.4912937 C6.71723805,13.8233082 6.7333792,14.4148003 6.93204154,15.2289961 C7.30957629,16.7775669 8.18438185,18.1906109 9.46737479,19.3158915 L15.944362,25.0054282 Z" id="Path"></path>
                </g>
            </g>
        </g>
    </g>
</svg>