<svg xmlns="http://www.w3.org/2000/svg" width="16" height="16" viewBox="0 0 24 24">
    <path ill="#FFF" d="M15.01 9.968l-3.961-3.968h1.968s.991-4.178-2.985-6c6.191.222 6.972 6 6.972 6h1.968l-3.962 3.968zm8.99-1.923v10.83l-9 5.125v-11.132l9-4.823zm-5.959 9.388l-.35.199v1.713l.35-.195v-1.717zm.584-.333l-.344.195v1.717l.344-.195v-1.717zm.82-.468l-.343.196v1.717l.343-.196v-1.717zm.575-.326l-.342.195v1.717l.342-.195v-1.717zm.584-.333l-.349.199v1.717l.349-.199v-1.717zm.844-.481l-.343.195v1.717l.289-.165.054-.031v-1.716zm-10.851-12.534c-.331-.629-1.081-1.348-1.72-1.326l-4.604 2.6 1.992 1.171 4.332-2.445zm2.372 8.709l-10.094-5.938-2.875 3.91 10.108 5.997 2.861-3.969zm-10.969 1.484v4.298l11 6.265v-8.67l-2.339 3.245-8.661-5.138z"/>
</svg>