<svg width="24" height="25" viewBox="0 0 24 25" fill="none" xmlns="http://www.w3.org/2000/svg">
<g clip-path="url(#clip0_7087_1519)">
<path d="M9 21.5C9 22 9.4 22.5 10 22.5H14C14.6 22.5 15 22 15 21.5V20.5H9V21.5ZM12 2.5C8.1 2.5 5 5.6 5 9.5C5 11.9 6.2 14 8 15.2V17.5C8 18 8.4 18.5 9 18.5H15C15.6 18.5 16 18 16 17.5V15.2C17.8 13.9 19 11.8 19 9.5C19 5.6 15.9 2.5 12 2.5Z" fill="white"/>
</g>
<defs>
<clipPath id="clip0_7087_1519">
<rect width="24" height="24" fill="white" transform="translate(0 0.5)"/>
</clipPath>
</defs>
</svg>
