<svg xmlns="http://www.w3.org/2000/svg" width="14" height="14" viewBox="0 0 14 14">
    <g fill="none" fill-rule="evenodd">
        <path d="M-5-5h24v24H-5z"/>
        <path fill="#FFF" fill-rule="nonzero" d="M13.711 6.396h-1.085a5.684 5.684 0 0 0-5.022-5.022V.289c0-.16-.129-.289-.288-.289h-.632c-.16 0-.288.13-.288.289v1.085a5.684 5.684 0 0 0-5.022 5.022H.289c-.16 0-.289.129-.289.288v.632c0 .16.13.289.289.289h1.085a5.684 5.684 0 0 0 5.022 5.021v1.085c0 .16.129.289.288.289h.632c.16 0 .289-.13.289-.289v-1.085a5.684 5.684 0 0 0 5.021-5.022h1.085c.16 0 .289-.129.289-.288v-.632c0-.16-.13-.288-.289-.288zM3.593 7.604c.16 0 .289-.129.289-.288v-.632c0-.16-.13-.288-.289-.288h-.937a4.399 4.399 0 0 1 3.74-3.74v.937c0 .16.129.289.288.289h.632c.159 0 .288-.13.288-.289v-.937a4.398 4.398 0 0 1 3.74 3.74h-.937c-.16 0-.289.129-.289.288v.632c0 .16.13.289.289.289h.937a4.4 4.4 0 0 1-3.74 3.739v-.937c0-.16-.129-.289-.288-.289h-.632c-.16 0-.288.13-.288.29v.936a4.4 4.4 0 0 1-3.74-3.74h.937z"/>
    </g>
</svg>
