<svg xmlns="http://www.w3.org/2000/svg" width="16" height="16" viewBox="0 0 16 16">
    <g fill="none" fill-rule="evenodd">
        <path d="M-4-4h24v24H-4z"/>
        <path fill="#FF2D55" d="M15.875 7.698l-1.97-1.97a.427.427 0 0 0-.604.604l1.03 1.03a.123.123 0 0 1-.088.21H8.551a.123.123 0 0 1-.124-.123V1.757c0-.11.133-.165.211-.087l1.03 1.03a.427.427 0 0 0 .604-.605L8.302.125a.428.428 0 0 0-.604 0l-1.97 1.97a.427.427 0 0 0 .604.604l1.03-1.03a.123.123 0 0 1 .21.088v5.692a.123.123 0 0 1-.123.124H1.757a.123.123 0 0 1-.087-.211l1.03-1.03a.427.427 0 0 0-.605-.604l-1.97 1.97a.428.428 0 0 0 0 .604l1.97 1.97a.427.427 0 0 0 .604-.604l-1.03-1.03a.123.123 0 0 1 .088-.21h5.692c.068 0 .124.055.124.123v5.692c0 .11-.133.165-.211.088l-1.03-1.03a.428.428 0 0 0-.604.604l1.97 1.97a.428.428 0 0 0 .604 0l1.97-1.97a.427.427 0 0 0-.604-.604l-1.03 1.03a.123.123 0 0 1-.21-.088V8.551c0-.068.055-.124.123-.124h5.692c.11 0 .165.133.088.211l-1.03 1.03a.427.427 0 0 0 .604.604l1.97-1.97a.428.428 0 0 0 0-.604z"/>
    </g>
</svg>
