<svg width="24" height="24" viewBox="0 0 24 24" fill="none" xmlns="http://www.w3.org/2000/svg">
<path d="M5 6L5 18C5 18.55 5.45 19 6 19C6.55 19 7 18.55 7 18L7 6C7 5.45 6.55 5 6 5C5.45 5 5 5.45 5 6ZM18 5C17.45 5 17 5.45 17 6L17 18C17 18.55 17.45 19 18 19C18.55 19 19 18.55 19 18L19 6C19 5.45 18.55 5 18 5Z" fill="#A09BA8"/>
<path d="M10 21.378C10 21.0488 10.2488 20.8476 10.5742 20.7744C11.5502 20.5549 12.0861 19.9146 12.0478 19.0366C11.378 18.872 10.7081 18.3232 10.7081 17.5366V17.5C10.7081 16.6402 11.3397 16 12.2967 16C13.3684 16 14 16.7866 14 18.0488L14 18.122C14 19.4573 13.5789 20.4451 12.8708 21.122C12.2967 21.6707 11.4354 22 10.7273 22C10.2105 22 10 21.7073 10 21.378Z" fill="#A09BA8"/>
</svg>
