<?xml version="1.0" encoding="UTF-8"?>
<svg width="24px" height="24px" viewBox="0 0 24 24" version="1.1" xmlns="http://www.w3.org/2000/svg" xmlns:xlink="http://www.w3.org/1999/xlink">
    <title>plus</title>
    <g id="icons" stroke="none" stroke-width="1" fill="none" fill-rule="evenodd">
        <g id="plus" transform="translate(12.000000, 12.000000) scale(-1, 1) rotate(90.000000) translate(-12.000000, -12.000000) ">
            <rect id="bounds" x="0" y="0" width="24" height="24"></rect>
            <path d="M12,4 C16.418278,4 20,7.581722 20,12 C20,16.418278 16.418278,20 12,20 C7.581722,20 4,16.418278 4,12 C4,7.581722 7.581722,4 12,4 Z M13,8 L11,8 L11,11 L8,11 L8,13 L11,13 L11,16 L13,16 L13,13 L16,13 L16,11 L13,11 L13,8 Z" id="icon" fill="#FF2D55"></path>
        </g>
    </g>
</svg>