<?xml version="1.0" encoding="UTF-8" standalone="no"?>
<!-- Generator: Adobe Illustrator 26.0.3, SVG Export Plug-In . SVG Version: 6.00 Build 0)  -->

<svg
   version="1.0"
   id="katman_1"
   x="0px"
   y="0px"
   viewBox="0 0 589.54004 589.65594"
   xml:space="preserve"
   sodipodi:docname="polygon.svg"
   width="589.54004"
   height="589.65594"
   inkscape:version="1.3.2 (091e20e, 2023-11-25)"
   xmlns:inkscape="http://www.inkscape.org/namespaces/inkscape"
   xmlns:sodipodi="http://sodipodi.sourceforge.net/DTD/sodipodi-0.dtd"
   xmlns:xlink="http://www.w3.org/1999/xlink"
   xmlns="http://www.w3.org/2000/svg"
   xmlns:svg="http://www.w3.org/2000/svg"><defs
   id="defs3" /><sodipodi:namedview
   id="namedview3"
   pagecolor="#ffffff"
   bordercolor="#000000"
   borderopacity="0.25"
   inkscape:showpageshadow="2"
   inkscape:pageopacity="0.0"
   inkscape:pagecheckerboard="0"
   inkscape:deskcolor="#d1d1d1"
   showgrid="false"
   inkscape:zoom="0.39333333"
   inkscape:cx="275.84746"
   inkscape:cy="699.15254"
   inkscape:window-width="1376"
   inkscape:window-height="993"
   inkscape:window-x="571"
   inkscape:window-y="228"
   inkscape:window-maximized="0"
   inkscape:current-layer="katman_1" />
<style
   type="text/css"
   id="style1">
	.st0{fill:#8247E5;}
	.st1{clip-path:url(#SVGID_00000170985874484226784740000010197121833159053193_);}
	.st2{fill:#FFFFFF;}
</style>

<g
   id="g4"
   transform="matrix(1.160055,0,0,1.160055,-169.13594,-52.666497)"><path
     class="st0"
     d="m 399.8,45.4 v 0 C 540.2,45.4 654,159.2 654,299.6 v 0 C 654,440 540.2,553.7 399.9,553.7 v 0 C 259.5,553.7 145.8,439.9 145.8,299.6 v 0 C 145.7,159.2 259.5,45.4 399.8,45.4 Z"
     id="path1" /><g
     id="g3">
	<defs
   id="defs1">
		<rect
   id="SVGID_1_"
   x="231.5"
   y="155.3"
   width="333.10001"
   height="291.89999" />
	</defs>
	<clipPath
   id="SVGID_00000119824040907289936360000005545950198423505064_">
		<use
   xlink:href="#SVGID_1_"
   style="overflow:visible"
   id="use1" />
	</clipPath>
	<g
   clip-path="url(#SVGID_00000119824040907289936360000005545950198423505064_)"
   id="g2">
		<path
   class="st2"
   d="m 483.1,244.2 c -6.1,-3.5 -13.9,-3.5 -20.8,0 L 413.7,273 380.7,291.3 333,320 c -6.1,3.5 -13.9,3.5 -20.8,0 l -37.3,-22.7 c -6.1,-3.5 -10.4,-10.5 -10.4,-18.3 v -43.6 c 0,-7 3.5,-13.9 10.4,-18.3 l 37.3,-21.8 c 6.1,-3.5 13.9,-3.5 20.8,0 l 37.3,22.7 c 6.1,3.5 10.4,10.5 10.4,18.3 v 28.8 l 33,-19.2 v -29.6 c 0,-7 -3.5,-13.9 -10.4,-18.3 l -69.4,-41 c -6.1,-3.5 -13.9,-3.5 -20.8,0 L 242,198.9 c -6.9,3.5 -10.4,10.5 -10.4,17.4 v 81.9 c 0,7 3.5,13.9 10.4,18.3 l 70.3,41 c 6.1,3.5 13.9,3.5 20.8,0 l 47.7,-27.9 33,-19.2 47.7,-27.9 c 6.1,-3.5 13.9,-3.5 20.8,0 l 37.3,21.8 c 6.1,3.5 10.4,10.5 10.4,18.3 v 43.6 c 0,7 -3.5,13.9 -10.4,18.3 l -36.4,21.8 c -6.1,3.5 -13.9,3.5 -20.8,0 L 425,384.5 C 418.9,381 414.6,374 414.6,366.2 v -27.9 l -33,19.2 v 28.8 c 0,7 3.5,13.9 10.4,18.3 l 70.3,41 c 6.1,3.5 13.9,3.5 20.8,0 l 70.3,-41 c 6.1,-3.5 10.4,-10.5 10.4,-18.3 v -82.8 c 0,-7 -3.5,-13.9 -10.4,-18.3 z"
   id="path2" />
	</g>
</g></g>
</svg>
