<svg xmlns="http://www.w3.org/2000/svg" width="16" height="10" viewBox="0 0 16 10">
    <g fill="none" fill-rule="evenodd">
        <path d="M-4-7h24v24H-4z"/>
        <path fill="#FF2D55" fill-rule="nonzero" d="M8 0C4.943 0 2.17 1.672.125 4.39a.633.633 0 0 0 0 .755C2.171 7.865 4.943 9.537 8 9.537c3.057 0 5.83-1.672 7.875-4.389a.633.633 0 0 0 0-.756C13.829 1.672 11.057 0 8 0zm.22 8.127a3.367 3.367 0 0 1-3.578-3.578A3.373 3.373 0 0 1 7.78 1.411a3.367 3.367 0 0 1 3.577 3.577A3.383 3.383 0 0 1 8.22 8.127zm-.102-1.552a1.81 1.81 0 0 1-1.925-1.924 1.82 1.82 0 0 1 1.692-1.692A1.81 1.81 0 0 1 9.81 4.883a1.82 1.82 0 0 1-1.692 1.692z"/>
    </g>
</svg>
