<svg width="24" height="24" viewBox="0 0 24 24" fill="none" xmlns="http://www.w3.org/2000/svg">
<path fill-rule="evenodd" clip-rule="evenodd" d="M12 22C17.5228 22 22 17.5228 22 12C22 6.47715 17.5228 2 12 2C6.47715 2 2 6.47715 2 12C2 17.5228 6.47715 22 12 22ZM9.71707 13.4496C7.98701 14.1619 6.66313 15.6596 6.18935 17.4988C7.64751 19.0391 9.71155 20 12 20C14.2885 20 16.3525 19.0391 17.8107 17.4988C17.3369 15.6597 16.013 14.1619 14.2829 13.4496C13.5986 13.8014 12.8225 14 12 14C11.1775 14 10.4014 13.8014 9.71707 13.4496ZM12 13C14.2092 13 16 11.2091 16 9C16 6.79086 14.2092 5 12 5C9.79087 5 8.00001 6.79086 8.00001 9C8.00001 11.2091 9.79087 13 12 13Z" fill="#736E7D"/>
</svg>
