<svg xmlns="http://www.w3.org/2000/svg" width="15" height="16" viewBox="0 0 15 16">
    <g fill="none" fill-rule="evenodd">
        <path d="M-5-4h24v24H-5z"/>
        <path fill="#FFF" d="M13.143 0c.315 0 .571.256.571.571V4a.571.571 0 0 1-.39.544l-3.43 1.143a.572.572 0 0 1-.36-1.086l2.531-.844A6.286 6.286 0 0 0 1.143 8 .571.571 0 1 1 0 8a7.414 7.414 0 0 1 12.571-5.341V.57c0-.315.256-.571.572-.571zm1.143 7.429c.315 0 .571.255.571.571a7.414 7.414 0 0 1-12.571 5.341v2.088a.571.571 0 1 1-1.143 0V12c-.001-.247.157-.466.39-.544l3.43-1.143a.572.572 0 0 1 .36 1.086l-2.531.844A6.286 6.286 0 0 0 13.714 8c0-.316.256-.571.572-.571z"/>
    </g>
</svg>
