<svg width="10px" height="16px" viewBox="0 0 10 16" version="1.1" xmlns="http://www.w3.org/2000/svg" xmlns:xlink="http://www.w3.org/1999/xlink">
    <g id="smart-item" stroke="none" stroke-width="1" fill="none" fill-rule="evenodd">
        <g id="landing" transform="translate(-441.000000, -836.000000)">
            <g id="objects" transform="translate(434.000000, 832.000000)">
                <g id="object">
                    <rect id="Rectangle" x="0" y="0" width="24" height="24"></rect>
                    <path d="M13.4432798,18.0624617 L13.4432798,19.5312407 C13.4432798,19.7899958 13.232433,20 12.9726396,20 L11.0900791,20 C10.8302858,20 10.619439,19.7899958 10.619439,19.5312407 L10.619439,18.0624617 L13.4432798,18.0624617 Z M15.8225225,14.4998913 L16.9363708,16.4218043 C17.1174418,16.7340604 16.8903736,17.1249432 16.5287965,17.1249432 L7.47117026,17.1249432 C7.10915387,17.1249432 6.88274459,16.7336542 7.06359591,16.4218043 L8.17744422,14.4998913 L15.8225225,14.4998913 Z M15.0494177,10.9373208 L16.163266,12.8592338 C16.3443369,13.17149 16.1172374,13.5623727 15.7556916,13.5623727 L8.24427512,13.5623727 C7.8822901,13.5623727 7.65588082,13.1710837 7.83670076,12.8592338 L8.95054907,10.9373208 L15.0494177,10.9373208 Z M12.4075577,4.23406327 L15.3421558,9.29666337 C15.5232268,9.60891955 15.2961272,9.99980228 14.9345815,9.99980228 L9.06538526,9.99980228 C8.70340025,9.99980228 8.47699097,9.60851329 8.65781091,9.29666337 L11.592409,4.23406327 C11.7732289,3.92227586 12.226424,3.9216821 12.4075577,4.23406327 Z" id="Combined-Shape" fill="#736E7D" fill-rule="nonzero"></path>
                </g>
            </g>
        </g>
    </g>
</svg>