<svg width="12" height="14" viewBox="0 0 12 14" version="1.1" xmlns="http://www.w3.org/2000/svg" xmlns:xlink="http://www.w3.org/1999/xlink">
    <defs>
        <path d="M14.9988959,14.896236 C14.4926845,14.896236 14.0395695,15.1056416 13.6943414,15.435812 L8.94026228,12.520315 C8.9745727,12.3587355 9.00112093,12.1959829 9.00112093,12.0279785 C9.00112093,11.8599741 8.97401645,11.6978081 8.94026228,11.535642 L13.6406635,8.64755033 C13.9991656,8.997555 14.4732916,9.21629125 14.9988959,9.21629125 C16.1070441,9.21629125 17,8.27653846 17,7.1081323 C17,5.94207212 16.1064879,5 14.9988959,5 C13.8929474,5 12.9994606,5.94207212 12.9994606,7.10757246 C12.9994606,7.27789616 13.0265651,7.43774291 13.0603193,7.59990898 L8.3598928,10.49032 C8.00083437,10.1385825 7.52726461,9.92040605 7.00110407,9.92040605 C5.89295587,9.92040605 5,10.8619183 5,12.0279785 C5,13.1940387 5.89295587,14.1361375 7.00110407,14.1361375 C7.52668307,14.1361375 8.00083437,13.9173746 8.35933655,13.5673965 L13.1050973,16.4893184 C13.0724556,16.638075 13.0519755,16.7932298 13.0519755,16.9478247 C13.0519755,18.0794949 13.926651,19 14.9983144,19 C16.071065,19 16.9462967,18.0800814 16.9462967,16.9478247 C16.9462967,15.815568 16.0716465,14.896236 14.9988959,14.896236 Z" id="path-1"></path>
    </defs>
    <g id="smart-item" stroke="none" stroke-width="1" fill="none" fill-rule="evenodd">
        <g id="builder" transform="translate(-956.000000, -19.000000)">
            <g id="top" transform="translate(0.000000, 4.000000)">
                <g id="sidebar" transform="translate(943.000000, 10.000000)">
                    <g id="share-copy" transform="translate(8.000000, 0.000000)">
                        <mask id="mask-2" fill="white">
                            <use xlink:href="#path-1"></use>
                        </mask>
                        <use id="icon" fill="#FFFFFF" fill-rule="nonzero" xlink:href="#path-1"></use>
                    </g>
                </g>
            </g>
        </g>
    </g>
</svg>