<svg xmlns="http://www.w3.org/2000/svg" width="16" height="10" viewBox="0 0 16 10">
    <g fill="none" fill-rule="evenodd">
        <path d="M-4-7h24v24H-4z"/>
        <path fill="#FFF" fill-rule="nonzero" d="M15.687.313c.209.208.313.46.313.754v7.466c0 .295-.104.546-.313.754-.208.209-.46.313-.754.313H1.067c-.295 0-.546-.104-.754-.313A1.028 1.028 0 0 1 0 8.533V1.067C0 .772.104.52.313.313.52.104.773 0 1.067 0h13.866c.295 0 .546.104.754.313zm-.754 8.22V1.067H1.067v7.466h13.866zM2.267 7.467c-.09 0-.134-.045-.134-.134v-.8c0-.088.045-.133.134-.133h.8c.089 0 .133.045.133.133v.8c0 .089-.044.134-.133.134h-.8zm0-2.134c-.09 0-.134-.044-.134-.133v-.8c0-.089.045-.133.134-.133h1.866c.09 0 .134.044.134.133v.8c0 .089-.045.133-.134.133H2.267zm0-2.133c-.09 0-.134-.045-.134-.133v-.8c0-.09.045-.134.134-.134h.8c.089 0 .133.045.133.134v.8c0 .088-.044.133-.133.133h-.8zM11.6 6.4c.089 0 .133.045.133.133v.8c0 .09-.044.134-.133.134H4.4c-.089 0-.133-.045-.133-.134v-.8c0-.088.044-.133.133-.133h7.2zM5.333 5.2v-.8c0-.089.045-.133.134-.133h.8c.089 0 .133.044.133.133v.8c0 .089-.044.133-.133.133h-.8c-.09 0-.134-.044-.134-.133zm-.933-2c-.089 0-.133-.045-.133-.133v-.8c0-.09.044-.134.133-.134h.8c.089 0 .133.045.133.134v.8c0 .088-.044.133-.133.133h-.8zm3.067 2v-.8c0-.089.044-.133.133-.133h.8c.089 0 .133.044.133.133v.8c0 .089-.044.133-.133.133h-.8c-.089 0-.133-.044-.133-.133zm-.934-2c-.089 0-.133-.045-.133-.133v-.8c0-.09.044-.134.133-.134h.8c.09 0 .134.045.134.134v.8c0 .088-.045.133-.134.133h-.8zm3.067 2v-.8c0-.089.044-.133.133-.133h.8c.09 0 .133.044.133.133v.8c0 .089-.044.133-.133.133h-.8c-.089 0-.133-.044-.133-.133zm4.133 1.2c.09 0 .134.045.134.133v.8c0 .09-.045.134-.134.134h-.8c-.089 0-.133-.045-.133-.134v-.8c0-.088.044-.133.133-.133h.8zM8.667 3.2c-.09 0-.134-.045-.134-.133v-.8c0-.09.045-.134.134-.134h.8c.089 0 .133.045.133.134v.8c0 .088-.044.133-.133.133h-.8zm2.133 0c-.089 0-.133-.045-.133-.133v-.8c0-.09.044-.134.133-.134h.8c.089 0 .133.045.133.134v.8c0 .088-.044.133-.133.133h-.8zm.933 2v-.8c0-.089.045-.133.134-.133h.933v-2c0-.09.044-.134.133-.134h.8c.09 0 .134.045.134.134V5.2c0 .089-.045.133-.134.133h-1.866c-.09 0-.134-.044-.134-.133z"/>
    </g>
</svg>
