<svg width="24" height="24" viewBox="0 0 24 24" fill="none" xmlns="http://www.w3.org/2000/svg">
<path d="M14 12.0003C14 13.1029 13.1029 14 12.0004 14C10.8969 14 10.0007 13.1028 10.0007 12.0003C10.0007 10.8969 10.8979 10.0007 12.0004 10.0007C13.1029 10.0007 14 10.8969 14 12.0003ZM22.0007 12.0003C22.0007 12.5525 21.5535 13.0007 21.0004 13.0007H19.9307C19.4769 16.6119 16.612 19.4778 12.9997 19.9316L13.0007 21.0004C13.0007 21.5535 12.5525 22.0007 12.0003 22.0007C11.4482 22.0007 11 21.5535 11 21.0004V19.9307C7.38874 19.4769 4.5229 16.612 4.06906 12.9997L3.00032 13.0007C2.44813 13.0007 2 12.5525 2 12.0003C2 11.4482 2.44813 11 3.00032 11H4.07C4.52374 7.38874 7.38872 4.5229 11.001 4.06906L11 3.00032C11 2.44813 11.4482 2 12.0003 2C12.5525 2 13.0007 2.44813 13.0007 3.00032V4.07C16.6119 4.52374 19.4778 7.38872 19.9316 11.001L21.0004 11C21.5535 11 22.0007 11.4482 22.0007 12.0003ZM17.9104 13.0007H17.001C16.4479 13.0007 16.0007 12.5525 16.0007 12.0003C16.0007 11.4482 16.4479 11 17.001 11H17.9104C17.4866 8.49322 15.5075 6.51418 13.0007 6.09034V6.99973C13.0007 7.55192 12.5526 8.00005 12.0004 8.00005C11.4482 8.00005 11 7.55192 11 6.99973V6.09034C8.49325 6.51409 6.51421 8.49322 6.09037 11H6.99975C7.55194 11 8.00007 11.4482 8.00007 12.0003C8.00007 12.5525 7.55194 13.0007 6.99975 13.0007H6.09037C6.51411 15.5075 8.49325 17.4865 11 17.9103V17.001C11 16.4478 11.4482 16.0006 12.0004 16.0006C12.5526 16.0006 13.0007 16.4478 13.0007 17.001V17.9103C15.5075 17.4866 17.4865 15.5075 17.9104 13.0007Z" fill="#A09BA8"/>
</svg>
