<svg xmlns="http://www.w3.org/2000/svg" width="12" height="12" viewBox="0 0 12 12">
    <g fill="none" fill-rule="evenodd">
        <path d="M-6-6h24v24H-6z"/>
        <path fill="#736E7D" fill-rule="nonzero" d="M12 4.193V6.08L6.08 12H4.193L12 4.193zm0 5.137v1.337c0 .366-.15.7-.393.943-.24.24-.574.39-.94.39H9.33L12 9.33zM.05 11.007L11.007.05c.414.111.747.414.899.808l.044.135L.993 11.95a1.328 1.328 0 0 1-.497-.248l-.103-.092a1.309 1.309 0 0 1-.3-.468l-.043-.135L11.007.05zM7.807 0L0 7.807V5.92L5.92 0h1.887zM2.67 0L0 2.67V1.333C0 .643.531.071 1.205.006L1.333 0H2.67z"/>
    </g>
</svg>
