<?xml version="1.0" encoding="UTF-8"?>
<svg width="24px" height="20px" viewBox="0 0 24 20" version="1.1" xmlns="http://www.w3.org/2000/svg" xmlns:xlink="http://www.w3.org/1999/xlink">
    <g id="smart-item" stroke="none" stroke-width="1" fill="none" fill-rule="evenodd">
        <g id="share-modal" transform="translate(-777.000000, -533.000000)">
            <g id="modal" transform="translate(460.000000, 151.000000)">
                <g id="CTA" transform="translate(266.000000, 370.000000)">
                    <g id="tw" transform="translate(47.000000, 6.000000)">
                        <rect id="bounds" x="0" y="0" width="32" height="32"></rect>
                        <path d="M28,8.44604317 C27.147929,8.87769784 26.1538462,9.16546763 25.1597633,9.16546763 C26.1538462,8.58992806 27.0059172,7.58273381 27.2899408,6.43165468 C26.295858,7.00719424 25.3017751,7.43884892 24.1656805,7.58273381 C23.3136095,6.57553957 22.035503,6 20.6153846,6 C17.9171598,6 15.6449704,8.30215827 15.6449704,11.0359712 C15.6449704,11.4676259 15.6449704,11.7553957 15.7869822,12.1870504 C11.6686391,12.0431655 7.97633136,10.028777 5.56213018,7.00719424 C5.13609467,7.72661871 4.85207101,8.58992806 4.85207101,9.5971223 C4.85207101,11.323741 5.70414201,12.9064748 7.12426036,13.7697842 C6.27218935,13.7697842 5.56213018,13.4820144 4.85207101,13.1942446 C4.85207101,15.6402878 6.55621302,17.6546763 8.82840237,18.0863309 C8.40236686,18.2302158 7.97633136,18.2302158 7.55029586,18.2302158 C7.26627219,18.2302158 6.98224852,18.2302158 6.55621302,18.0863309 C7.12426036,20.1007194 8.9704142,21.5395683 11.2426036,21.5395683 C9.53846154,22.8345324 7.40828402,23.6978417 5.13609467,23.6978417 C4.71005917,23.6978417 4.28402367,23.6978417 4,23.6978417 C6.13017751,25.1366906 8.82840237,26 11.5266272,26 C20.6153846,26 25.5857988,18.3741007 25.5857988,11.7553957 C25.5857988,11.4676259 25.5857988,11.323741 25.5857988,11.0359712 C26.4378698,10.4604317 27.2899408,9.45323741 28,8.44604317 Z" id="shape" fill="#FFFFFF" fill-rule="nonzero"></path>
                    </g>
                </g>
            </g>
        </g>
    </g>
</svg>