<svg width="12" height="12" viewBox="0 0 12 12" fill="none" xmlns="http://www.w3.org/2000/svg">
<path d="M10.669 0H1.33362C0.593463 0 0 0.600131 0 1.33362V10.669C0 11.4025 0.593463 12.0026 1.33362 12.0026H10.669C11.4025 12.0026 12.0026 11.4025 12.0026 10.669V1.33362C12.0026 0.600131 11.4092 0 10.669 0ZM10.669 10.669H1.33362V2.66725H10.669V10.669ZM7.00152 6.66812C7.00152 7.22157 6.55476 7.66834 6.00131 7.66834C5.44785 7.66834 5.00109 7.22157 5.00109 6.66812C5.00109 6.11466 5.44785 5.6679 6.00131 5.6679C6.55476 5.6679 7.00152 6.11466 7.00152 6.66812ZM6.00131 4.00087C4.18091 4.00087 2.62724 5.10778 2.00044 6.66812C2.62724 8.22846 4.18091 9.33537 6.00131 9.33537C7.8217 9.33537 9.37537 8.22846 10.0022 6.66812C9.37537 5.10778 7.8217 4.00087 6.00131 4.00087ZM6.00131 8.33515C5.08111 8.33515 4.33428 7.58832 4.33428 6.66812C4.33428 5.74792 5.08111 5.00109 6.00131 5.00109C6.92151 5.00109 7.66834 5.74792 7.66834 6.66812C7.66834 7.58832 6.92151 8.33515 6.00131 8.33515Z" fill="#ECEBED"/>
</svg>
