<svg xmlns="http://www.w3.org/2000/svg" width="16" height="14" viewBox="0 0 16 14">
    <g fill="none" fill-rule="evenodd">
        <path d="M-4-5h24v24H-4z"/>
        <path fill="#FFF" d="M10.541 13.5H5.673a.586.586 0 0 1-.59-.583c0-.322.265-.584.59-.584h4.868c2.36 0 4.279-1.896 4.279-4.228 0-2.33-1.92-4.227-4.279-4.227H2.016l1.231 1.217a.58.58 0 0 1 0 .824.594.594 0 0 1-.834 0L.173 3.71a.048.048 0 0 1-.004-.005l-.001-.001a.582.582 0 0 1-.123-.63.599.599 0 0 1 .132-.193L2.413.67a.595.595 0 0 1 .834 0c.231.229.231.597 0 .825L2.016 2.713h8.525c3.01 0 5.459 2.42 5.459 5.393 0 2.975-2.449 5.394-5.459 5.394z"/>
    </g>
</svg>
