<?xml version="1.0" encoding="UTF-8"?>
<svg width="22px" height="14px" viewBox="0 0 22 14" version="1.1" xmlns="http://www.w3.org/2000/svg" xmlns:xlink="http://www.w3.org/1999/xlink">
    <!-- Generator: Sketch 60.1 (88133) - https://sketch.com -->
    <title>view</title>
    <desc>Created with Sketch.</desc>
    <g id="smart-item" stroke="none" stroke-width="1" fill="none" fill-rule="evenodd">
        <g id="landing" transform="translate(-1053.000000, -155.000000)">
            <g id="Group-2" transform="translate(1042.000000, 140.000000)">
                <g id="view" transform="translate(6.000000, 6.000000)">
                    <rect id="Rectangle" x="0" y="0" width="32" height="32"></rect>
                    <path d="M16,9.33333333 C11.9240394,9.33333333 8.22774539,11.5633289 5.5002557,15.1854352 C5.27769254,15.4821861 5.27769254,15.8967645 5.5002557,16.1935154 C8.22774539,19.8199857 11.9240394,22.0499812 16,22.0499812 C20.0759606,22.0499812 23.7722546,19.8199857 26.4997443,16.1978794 C26.7223075,15.9011285 26.7223075,15.4865501 26.4997443,15.1897992 C23.7722546,11.5633289 20.0759606,9.33333333 16,9.33333333 Z M16.2923869,20.1691044 C13.5867171,20.3392997 11.3523576,18.1093041 11.5225529,15.3992704 C11.6622004,13.1649108 13.4732536,11.3538577 15.7076131,11.2142102 C18.4132829,11.0440149 20.6476424,13.2740104 20.4774471,15.9840442 C20.3334356,18.2140398 18.5223825,20.0250929 16.2923869,20.1691044 Z M16.1571034,18.1005762 C14.6995329,18.1922198 13.4950735,16.9921244 13.5910811,15.5345539 C13.6652688,14.3300944 14.6428011,13.3569261 15.8472606,13.2783744 C17.3048311,13.1867308 18.5092905,14.3868262 18.4132829,15.8443967 C18.3347312,17.0532201 17.3571989,18.0263885 16.1571034,18.1005762 Z" id="Shape" fill="#FFFFFF" fill-rule="nonzero"></path>
                </g>
            </g>
        </g>
    </g>
</svg>