<svg width="87" height="86" viewBox="0 0 87 86" fill="none" xmlns="http://www.w3.org/2000/svg">
<g clip-path="url(#clip0_189_667)">
<rect width="65.754" height="73.8101" rx="12.1119" transform="matrix(0.940376 0.340138 -0.400943 0.916103 27.4556 -2.4209)" fill="url(#paint0_linear_189_667)"/>
<rect width="65.754" height="73.8101" rx="12.1119" transform="matrix(0.940376 0.340138 -0.400943 0.916103 27.4556 -2.4209)" fill="url(#paint1_linear_189_667)"/>
<g filter="url(#filter0_df_189_667)">
<rect width="62.8951" height="72.0315" rx="12.1119" transform="matrix(0.940376 0.340138 -0.400943 0.916103 27.4556 -2.4209)" fill="url(#paint2_linear_189_667)"/>
</g>
<g filter="url(#filter1_f_189_667)">
<rect x="0.136115" y="0.316988" width="62.3904" height="71.5268" rx="11.8595" transform="matrix(0.940376 0.340138 -0.400943 0.916103 27.5908 -2.4406)" stroke="url(#paint3_linear_189_667)" stroke-width="0.504661"/>
</g>
<rect width="65.8793" height="72.1724" rx="12" transform="matrix(0.996087 0.0883782 -0.106744 0.994286 11.6526 8.2832)" fill="url(#paint4_linear_189_667)"/>
<rect width="65.8793" height="72.1724" rx="12" transform="matrix(0.996087 0.0883782 -0.106744 0.994286 11.6526 8.2832)" fill="url(#paint5_linear_189_667)"/>
<g filter="url(#filter2_df_189_667)">
<rect width="63.015" height="70.4333" rx="12" transform="matrix(0.996087 0.0883782 -0.106744 0.994286 11.6526 8.2832)" fill="url(#paint6_linear_189_667)"/>
</g>
<g filter="url(#filter3_f_189_667)">
<rect x="0.222336" y="0.270666" width="62.515" height="69.9333" rx="11.75" transform="matrix(0.996087 0.0883782 -0.106744 0.994286 11.6823 8.2651)" stroke="url(#paint7_linear_189_667)" stroke-width="0.5"/>
</g>
<g filter="url(#filter4_dd_189_667)">
<rect width="41.5789" height="4.54101" rx="2.27051" transform="matrix(0.996212 0.0879356 -0.117085 0.993231 18.0303 56.7676)" fill="url(#paint8_linear_189_667)"/>
</g>
<g filter="url(#filter5_f_189_667)">
<rect width="41.5789" height="4.54101" rx="2.27051" transform="matrix(0.996212 0.0879356 -0.117085 0.993231 18.0303 56.7676)" fill="url(#paint9_linear_189_667)"/>
<rect x="0.439563" y="0.540583" width="40.5789" height="3.54101" rx="1.77051" transform="matrix(0.996212 0.0879356 -0.117085 0.993231 18.0952 56.7326)" stroke="url(#paint10_linear_189_667)"/>
</g>
<g style="mix-blend-mode:overlay" opacity="0.3">
<rect width="41.5789" height="4.54101" rx="2.27051" transform="matrix(0.996212 0.0879356 -0.117085 0.993231 18.0303 56.7676)" fill="url(#paint11_linear_189_667)"/>
</g>
<g style="mix-blend-mode:overlay">
<rect x="0.171342" y="0.210719" width="41.1891" height="4.15121" rx="2.07561" transform="matrix(0.996212 0.0879356 -0.117085 0.993231 18.0556 56.7539)" stroke="url(#paint12_linear_189_667)" stroke-width="0.389799"/>
</g>
<g filter="url(#filter6_dd_189_667)">
<rect width="41.5789" height="4.54101" rx="2.27051" transform="matrix(0.996212 0.0879355 -0.117085 0.993231 17.186 64.6299)" fill="url(#paint13_linear_189_667)"/>
</g>
<g filter="url(#filter7_f_189_667)">
<rect width="41.5789" height="4.54101" rx="2.27051" transform="matrix(0.996212 0.0879355 -0.117085 0.993231 17.186 64.6299)" fill="url(#paint14_linear_189_667)"/>
<rect x="0.439563" y="0.540583" width="40.5789" height="3.54101" rx="1.77051" transform="matrix(0.996212 0.0879355 -0.117085 0.993231 17.251 64.5949)" stroke="url(#paint15_linear_189_667)"/>
</g>
<g style="mix-blend-mode:overlay" opacity="0.3">
<rect width="41.5789" height="4.54101" rx="2.27051" transform="matrix(0.996212 0.0879355 -0.117085 0.993231 17.186 64.6299)" fill="url(#paint16_linear_189_667)"/>
</g>
<g style="mix-blend-mode:overlay">
<rect x="0.171342" y="0.210719" width="41.1891" height="4.15121" rx="2.07561" transform="matrix(0.996212 0.0879355 -0.117085 0.993231 17.2201 64.5352)" stroke="url(#paint17_linear_189_667)" stroke-width="0.389799"/>
</g>
<g opacity="0.6" filter="url(#filter8_f_189_667)">
<path d="M42.3302 21.0173C43.5968 21.0862 44.8309 21.3889 45.9595 21.9075C47.088 22.4261 48.088 23.15 48.9003 24.0364C49.7125 24.9227 50.3205 25.9535 50.688 27.0676C51.0556 28.1816 51.1754 29.3563 51.0402 30.522C50.9051 31.6878 50.5178 32.8208 49.9012 33.854C49.2847 34.8872 48.4515 35.7996 47.451 36.537C46.4505 37.2744 45.3031 37.8219 44.0767 38.147C42.8503 38.4722 41.57 38.5683 40.3115 38.4297C39.045 38.3608 37.8109 38.0581 36.6823 37.5395C35.5537 37.0209 34.5537 36.297 33.7415 35.4106C32.9292 34.5243 32.3213 33.4935 31.9537 32.3795C31.5861 31.2654 31.4664 30.0907 31.6015 28.9249C31.7367 27.7592 32.124 26.6262 32.7405 25.593C33.357 24.5598 34.1903 23.6474 35.1907 22.91C36.1912 22.1726 37.3387 21.6251 38.565 21.3C39.7914 20.9748 41.0718 20.8787 42.3302 21.0173Z" fill="#D31CDD"/>
</g>
<path d="M42.3109 20.237C43.5775 20.3059 44.8116 20.6086 45.9402 21.1272C47.0687 21.6458 48.0688 22.3698 48.881 23.2561C49.6932 24.1425 50.3012 25.1732 50.6688 26.2873C51.0363 27.4013 51.1561 28.576 51.0209 29.7418C50.8858 30.9075 50.4985 32.0406 49.882 33.0738C49.2654 34.107 48.4322 35.0193 47.4317 35.7567C46.4312 36.4942 45.2838 37.0417 44.0574 37.3668C42.8311 37.6919 41.5507 37.788 40.2922 37.6495C39.0257 37.5806 37.7916 37.2778 36.663 36.7592C35.5345 36.2406 34.5344 35.5167 33.7222 34.6304C32.91 33.744 32.302 32.7132 31.9344 31.5992C31.5668 30.4851 31.4471 29.3104 31.5822 28.1447C31.7174 26.9789 32.1047 25.8459 32.7212 24.8127C33.3378 23.7795 34.171 22.8671 35.1715 22.1297C36.172 21.3923 37.3194 20.8448 38.5458 20.5197C39.7721 20.1946 41.0525 20.0985 42.3109 20.237Z" fill="#D31CDD"/>
<path d="M42.2553 20.6232L42.266 20.6244L42.2768 20.625C43.4953 20.6913 44.682 20.9825 45.7665 21.4809C46.8509 21.9792 47.8101 22.674 48.5879 23.5228C49.3657 24.3716 49.9461 25.3567 50.2967 26.4192C50.6472 27.4815 50.761 28.6004 50.6324 29.7098C50.5038 30.8193 50.1351 31.8986 49.5472 32.8838C48.9592 33.8691 48.1634 34.7412 47.2054 35.4474C46.2473 36.1535 45.1467 36.6791 43.9682 36.9915C42.7898 37.304 41.5586 37.3965 40.3479 37.2632L40.3371 37.262L40.3264 37.2615C39.1079 37.1952 37.9212 36.9039 36.8367 36.4056C35.7523 35.9073 34.7931 35.2125 34.0153 34.3637C33.2375 33.5149 32.6571 32.5297 32.3065 31.4673C31.956 30.405 31.8421 29.2861 31.9708 28.1766C32.0994 27.0671 32.4681 25.9879 33.056 25.0027C33.6439 24.0173 34.4397 23.1452 35.3978 22.4391C36.3559 21.7329 37.4565 21.2073 38.6349 20.8949C39.8134 20.5825 41.0446 20.4899 42.2553 20.6232Z" fill="url(#paint18_linear_189_667)" stroke="url(#paint19_linear_189_667)" stroke-width="0.779599"/>
<g style="mix-blend-mode:overlay">
<path d="M42.1103 21.1225L42.1103 21.1228L42.1209 21.1233C43.3052 21.1883 44.4593 21.4682 45.5147 21.9462C46.5701 22.4241 47.5047 23.0901 48.2636 23.9038C49.0224 24.7174 49.59 25.6621 49.9338 26.6812C50.2776 27.7004 50.3909 28.7738 50.2675 29.8381C50.1441 30.9025 49.7864 31.9373 49.215 32.8812C48.6436 33.8252 47.8698 34.6596 46.9383 35.3344C46.0069 36.0092 44.937 36.5105 43.7918 36.8076C42.6465 37.1047 41.4499 37.1915 40.273 37.0625L40.273 37.0622L40.2624 37.0616C39.0781 36.9966 37.924 36.7167 36.8686 36.2388C35.8132 35.7608 34.8787 35.0949 34.1198 34.2812C33.3609 33.4676 32.7933 32.5229 32.4495 31.5037C32.1057 30.4846 31.9925 29.4112 32.1159 28.3468C32.2393 27.2824 32.5969 26.2477 33.1683 25.3038C33.7397 24.3598 34.5136 23.5254 35.445 22.8506C36.3765 22.1758 37.4463 21.6745 38.5916 21.3774C39.7368 21.0802 40.9334 20.9935 42.1103 21.1225Z" stroke="url(#paint20_linear_189_667)" stroke-width="0.389799"/>
</g>
<g opacity="0.6" filter="url(#filter9_f_189_667)">
<path d="M52.374 52.4681C52.3706 52.6187 52.3322 52.7675 52.2614 52.9044C52.1907 53.0413 52.0893 53.1631 51.964 53.2615C51.8387 53.36 51.6925 53.4329 51.5353 53.4752C51.378 53.5175 51.2134 53.5283 51.0524 53.5069L24.9892 51.244C24.8268 51.2387 24.6681 51.2021 24.5231 51.1365C24.3782 51.0709 24.2502 50.9778 24.1475 50.8631C24.0448 50.7484 23.9695 50.6146 23.9267 50.4704C23.8838 50.3262 23.8742 50.1748 23.8985 50.0259C24.5765 46.7664 26.5348 43.8338 29.3944 41.7958C32.254 39.7579 35.8113 38.7595 39.3776 38.9942C46.7323 39.5477 52.2937 45.4084 52.374 52.4681Z" fill="#D31CDD"/>
</g>
<path d="M53.2622 50.9788C53.2587 51.1295 53.2203 51.2783 53.1496 51.4152C53.0789 51.552 52.9774 51.6738 52.8522 51.7723C52.7269 51.8707 52.5807 51.9436 52.4234 51.9859C52.2662 52.0283 52.1015 52.0391 51.9406 52.0176L25.8774 49.7547C25.715 49.7495 25.5563 49.7129 25.4113 49.6473C25.2664 49.5817 25.1384 49.4885 25.0357 49.3738C24.9329 49.2591 24.8577 49.1253 24.8148 48.9812C24.772 48.837 24.7624 48.6856 24.7867 48.5367C25.4647 45.2772 27.423 42.3445 30.2826 40.3066C33.1422 38.2686 36.6995 37.2703 40.2658 37.5049C47.6205 38.0584 53.1819 43.9192 53.2622 50.9788Z" fill="#D31CDD"/>
<path d="M52.0039 51.6323L51.9951 51.6311L51.9862 51.6304L25.923 49.3674L25.9124 49.3665L25.9018 49.3662C25.7897 49.3625 25.6807 49.3373 25.582 49.2926C25.4833 49.2479 25.3981 49.1854 25.3311 49.1105C25.264 49.0356 25.2166 48.9503 25.19 48.8607C25.1641 48.7737 25.158 48.6834 25.1713 48.5951C25.8296 45.4425 27.7263 42.5998 30.5039 40.6202C33.2846 38.6385 36.749 37.6643 40.2265 37.8927C47.3871 38.4325 52.7894 44.1352 52.8712 50.9875C52.8683 51.076 52.8453 51.1638 52.803 51.2458C52.7597 51.3296 52.6964 51.4065 52.6155 51.4701C52.5345 51.5337 52.438 51.5823 52.3319 51.6109C52.2258 51.6394 52.1138 51.6469 52.0039 51.6323Z" fill="url(#paint21_linear_189_667)" stroke="url(#paint22_linear_189_667)" stroke-width="0.779599"/>
<g style="mix-blend-mode:overlay">
<path d="M51.0186 51.3147L51.0186 51.3145L51.0099 51.3137L26.9911 49.2351L26.9911 49.2348L26.9806 49.2345C26.8558 49.2304 26.734 49.2025 26.6232 49.1531C26.5124 49.1036 26.4158 49.034 26.3389 48.9495C26.2621 48.8651 26.2068 48.7679 26.1755 48.6645C26.1445 48.5626 26.1373 48.4564 26.1539 48.3521C26.7639 45.4492 28.5326 42.8348 31.1237 41.017C33.7163 39.198 36.9467 38.3071 40.1896 38.5204C46.8728 39.0231 51.9236 44.2702 52.008 50.5707C52.0052 50.6758 51.9779 50.7798 51.9275 50.8761C51.8765 50.9735 51.8026 51.0615 51.7096 51.1335C51.6166 51.2055 51.5067 51.2597 51.3872 51.2913C51.2676 51.3229 51.1418 51.3309 51.0186 51.3147Z" stroke="url(#paint23_linear_189_667)" stroke-width="0.389799"/>
</g>
<g filter="url(#filter10_f_189_667)">
<ellipse cx="11.9347" cy="10.8693" rx="11.9347" ry="10.8693" transform="matrix(0.996087 0.0883782 -0.106744 0.994286 6.99023 6.99707)" fill="url(#paint24_linear_189_667)"/>
</g>
<g filter="url(#filter11_f_189_667)">
<ellipse cx="11.9347" cy="10.8693" rx="11.9347" ry="10.8693" transform="matrix(0.996087 0.0883782 -0.106744 0.994286 5.27393 5.09863)" fill="url(#paint25_linear_189_667)"/>
</g>
<ellipse cx="12.8894" cy="11.7389" rx="12.8894" ry="11.7389" transform="matrix(0.996087 0.0883782 -0.106744 0.994286 3.65015 2.33691)" fill="url(#paint26_linear_189_667)"/>
<ellipse cx="12.412" cy="11.7389" rx="12.412" ry="11.7389" transform="matrix(0.996087 0.0883782 -0.106744 0.994286 2.69922 2.25195)" fill="url(#paint27_linear_189_667)"/>
<g filter="url(#filter12_bi_189_667)">
<ellipse cx="10.0251" cy="9.13024" rx="10.0251" ry="9.13024" transform="matrix(0.996087 0.0883782 -0.106744 0.994286 4.32275 5.01465)" fill="url(#paint28_linear_189_667)"/>
<path d="M23.0709 15.8426C22.5497 20.6977 17.7861 24.2873 12.3861 23.8082C6.98618 23.3291 3.07595 18.9699 3.59717 14.1148C4.1184 9.25978 8.88201 5.67011 14.282 6.14922C19.6819 6.62833 23.5921 10.9876 23.0709 15.8426Z" stroke="url(#paint29_linear_189_667)" stroke-width="0.5"/>
</g>
<g filter="url(#filter13_i_189_667)">
<ellipse cx="9.54773" cy="8.69547" rx="9.54773" ry="8.69547" transform="matrix(0.996087 0.0883782 -0.106744 0.994286 5.27393 5.09863)" fill="url(#paint30_linear_189_667)"/>
</g>
<g filter="url(#filter14_f_189_667)">
<path fill-rule="evenodd" clip-rule="evenodd" d="M19.5206 12.1435C19.8363 12.4828 19.7889 13.0236 19.4179 13.3154L12.0136 19.1403C11.6786 19.4039 11.2003 19.3661 10.9214 19.0541L8.54389 16.3949C8.23503 16.0494 8.29301 15.5094 8.66951 15.2247L8.73162 15.1778C9.0668 14.9244 9.53639 14.966 9.81134 15.2736L11.639 17.3178L18.3849 12.0109C18.7152 11.751 19.1857 11.7835 19.4667 12.0856L19.5206 12.1435Z" fill="#2336DE"/>
<path fill-rule="evenodd" clip-rule="evenodd" d="M19.5206 12.1435C19.8363 12.4828 19.7889 13.0236 19.4179 13.3154L12.0136 19.1403C11.6786 19.4039 11.2003 19.3661 10.9214 19.0541L8.54389 16.3949C8.23503 16.0494 8.29301 15.5094 8.66951 15.2247L8.73162 15.1778C9.0668 14.9244 9.53639 14.966 9.81134 15.2736L11.639 17.3178L18.3849 12.0109C18.7152 11.751 19.1857 11.7835 19.4667 12.0856L19.5206 12.1435Z" stroke="#2336DE"/>
</g>
<path fill-rule="evenodd" clip-rule="evenodd" d="M19.6134 11.2793C19.929 11.6185 19.8817 12.1594 19.5107 12.4512L12.1064 18.276C11.7714 18.5396 11.2931 18.5019 11.0142 18.1899L8.63666 15.5306C8.3278 15.1851 8.38578 14.6451 8.76228 14.3605L8.82439 14.3135C9.15957 14.0601 9.62916 14.1018 9.90411 14.4093L11.7317 16.4535L18.4777 11.1466C18.8079 10.8868 19.2785 10.9193 19.5595 11.2213L19.6134 11.2793Z" fill="url(#paint31_linear_189_667)"/>
<path fill-rule="evenodd" clip-rule="evenodd" d="M19.6134 11.2793C19.929 11.6185 19.8817 12.1594 19.5107 12.4512L12.1064 18.276C11.7714 18.5396 11.2931 18.5019 11.0142 18.1899L8.63666 15.5306C8.3278 15.1851 8.38578 14.6451 8.76228 14.3605L8.82439 14.3135C9.15957 14.0601 9.62916 14.1018 9.90411 14.4093L11.7317 16.4535L18.4777 11.1466C18.8079 10.8868 19.2785 10.9193 19.5595 11.2213L19.6134 11.2793Z" stroke="white"/>
</g>
<defs>
<filter id="filter0_df_189_667" x="0.417391" y="-1.06357" width="86.3596" height="86.6848" filterUnits="userSpaceOnUse" color-interpolation-filters="sRGB">
<feFlood flood-opacity="0" result="BackgroundImageFix"/>
<feColorMatrix in="SourceAlpha" type="matrix" values="0 0 0 0 0 0 0 0 0 0 0 0 0 0 0 0 0 0 127 0" result="hardAlpha"/>
<feOffset dx="1.00932" dy="1.00932"/>
<feGaussianBlur stdDeviation="1.51398"/>
<feComposite in2="hardAlpha" operator="out"/>
<feColorMatrix type="matrix" values="0 0 0 0 0 0 0 0 0 0 0 0 0 0 0 0 0 0 0.1 0"/>
<feBlend mode="normal" in2="BackgroundImageFix" result="effect1_dropShadow_189_667"/>
<feBlend mode="normal" in="SourceGraphic" in2="effect1_dropShadow_189_667" result="shape"/>
<feGaussianBlur stdDeviation="0.504661" result="effect2_foregroundBlur_189_667"/>
</filter>
<filter id="filter1_f_189_667" x="1.42671" y="-0.0542438" width="82.3224" height="82.6476" filterUnits="userSpaceOnUse" color-interpolation-filters="sRGB">
<feFlood flood-opacity="0" result="BackgroundImageFix"/>
<feBlend mode="normal" in="SourceGraphic" in2="BackgroundImageFix" result="shape"/>
<feGaussianBlur stdDeviation="0.504661" result="effect1_foregroundBlur_189_667"/>
</filter>
<filter id="filter2_df_189_667" x="3.3457" y="7.2959" width="73.8638" height="79.5742" filterUnits="userSpaceOnUse" color-interpolation-filters="sRGB">
<feFlood flood-opacity="0" result="BackgroundImageFix"/>
<feColorMatrix in="SourceAlpha" type="matrix" values="0 0 0 0 0 0 0 0 0 0 0 0 0 0 0 0 0 0 127 0" result="hardAlpha"/>
<feOffset dx="1" dy="1"/>
<feGaussianBlur stdDeviation="1.5"/>
<feComposite in2="hardAlpha" operator="out"/>
<feColorMatrix type="matrix" values="0 0 0 0 0 0 0 0 0 0 0 0 0 0 0 0 0 0 0.1 0"/>
<feBlend mode="normal" in2="BackgroundImageFix" result="effect1_dropShadow_189_667"/>
<feBlend mode="normal" in="SourceGraphic" in2="effect1_dropShadow_189_667" result="shape"/>
<feGaussianBlur stdDeviation="0.5" result="effect2_foregroundBlur_189_667"/>
</filter>
<filter id="filter3_f_189_667" x="4.3457" y="8.2959" width="69.8638" height="75.5742" filterUnits="userSpaceOnUse" color-interpolation-filters="sRGB">
<feFlood flood-opacity="0" result="BackgroundImageFix"/>
<feBlend mode="normal" in="SourceGraphic" in2="BackgroundImageFix" result="shape"/>
<feGaussianBlur stdDeviation="0.5" result="effect1_foregroundBlur_189_667"/>
</filter>
<filter id="filter4_dd_189_667" x="14.185" y="55.3945" width="48.5801" height="14.9121" filterUnits="userSpaceOnUse" color-interpolation-filters="sRGB">
<feFlood flood-opacity="0" result="BackgroundImageFix"/>
<feColorMatrix in="SourceAlpha" type="matrix" values="0 0 0 0 0 0 0 0 0 0 0 0 0 0 0 0 0 0 127 0" result="hardAlpha"/>
<feOffset dy="2"/>
<feGaussianBlur stdDeviation="1.78174"/>
<feComposite in2="hardAlpha" operator="out"/>
<feColorMatrix type="matrix" values="0 0 0 0 0.766667 0 0 0 0 0.450873 0 0 0 0 0.214028 0 0 0 0.5 0"/>
<feBlend mode="normal" in2="BackgroundImageFix" result="effect1_dropShadow_189_667"/>
<feColorMatrix in="SourceAlpha" type="matrix" values="0 0 0 0 0 0 0 0 0 0 0 0 0 0 0 0 0 0 127 0" result="hardAlpha"/>
<feOffset dy="2"/>
<feComposite in2="hardAlpha" operator="out"/>
<feColorMatrix type="matrix" values="0 0 0 0 1 0 0 0 0 0.459524 0 0 0 0 0.0541667 0 0 0 0.1 0"/>
<feBlend mode="normal" in2="effect1_dropShadow_189_667" result="effect2_dropShadow_189_667"/>
<feBlend mode="normal" in="SourceGraphic" in2="effect2_dropShadow_189_667" result="shape"/>
</filter>
<filter id="filter5_f_189_667" x="16.7145" y="55.924" width="43.5211" height="9.85316" filterUnits="userSpaceOnUse" color-interpolation-filters="sRGB">
<feFlood flood-opacity="0" result="BackgroundImageFix"/>
<feBlend mode="normal" in="SourceGraphic" in2="BackgroundImageFix" result="shape"/>
<feGaussianBlur stdDeviation="0.517" result="effect1_foregroundBlur_189_667"/>
</filter>
<filter id="filter6_dd_189_667" x="13.3408" y="63.2568" width="48.5801" height="14.9121" filterUnits="userSpaceOnUse" color-interpolation-filters="sRGB">
<feFlood flood-opacity="0" result="BackgroundImageFix"/>
<feColorMatrix in="SourceAlpha" type="matrix" values="0 0 0 0 0 0 0 0 0 0 0 0 0 0 0 0 0 0 127 0" result="hardAlpha"/>
<feOffset dy="2"/>
<feGaussianBlur stdDeviation="1.78174"/>
<feComposite in2="hardAlpha" operator="out"/>
<feColorMatrix type="matrix" values="0 0 0 0 0.766667 0 0 0 0 0.450873 0 0 0 0 0.214028 0 0 0 0.5 0"/>
<feBlend mode="normal" in2="BackgroundImageFix" result="effect1_dropShadow_189_667"/>
<feColorMatrix in="SourceAlpha" type="matrix" values="0 0 0 0 0 0 0 0 0 0 0 0 0 0 0 0 0 0 127 0" result="hardAlpha"/>
<feOffset dy="2"/>
<feComposite in2="hardAlpha" operator="out"/>
<feColorMatrix type="matrix" values="0 0 0 0 1 0 0 0 0 0.459524 0 0 0 0 0.0541667 0 0 0 0.1 0"/>
<feBlend mode="normal" in2="effect1_dropShadow_189_667" result="effect2_dropShadow_189_667"/>
<feBlend mode="normal" in="SourceGraphic" in2="effect2_dropShadow_189_667" result="shape"/>
</filter>
<filter id="filter7_f_189_667" x="15.8703" y="63.7863" width="43.5211" height="9.85316" filterUnits="userSpaceOnUse" color-interpolation-filters="sRGB">
<feFlood flood-opacity="0" result="BackgroundImageFix"/>
<feBlend mode="normal" in="SourceGraphic" in2="BackgroundImageFix" result="shape"/>
<feGaussianBlur stdDeviation="0.517" result="effect1_foregroundBlur_189_667"/>
</filter>
<filter id="filter8_f_189_667" x="28.4292" y="17.8377" width="25.7832" height="23.7719" filterUnits="userSpaceOnUse" color-interpolation-filters="sRGB">
<feFlood flood-opacity="0" result="BackgroundImageFix"/>
<feBlend mode="normal" in="SourceGraphic" in2="BackgroundImageFix" result="shape"/>
<feGaussianBlur stdDeviation="1.5592" result="effect1_foregroundBlur_189_667"/>
</filter>
<filter id="filter9_f_189_667" x="20.7671" y="35.8425" width="34.7253" height="20.7934" filterUnits="userSpaceOnUse" color-interpolation-filters="sRGB">
<feFlood flood-opacity="0" result="BackgroundImageFix"/>
<feBlend mode="normal" in="SourceGraphic" in2="BackgroundImageFix" result="shape"/>
<feGaussianBlur stdDeviation="1.5592" result="effect1_foregroundBlur_189_667"/>
</filter>
<filter id="filter10_f_189_667" x="-4.22729" y="-2" width="43.8906" height="41.7188" filterUnits="userSpaceOnUse" color-interpolation-filters="sRGB">
<feFlood flood-opacity="0" result="BackgroundImageFix"/>
<feBlend mode="normal" in="SourceGraphic" in2="BackgroundImageFix" result="shape"/>
<feGaussianBlur stdDeviation="5" result="effect1_foregroundBlur_189_667"/>
</filter>
<filter id="filter11_f_189_667" x="1.0564" y="3.10156" width="29.8906" height="27.7188" filterUnits="userSpaceOnUse" color-interpolation-filters="sRGB">
<feFlood flood-opacity="0" result="BackgroundImageFix"/>
<feBlend mode="normal" in="SourceGraphic" in2="BackgroundImageFix" result="shape"/>
<feGaussianBlur stdDeviation="1.5" result="effect1_foregroundBlur_189_667"/>
</filter>
<filter id="filter12_bi_189_667" x="1.30005" y="3.85645" width="24.0681" height="22.2441" filterUnits="userSpaceOnUse" color-interpolation-filters="sRGB">
<feFlood flood-opacity="0" result="BackgroundImageFix"/>
<feGaussianBlur in="BackgroundImageFix" stdDeviation="1"/>
<feComposite in2="SourceAlpha" operator="in" result="effect1_backgroundBlur_189_667"/>
<feBlend mode="normal" in="SourceGraphic" in2="effect1_backgroundBlur_189_667" result="shape"/>
<feColorMatrix in="SourceAlpha" type="matrix" values="0 0 0 0 0 0 0 0 0 0 0 0 0 0 0 0 0 0 127 0" result="hardAlpha"/>
<feOffset dy="2"/>
<feGaussianBlur stdDeviation="2"/>
<feComposite in2="hardAlpha" operator="arithmetic" k2="-1" k3="1"/>
<feColorMatrix type="matrix" values="0 0 0 0 0.225313 0 0 0 0 0.364577 0 0 0 0 0.858333 0 0 0 0.25 0"/>
<feBlend mode="normal" in2="shape" result="effect2_innerShadow_189_667"/>
</filter>
<filter id="filter13_i_189_667" x="4.2998" y="5.90039" width="19.1125" height="19.375" filterUnits="userSpaceOnUse" color-interpolation-filters="sRGB">
<feFlood flood-opacity="0" result="BackgroundImageFix"/>
<feBlend mode="normal" in="SourceGraphic" in2="BackgroundImageFix" result="shape"/>
<feColorMatrix in="SourceAlpha" type="matrix" values="0 0 0 0 0 0 0 0 0 0 0 0 0 0 0 0 0 0 127 0" result="hardAlpha"/>
<feOffset dy="2"/>
<feGaussianBlur stdDeviation="2"/>
<feComposite in2="hardAlpha" operator="arithmetic" k2="-1" k3="1"/>
<feColorMatrix type="matrix" values="0 0 0 0 0.225313 0 0 0 0 0.364577 0 0 0 0 0.858333 0 0 0 0.7 0"/>
<feBlend mode="normal" in2="shape" result="effect1_innerShadow_189_667"/>
</filter>
<filter id="filter14_f_189_667" x="4.84424" y="8.33691" width="18.3865" height="14.4775" filterUnits="userSpaceOnUse" color-interpolation-filters="sRGB">
<feFlood flood-opacity="0" result="BackgroundImageFix"/>
<feBlend mode="normal" in="SourceGraphic" in2="BackgroundImageFix" result="shape"/>
<feGaussianBlur stdDeviation="1.5" result="effect1_foregroundBlur_189_667"/>
</filter>
<linearGradient id="paint0_linear_189_667" x1="17.6297" y1="73.8101" x2="62.8586" y2="31.5808" gradientUnits="userSpaceOnUse">
<stop stop-color="#574F67"/>
<stop offset="0.401042" stop-color="#574F67"/>
<stop offset="0.53125" stop-color="#574F67"/>
<stop offset="0.671875" stop-color="#574F67"/>
</linearGradient>
<linearGradient id="paint1_linear_189_667" x1="50.0302" y1="-8.72765e-07" x2="44.1905" y2="30.3951" gradientUnits="userSpaceOnUse">
<stop stop-color="#9288A6"/>
<stop offset="1" stop-color="#7A708F" stop-opacity="0"/>
</linearGradient>
<linearGradient id="paint2_linear_189_667" x1="31.4476" y1="0" x2="31.4476" y2="72.0315" gradientUnits="userSpaceOnUse">
<stop stop-color="#7A708F"/>
<stop offset="1" stop-color="#666171"/>
</linearGradient>
<linearGradient id="paint3_linear_189_667" x1="50.0302" y1="3.43007" x2="17.7604" y2="32.1558" gradientUnits="userSpaceOnUse">
<stop stop-color="white"/>
<stop offset="1" stop-color="white" stop-opacity="0"/>
</linearGradient>
<linearGradient id="paint4_linear_189_667" x1="17.6633" y1="72.1724" x2="61.9495" y2="29.8046" gradientUnits="userSpaceOnUse">
<stop stop-color="#FFA25A"/>
<stop offset="0.401042" stop-color="#EC9937"/>
<stop offset="0.53125" stop-color="#D88538"/>
<stop offset="0.671875" stop-color="#FFA25A"/>
</linearGradient>
<linearGradient id="paint5_linear_189_667" x1="50.1256" y1="-8.53401e-07" x2="44.5434" y2="29.7711" gradientUnits="userSpaceOnUse">
<stop stop-color="#FFD15A"/>
<stop offset="1" stop-color="#FFA25A" stop-opacity="0"/>
<stop offset="1" stop-color="#FFD15A" stop-opacity="0"/>
</linearGradient>
<linearGradient id="paint6_linear_189_667" x1="31.5075" y1="0" x2="31.5075" y2="70.4333" gradientUnits="userSpaceOnUse">
<stop stop-color="#FFD15B"/>
<stop offset="0.994792" stop-color="#FFB45B"/>
</linearGradient>
<linearGradient id="paint7_linear_189_667" x1="50.1256" y1="3.35397" x2="18.4919" y2="32.2073" gradientUnits="userSpaceOnUse">
<stop stop-color="white"/>
<stop offset="1" stop-color="white" stop-opacity="0"/>
</linearGradient>
<linearGradient id="paint8_linear_189_667" x1="20.7895" y1="0" x2="20.7895" y2="4.54101" gradientUnits="userSpaceOnUse">
<stop stop-color="white"/>
<stop offset="1" stop-color="#E6F9FF"/>
</linearGradient>
<linearGradient id="paint9_linear_189_667" x1="20.7895" y1="0" x2="20.7895" y2="4.54101" gradientUnits="userSpaceOnUse">
<stop stop-color="#DFFBFF"/>
<stop offset="1" stop-color="#E9EFFF"/>
</linearGradient>
<linearGradient id="paint10_linear_189_667" x1="26.966" y1="-4.49501e-08" x2="26.7999" y2="4.75118" gradientUnits="userSpaceOnUse">
<stop stop-color="white"/>
<stop offset="1" stop-color="#C8CFE9"/>
</linearGradient>
<linearGradient id="paint11_linear_189_667" x1="20.7895" y1="0" x2="20.7895" y2="4.54101" gradientUnits="userSpaceOnUse">
<stop offset="0.489583" stop-opacity="0"/>
<stop offset="1"/>
</linearGradient>
<linearGradient id="paint12_linear_189_667" x1="33.0741" y1="0.216239" x2="32.6403" y2="4.26604" gradientUnits="userSpaceOnUse">
<stop stop-color="white"/>
<stop offset="0.130208" stop-color="white" stop-opacity="0"/>
</linearGradient>
<linearGradient id="paint13_linear_189_667" x1="20.7895" y1="0" x2="20.7895" y2="4.54101" gradientUnits="userSpaceOnUse">
<stop stop-color="white"/>
<stop offset="1" stop-color="#E6F9FF"/>
</linearGradient>
<linearGradient id="paint14_linear_189_667" x1="20.7895" y1="0" x2="20.7895" y2="4.54101" gradientUnits="userSpaceOnUse">
<stop stop-color="#DFFBFF"/>
<stop offset="1" stop-color="#E9EFFF"/>
</linearGradient>
<linearGradient id="paint15_linear_189_667" x1="26.966" y1="-4.49501e-08" x2="26.7999" y2="4.75118" gradientUnits="userSpaceOnUse">
<stop stop-color="white"/>
<stop offset="1" stop-color="#C8CFE9"/>
</linearGradient>
<linearGradient id="paint16_linear_189_667" x1="20.7895" y1="0" x2="20.7895" y2="4.54101" gradientUnits="userSpaceOnUse">
<stop offset="0.489583" stop-opacity="0"/>
<stop offset="1"/>
</linearGradient>
<linearGradient id="paint17_linear_189_667" x1="33.0741" y1="0.216238" x2="32.6403" y2="4.26603" gradientUnits="userSpaceOnUse">
<stop stop-color="white"/>
<stop offset="0.130208" stop-color="white" stop-opacity="0"/>
</linearGradient>
<linearGradient id="paint18_linear_189_667" x1="45.9291" y1="21.2409" x2="36.7915" y2="29.4849" gradientUnits="userSpaceOnUse">
<stop stop-color="#F873FF"/>
<stop offset="0.0729167" stop-color="#EA24F4"/>
<stop offset="1" stop-color="#C41CCD"/>
</linearGradient>
<linearGradient id="paint19_linear_189_667" x1="52.0308" y1="21.0317" x2="41.2932" y2="29.2599" gradientUnits="userSpaceOnUse">
<stop stop-color="#F75BFF"/>
<stop offset="0.734375" stop-color="#D71FE1"/>
<stop offset="1" stop-color="#BB17C4"/>
</linearGradient>
<linearGradient id="paint20_linear_189_667" x1="47.5261" y1="22.1535" x2="39.2714" y2="30.0027" gradientUnits="userSpaceOnUse">
<stop stop-color="white"/>
<stop offset="0.130208" stop-color="white" stop-opacity="0"/>
</linearGradient>
<linearGradient id="paint21_linear_189_667" x1="44.7226" y1="39.3455" x2="39.6834" y2="48.4363" gradientUnits="userSpaceOnUse">
<stop stop-color="#F873FF"/>
<stop offset="0.0729167" stop-color="#EA24F4"/>
<stop offset="1" stop-color="#C41CCD"/>
</linearGradient>
<linearGradient id="paint22_linear_189_667" x1="54.4976" y1="38.4691" x2="47.0373" y2="49.5779" gradientUnits="userSpaceOnUse">
<stop stop-color="#F75BFF"/>
<stop offset="0.734375" stop-color="#D71FE1"/>
<stop offset="1" stop-color="#BB17C4"/>
</linearGradient>
<linearGradient id="paint23_linear_189_667" x1="47.384" y1="41.3032" x2="42.9198" y2="48.4504" gradientUnits="userSpaceOnUse">
<stop stop-color="white"/>
<stop offset="0.130208" stop-color="white" stop-opacity="0"/>
</linearGradient>
<linearGradient id="paint24_linear_189_667" x1="12.3767" y1="7.64879" x2="22.1327" y2="34.8413" gradientUnits="userSpaceOnUse">
<stop stop-color="#B76E2E"/>
<stop offset="1" stop-color="#F1A15C" stop-opacity="0"/>
</linearGradient>
<linearGradient id="paint25_linear_189_667" x1="12.3767" y1="7.64879" x2="22.1327" y2="34.8413" gradientUnits="userSpaceOnUse">
<stop stop-color="#753E10"/>
<stop offset="1" stop-color="#854F21" stop-opacity="0"/>
</linearGradient>
<linearGradient id="paint26_linear_189_667" x1="12.8894" y1="5.1829e-08" x2="11.3047" y2="31.3201" gradientUnits="userSpaceOnUse">
<stop stop-color="#C2C8FF"/>
<stop offset="1" stop-color="#6A75DA"/>
</linearGradient>
<linearGradient id="paint27_linear_189_667" x1="12.412" y1="0" x2="12.412" y2="23.4778" gradientUnits="userSpaceOnUse">
<stop stop-color="#A6AFFF"/>
<stop offset="1" stop-color="#B9C0FF"/>
</linearGradient>
<linearGradient id="paint28_linear_189_667" x1="5.01256" y1="18.2605" x2="12.7534" y2="4.63882" gradientUnits="userSpaceOnUse">
<stop offset="0.399267" stop-color="#B9C0FF"/>
<stop offset="1" stop-color="#9AA4FC"/>
</linearGradient>
<linearGradient id="paint29_linear_189_667" x1="14.3086" y1="5.90065" x2="12.6951" y2="24.0866" gradientUnits="userSpaceOnUse">
<stop stop-color="#FCFCFC" stop-opacity="0"/>
<stop offset="1" stop-color="#C1D3FF"/>
</linearGradient>
<linearGradient id="paint30_linear_189_667" x1="9.54773" y1="0" x2="9.54773" y2="17.3909" gradientUnits="userSpaceOnUse">
<stop stop-color="#909BFD"/>
<stop offset="1" stop-color="#A5AEFF"/>
</linearGradient>
<linearGradient id="paint31_linear_189_667" x1="14.4663" y1="10.279" x2="13.6979" y2="18.939" gradientUnits="userSpaceOnUse">
<stop stop-color="white"/>
<stop offset="1" stop-color="#ECEBED"/>
</linearGradient>
<clipPath id="clip0_189_667">
<rect width="86" height="86" fill="white" transform="translate(0.5)"/>
</clipPath>
</defs>
</svg>
