<svg width="87" height="87" viewBox="0 0 87 87" fill="none" xmlns="http://www.w3.org/2000/svg">
<circle cx="43.5" cy="43.5" r="43.5" fill="white"/>
<g clip-path="url(#clip0_119_22392)">
<path d="M22.9004 37.517C23.5096 38.8466 25.0327 41.5058 25.0327 41.5058L42.4718 11.8638L25.4896 24.0647C24.4996 24.7686 23.6619 25.7071 23.0527 26.8021C21.4534 30.1652 21.4534 34.0757 22.9004 37.517Z" fill="url(#paint0_linear_119_22392)"/>
<path d="M16.0466 47.215C16.4274 52.9244 19.2451 58.2427 23.662 61.684L42.4719 75.1363C42.4719 75.1363 30.6681 57.6952 20.7681 40.3324C19.7781 38.5335 19.0928 36.5 18.7881 34.3884C18.6358 33.4498 18.6358 32.5113 18.7881 31.5728C18.5597 32.042 18.0266 33.0588 18.0266 33.0588C17.0366 35.1705 16.3512 37.4386 15.9705 39.7849C15.742 42.2877 15.742 44.7904 16.0466 47.215Z" fill="#A0A8D4"/>
<path d="M64.0234 49.5615C63.4141 48.2319 61.8911 45.5728 61.8911 45.5728L44.4519 75.1365L61.5103 63.0138C62.5003 62.3099 63.338 61.3714 63.9472 60.2764C65.4703 56.9134 65.5464 53.0028 64.0234 49.5615Z" fill="url(#paint1_linear_119_22392)"/>
<path d="M70.9534 39.7851C70.5726 34.0757 67.7549 28.7574 63.338 25.3161L44.5281 11.8638C44.5281 11.8638 56.3319 29.3048 66.2318 46.6677C67.2218 48.4665 67.9072 50.5 68.2118 52.6117C68.3641 53.5503 68.3641 54.4888 68.2118 55.4273C68.4403 54.9581 68.9734 53.9413 68.9734 53.9413C69.9634 51.8296 70.6487 49.5615 71.0295 47.2934C71.1818 44.7124 71.1818 42.2879 70.9534 39.7851Z" fill="#A0A8D4"/>
<path d="M23.0535 26.8021C23.6627 25.7071 24.4242 24.7686 25.4904 24.0647L42.4726 11.8638L25.0335 41.4275C25.0335 41.4275 23.5104 38.7684 22.9012 37.4388C21.4543 34.0757 21.4543 30.1652 23.0535 26.8021ZM16.0474 47.2152C16.4281 52.9246 19.2458 58.2429 23.6627 61.6842L42.4726 75.1365C42.4726 75.1365 30.6688 57.6954 20.7689 40.3326C19.7789 38.5337 19.0935 36.5002 18.7889 34.3885C18.6366 33.45 18.6366 32.5115 18.7889 31.573C18.5604 32.0422 18.0273 33.059 18.0273 33.059C17.0373 35.1707 16.352 37.4388 15.9712 39.7851C15.7427 42.2879 15.7427 44.7906 16.0474 47.2152ZM64.0241 49.5615C63.4149 48.2319 61.8918 45.5727 61.8918 45.5727L44.4526 75.1365L61.511 63.0138C62.501 62.3099 63.3387 61.3714 63.9479 60.2764C65.471 56.9133 65.5472 53.0028 64.0241 49.5615ZM70.8779 39.8633C70.4972 34.1539 67.6795 28.8356 63.2626 25.3943L44.5288 11.8638C44.5288 11.8638 56.3326 29.3048 66.2325 46.6677C67.2225 48.4665 67.9079 50.5 68.2125 52.6117C68.3649 53.5503 68.3649 54.4888 68.2125 55.4273C68.441 54.958 68.9741 53.9413 68.9741 53.9413C69.9641 51.8296 70.6495 49.5615 71.0302 47.2934C71.1825 44.7124 71.1825 42.2879 70.8779 39.8633Z" fill="url(#paint2_linear_119_22392)"/>
</g>
<defs>
<linearGradient id="paint0_linear_119_22392" x1="43.265" y1="12.6053" x2="20.2441" y2="36.9051" gradientUnits="userSpaceOnUse">
<stop offset="0.58" stop-color="#A0A8D4"/>
<stop offset="0.73" stop-color="#8791C7"/>
<stop offset="0.91" stop-color="#6470B4"/>
</linearGradient>
<linearGradient id="paint1_linear_119_22392" x1="43.735" y1="74.4471" x2="66.7471" y2="50.1648" gradientUnits="userSpaceOnUse">
<stop offset="0.58" stop-color="#A0A8D4"/>
<stop offset="0.73" stop-color="#8791C7"/>
<stop offset="0.91" stop-color="#6470B4"/>
</linearGradient>
<linearGradient id="paint2_linear_119_22392" x1="43.4798" y1="11.551" x2="43.4798" y2="75.3711" gradientUnits="userSpaceOnUse">
<stop stop-color="#513EFF"/>
<stop offset="0.18" stop-color="#5157FF"/>
<stop offset="0.57" stop-color="#5298FF"/>
<stop offset="1" stop-color="#52E5FF"/>
</linearGradient>
<clipPath id="clip0_119_22392">
<rect width="55.3636" height="63.2727" fill="white" transform="translate(15.8181 11.8638)"/>
</clipPath>
</defs>
</svg>
