<svg width="22" height="22" viewBox="0 0 22 22" fill="none" xmlns="http://www.w3.org/2000/svg">
<circle cx="11" cy="11" r="11" fill="white"/>
<g clip-path="url(#clip0_15_11429)">
<path d="M5.79102 9.48702C5.94508 9.82324 6.33022 10.4957 6.33022 10.4957L10.7401 3L6.44577 6.08529C6.19542 6.26329 5.98359 6.50062 5.82954 6.7775C5.42513 7.62794 5.42513 8.61681 5.79102 9.48702Z" fill="url(#paint0_linear_15_11429)"/>
<path d="M4.05775 11.9394C4.15404 13.3832 4.86656 14.7281 5.98347 15.5983L10.74 19C10.74 19 7.75514 14.5896 5.2517 10.199C5.00136 9.74413 4.82804 9.22991 4.75101 8.69592C4.7125 8.45859 4.7125 8.22126 4.75101 7.98393C4.69324 8.1026 4.55844 8.35971 4.55844 8.35971C4.3081 8.8937 4.13478 9.46725 4.03849 10.0606C3.98072 10.6935 3.98072 11.3263 4.05775 11.9394Z" fill="#A0A8D4"/>
<path d="M16.1898 12.5328C16.0358 12.1965 15.6506 11.5241 15.6506 11.5241L11.2407 19L15.5543 15.9345C15.8047 15.7565 16.0165 15.5192 16.1706 15.2423C16.5557 14.3918 16.575 13.403 16.1898 12.5328Z" fill="url(#paint1_linear_15_11429)"/>
<path d="M17.9423 10.0606C17.846 8.61681 17.1335 7.27194 16.0165 6.40173L11.26 3C11.26 3 14.2449 7.41038 16.7483 11.801C16.9987 12.2559 17.172 12.7701 17.249 13.3041C17.2875 13.5414 17.2875 13.7787 17.249 14.0161C17.3068 13.8974 17.4416 13.6403 17.4416 13.6403C17.6919 13.1063 17.8652 12.5328 17.9615 11.9592C18 11.3066 18 10.6934 17.9423 10.0606Z" fill="#A0A8D4"/>
<path d="M5.82966 6.7775C5.98372 6.50062 6.17629 6.26329 6.44589 6.08529L10.7403 3L6.33035 10.4759C6.33035 10.4759 5.9452 9.80346 5.79115 9.46724C5.42526 8.61681 5.42526 7.62794 5.82966 6.7775ZM4.058 11.9394C4.15428 13.3832 4.8668 14.7281 5.98372 15.5983L10.7403 19C10.7403 19 7.75538 14.5896 5.25194 10.199C5.0016 9.74413 4.82829 9.22991 4.75126 8.69592C4.71274 8.45859 4.71274 8.22126 4.75126 7.98393C4.69348 8.1026 4.55868 8.3597 4.55868 8.3597C4.30834 8.8937 4.13503 9.46724 4.03874 10.0606C3.98097 10.6934 3.98097 11.3263 4.058 11.9394ZM16.19 12.5328C16.036 12.1965 15.6508 11.5241 15.6508 11.5241L11.2409 19L15.5546 15.9345C15.8049 15.7565 16.0167 15.5192 16.1708 15.2423C16.5559 14.3918 16.5752 13.403 16.19 12.5328ZM17.9232 10.0803C17.8269 8.63659 17.1144 7.29172 15.9975 6.42151L11.2602 3C11.2602 3 14.2451 7.41038 16.7485 11.801C16.9988 12.2559 17.1722 12.7701 17.2492 13.3041C17.2877 13.5414 17.2877 13.7787 17.2492 14.0161C17.307 13.8974 17.4418 13.6403 17.4418 13.6403C17.6921 13.1063 17.8654 12.5328 17.9617 11.9592C18.0002 11.3066 18.0002 10.6934 17.9232 10.0803Z" fill="url(#paint2_linear_15_11429)"/>
</g>
<defs>
<linearGradient id="paint0_linear_15_11429" x1="10.9407" y1="3.18751" x2="5.11933" y2="9.3323" gradientUnits="userSpaceOnUse">
<stop offset="0.58" stop-color="#A0A8D4"/>
<stop offset="0.73" stop-color="#8791C7"/>
<stop offset="0.91" stop-color="#6470B4"/>
</linearGradient>
<linearGradient id="paint1_linear_15_11429" x1="11.0594" y1="18.8257" x2="16.8786" y2="12.6853" gradientUnits="userSpaceOnUse">
<stop offset="0.58" stop-color="#A0A8D4"/>
<stop offset="0.73" stop-color="#8791C7"/>
<stop offset="0.91" stop-color="#6470B4"/>
</linearGradient>
<linearGradient id="paint2_linear_15_11429" x1="10.9949" y1="2.92091" x2="10.9949" y2="19.0593" gradientUnits="userSpaceOnUse">
<stop stop-color="#513EFF"/>
<stop offset="0.18" stop-color="#5157FF"/>
<stop offset="0.57" stop-color="#5298FF"/>
<stop offset="1" stop-color="#52E5FF"/>
</linearGradient>
<clipPath id="clip0_15_11429">
<rect width="14" height="16" fill="white" transform="translate(4 3)"/>
</clipPath>
</defs>
</svg>
