<svg width="120" height="119" viewBox="0 0 120 119" fill="none" xmlns="http://www.w3.org/2000/svg">
<circle cx="60" cy="59.5" r="59.5" fill="white"/>
<g clip-path="url(#clip0_187_26207)">
<path d="M31.8235 51.3154C32.6568 53.1341 34.7401 56.7713 34.7401 56.7713L58.5937 16.2266L35.3651 32.9152C34.011 33.878 32.8652 35.1617 32.0319 36.6594C29.8444 41.2595 29.8444 46.6084 31.8235 51.3154Z" fill="url(#paint0_linear_187_26207)"/>
<path d="M22.4487 64.5812C22.9696 72.3906 26.8236 79.6652 32.8651 84.3722L58.5937 102.772C58.5937 102.772 42.4482 78.9163 28.9069 55.1671C27.5528 52.7066 26.6153 49.9252 26.1986 47.0368C25.9903 45.753 25.9903 44.4693 26.1986 43.1855C25.8862 43.8274 25.157 45.2181 25.157 45.2181C23.8029 48.1065 22.8654 51.2089 22.3446 54.4183C22.0321 57.8416 22.0321 61.2649 22.4487 64.5812Z" fill="#A0A8D4"/>
<path d="M88.0722 67.7899C87.2389 65.9712 85.1556 62.334 85.1556 62.334L61.302 102.772L84.6348 86.1902C85.9889 85.2273 87.1347 83.9436 87.968 82.4459C90.0513 77.8458 90.1555 72.4969 88.0722 67.7899Z" fill="url(#paint1_linear_187_26207)"/>
<path d="M97.5509 54.4178C97.0301 46.6084 93.1761 39.3339 87.1345 34.6268L61.406 16.2266C61.406 16.2266 77.5514 40.0827 91.0928 63.8319C92.4469 66.2924 93.3844 69.0739 93.801 71.9623C94.0094 73.246 94.0094 74.5297 93.801 75.8135C94.1135 75.1716 94.8427 73.7809 94.8427 73.7809C96.1968 70.8925 97.1343 67.7901 97.6551 64.6877C97.8634 61.1575 97.8634 57.8411 97.5509 54.4178Z" fill="#A0A8D4"/>
<path d="M32.0328 36.6594C32.8661 35.1617 33.9078 33.878 35.3661 32.9152L58.5946 16.2266L34.7411 56.6644C34.7411 56.6644 32.6578 53.0271 31.8245 51.2085C29.8454 46.6084 29.8454 41.2595 32.0328 36.6594ZM22.4497 64.5808C22.9705 72.3902 26.8246 79.6647 32.8661 84.3717L58.5946 102.772C58.5946 102.772 42.4492 78.9159 28.9079 55.1667C27.5538 52.7062 26.6163 49.9247 26.1996 47.0363C25.9913 45.7526 25.9913 44.4688 26.1996 43.1851C25.8871 43.827 25.158 45.2177 25.158 45.2177C23.8038 48.1061 22.8664 51.2085 22.3456 54.4178C22.0331 57.8411 22.0331 61.2644 22.4497 64.5808ZM88.0731 67.7901C87.2398 65.9715 85.1565 62.3342 85.1565 62.3342L61.3029 102.772L84.6357 86.1904C85.9898 85.2276 87.1356 83.9438 87.9689 82.4461C90.0522 77.8461 90.1564 72.4972 88.0731 67.7901ZM97.4478 54.5248C96.927 46.7154 93.073 39.4409 87.0314 34.7338L61.4071 16.2266C61.4071 16.2266 77.5525 40.0827 91.0938 63.8319C92.448 66.2924 93.3855 69.0738 93.8021 71.9623C94.0104 73.246 94.0104 74.5297 93.8021 75.8135C94.1146 75.1716 94.8438 73.7809 94.8438 73.7809C96.1979 70.8925 97.1354 67.7901 97.6562 64.6877C97.8645 61.1575 97.8645 57.8411 97.4478 54.5248Z" fill="url(#paint2_linear_187_26207)"/>
</g>
<defs>
<linearGradient id="paint0_linear_187_26207" x1="59.6787" y1="17.2408" x2="28.1903" y2="50.4785" gradientUnits="userSpaceOnUse">
<stop offset="0.58" stop-color="#A0A8D4"/>
<stop offset="0.73" stop-color="#8791C7"/>
<stop offset="0.91" stop-color="#6470B4"/>
</linearGradient>
<linearGradient id="paint1_linear_187_26207" x1="60.3214" y1="101.829" x2="91.7977" y2="68.6151" gradientUnits="userSpaceOnUse">
<stop offset="0.58" stop-color="#A0A8D4"/>
<stop offset="0.73" stop-color="#8791C7"/>
<stop offset="0.91" stop-color="#6470B4"/>
</linearGradient>
<linearGradient id="paint2_linear_187_26207" x1="59.9723" y1="15.7988" x2="59.9723" y2="103.093" gradientUnits="userSpaceOnUse">
<stop stop-color="#513EFF"/>
<stop offset="0.18" stop-color="#5157FF"/>
<stop offset="0.57" stop-color="#5298FF"/>
<stop offset="1" stop-color="#52E5FF"/>
</linearGradient>
<clipPath id="clip0_187_26207">
<rect width="75.7273" height="86.5455" fill="white" transform="translate(22.1362 16.2266)"/>
</clipPath>
</defs>
</svg>
