<?xml version="1.0" encoding="utf-8"?><svg width="120" height="118" viewBox="0 0 120 118" xmlns="http://www.w3.org/2000/svg" xmlns:xlink="http://www.w3.org/1999/xlink"><svg width="13" height="13" fill="none" viewBox="0 0 13 13" id="add" x="28" y="94" xmlns="http://www.w3.org/2000/svg"><path fill-rule="evenodd" clip-rule="evenodd" d="M7 5.8h5.6v1.4H7v5.6H5.6V7.2H0V5.8h5.6V.2H7v5.6z" fill="#fff"/></svg><svg width="13" height="13" fill="none" viewBox="0 0 13 13" id="add-active" x="41" y="94" xmlns="http://www.w3.org/2000/svg"><path fill-rule="evenodd" clip-rule="evenodd" d="M7 5.8h5.6v1.4H7v5.6H5.6V7.2H0V5.8h5.6V.2H7v5.6z" fill="#FF2D55"/></svg><svg width="14" height="14" viewBox="0 0 14 14" id="alert" x="30" y="79" xmlns="http://www.w3.org/2000/svg"><g fill="none" fill-rule="evenodd"><path d="M-1-1h16v16H-1z"/><path fill="#FFF" d="M7 13.667A6.667 6.667 0 117 .333a6.667 6.667 0 010 13.334zM7 12.5a5.5 5.5 0 100-11 5.5 5.5 0 000 11zm0-8.833c.368 0 .667.298.667.666V7a.667.667 0 01-1.334 0V4.333c0-.368.299-.666.667-.666zM7 9a.667.667 0 110 1.333A.667.667 0 017 9z"/></g></svg><svg width="10" height="6" viewBox="0 0 10 6" id="arrow-down" x="90" y="71.931" xmlns="http://www.w3.org/2000/svg"><g fill="none" fill-rule="evenodd"><path d="M-7-9h24v24H-7z"/><path fill="#676370" d="M5 6l4.756-4.6A.806.806 0 009.758.244.856.856 0 008.566.24L5 3.683 1.434.241A.856.856 0 00.242.244.806.806 0 00.244 1.4L5 6z"/></g></svg><svg style="isolation:isolate" width="14" height="14" viewBox="0 0 14 14" id="arrow-key-down" x="44" y="79" xmlns="http://www.w3.org/2000/svg"><g clip-path="url(#_clipPath_lO31NEgbUiTSoJISuaT8fHHnIRCr4LqQ)"><path fill="#FFF" d="M0 0h14L8 14z"/></g></svg><svg style="isolation:isolate" width="14" height="14" viewBox="0 0 14 14" id="arrow-key-left" x="58" y="79" xmlns="http://www.w3.org/2000/svg"><g clip-path="url(#_clipPath_QTofHzorB79BE3lerKr9Fqr3nCJN2ZAU)"><path fill="#FFF" d="M14 0v14L0 8z"/></g></svg><svg style="isolation:isolate" width="14" height="14" viewBox="0 0 14 14" id="arrow-key-right" x="72" y="79" xmlns="http://www.w3.org/2000/svg"><g clip-path="url(#_clipPath_vO16aYMH41EJ62poTggIr1IPdcsNhkUc)"><path fill="#FFF" d="M0 14V0l14 8z"/></g></svg><svg style="isolation:isolate" width="14" height="14" viewBox="0 0 14 14" id="arrow-key-up" x="86" y="79" xmlns="http://www.w3.org/2000/svg"><g clip-path="url(#_clipPath_scRgljJTfK72EBw7oaTDeX5yMrAq7yTf)"><path fill="#FFF" d="M14 14H0L8 0z"/></g></svg><svg width="10" height="6" viewBox="0 0 10 6" id="arrow-up" x="40" y="36" xmlns="http://www.w3.org/2000/svg"><g fill="none" fill-rule="evenodd"><path d="M-7-9h24v24H-7z"/><path fill="#676370" d="M5 0l4.756 4.6a.806.806 0 01.002 1.156.856.856 0 01-1.192.003L5 2.317 1.434 5.759a.856.856 0 01-1.192-.003A.806.806 0 01.244 4.6L5 0z"/></g></svg><svg width="12" height="12" fill="none" viewBox="0 0 12 12" id="atlas-zoom-in" x="66" y="94" xmlns="http://www.w3.org/2000/svg"><path fill-rule="evenodd" clip-rule="evenodd" d="M7 5h5v2H7v5H5V7H0V5h5V0h2v5z" fill="#fff"/></svg><svg width="12" height="2" viewBox="0 0 12 2" id="atlas-zoom-out" x="106" y="88" xmlns="http://www.w3.org/2000/svg"><g fill="none" fill-rule="evenodd"><path d="M-6-11h24v24H-6z"/><path fill="#FFF" d="M0 0h12v2H0z"/></g></svg><svg width="28" height="22" viewBox="0 0 28 22" id="camera" xmlns="http://www.w3.org/2000/svg"><g fill="none" fill-rule="evenodd"><path d="M-2-5h32v32H-2z"/><path fill="#FFF" fill-rule="nonzero" d="M14 8.333a4 4 0 100 8 4 4 0 000-8zm10.667-4h-3.2c-.44 0-.914-.341-1.053-.759l-.828-2.482c-.14-.417-.613-.759-1.053-.759H9.467c-.44 0-.914.342-1.053.76l-.828 2.482c-.14.417-.613.758-1.053.758h-3.2A2.675 2.675 0 00.667 7v12c0 1.467 1.2 2.667 2.666 2.667h21.334c1.466 0 2.666-1.2 2.666-2.667V7c0-1.467-1.2-2.667-2.666-2.667zM14 19a6.667 6.667 0 110-13.333A6.667 6.667 0 0114 19zm9.733-10.135a.933.933 0 110-1.867.933.933 0 010 1.867z"/></g></svg><svg width="8" height="14" viewBox="0 0 8 14" id="chevron-right" x="64" y="45" xmlns="http://www.w3.org/2000/svg"><g fill="none" fill-rule="evenodd"><path d="M-8-5h24v24H-8z"/><path fill="#FFF" d="M8 7l-6.379 6.228a.966.966 0 01-1.343 0 .912.912 0 010-1.31L5.314 7 .278 2.083a.912.912 0 010-1.311.966.966 0 011.343 0L8 7z"/></g></svg><svg width="14" height="14" viewBox="0 0 14 14" id="close" x="106" xmlns="http://www.w3.org/2000/svg"><g fill="none" fill-rule="evenodd"><path d="M-5-5h24v24H-5z"/><path fill="#FFF" d="M13.706.363l-.069-.069a1 1 0 00-1.414 0L7 5.517 1.777.294a1 1 0 00-1.414 0L.294.363a1 1 0 000 1.414L5.517 7 .294 12.223a1 1 0 000 1.414l.069.069a1 1 0 001.414 0L7 8.483l5.223 5.223a1 1 0 001.414 0l.069-.069a1 1 0 000-1.414L8.483 7l5.223-5.223a1 1 0 000-1.414z"/></g></svg><svg width="28" height="23" viewBox="0 0 28 23" id="cloud-upload" y="22" xmlns="http://www.w3.org/2000/svg"><defs><filter id="aoa" width="109.7%" height="113%" x="-4.8%" y="-6.5%" filterUnits="objectBoundingBox"><feOffset dy="2" in="SourceAlpha" result="shadowOffsetOuter1"/><feGaussianBlur in="shadowOffsetOuter1" result="shadowBlurOuter1" stdDeviation="2"/><feColorMatrix in="shadowBlurOuter1" result="shadowMatrixOuter1" values="0 0 0 0 0 0 0 0 0 0 0 0 0 0 0 0 0 0 0.16 0"/><feMerge><feMergeNode in="shadowMatrixOuter1"/><feMergeNode in="SourceGraphic"/></feMerge></filter></defs><g fill="none" fill-rule="evenodd" filter="url(#aoa)" transform="translate(-133 -115)"><path d="M135 112h24v24h-24z"/><path fill="#FFF" fill-rule="nonzero" d="M141.25 131.432c-2.37-.137-4.25-2.111-4.25-4.533 0-2.51 2.019-4.546 4.509-4.546h.011c-.003-.073-.011-.146-.011-.22 0-2.835 2.28-5.133 5.09-5.133 2.495 0 4.566 1.81 5.003 4.196.102-.006.204-.016.307-.016 2.812 0 5.091 2.298 5.091 5.132 0 2.835-2.28 5.132-5.09 5.132-.075 0-.146-.008-.22-.01v.002h-10.022c-.053.003-.105.008-.16.008-.052 0-.105-.005-.158-.008h-.102l.002-.004zm4.25-6.932v4h3v-4h2l-3.5-4-3.5 4h2z"/></g></svg><svg width="12" height="15" viewBox="0 0 12 15" id="delete" x="78" y="63" xmlns="http://www.w3.org/2000/svg"><g fill="none" fill-rule="evenodd"><path d="M-6-4h24v24H-6z"/><path fill="#FFF" fill-rule="nonzero" d="M1.526 14.299L1 4h10l-.526 10.299c-.018.392-.366.701-.79.701H2.316c-.423 0-.771-.31-.789-.701zm6.141-7.741v5.884c0 .164.144.297.32.297h.514c.177 0 .32-.133.32-.297V6.558c0-.164-.143-.297-.32-.297h-.513c-.177 0-.32.133-.32.297zm-2.244 0v5.884c0 .164.144.297.32.297h.513c.178 0 .321-.133.321-.297V6.558c0-.164-.144-.297-.32-.297h-.513c-.178 0-.321.133-.321.297zm-2.244 0v5.884c0 .164.143.297.32.297h.513c.177 0 .32-.133.32-.297V6.558c0-.164-.143-.297-.32-.297H3.5c-.177 0-.32.133-.32.297zm8.313-5.71c.28 0 .508.232.508.52V3H0V1.367c0-.287.228-.52.508-.52h3.49V.174c0-.095.076-.173.17-.173h3.664c.094 0 .17.078.17.173v.675h3.49z"/></g></svg><svg width="14" height="16" viewBox="0 0 14 16" id="duplicate" x="20" y="45" xmlns="http://www.w3.org/2000/svg"><g fill="none" fill-rule="evenodd"><path d="M-5-4h24v24H-5z"/><path fill="#FFF" d="M2.667 2.667H2a2 2 0 00-2 2V14a2 2 0 002 2h6.667a2 2 0 002-2v-.667h.666a2 2 0 002-2V2a2 2 0 00-2-2H4.667a2 2 0 00-2 2v.667zm1.333 0v-.334a1 1 0 011-1h6a1 1 0 011 1V11a1 1 0 01-1 1h-.333V4.667a2 2 0 00-2-2H4zM1.333 5a1 1 0 011-1h6a1 1 0 011 1v8.667a1 1 0 01-1 1h-6a1 1 0 01-1-1V5z"/></g></svg><svg width="16" height="16" viewBox="0 0 24 24" id="edit" x="34" y="45" xmlns="http://www.w3.org/2000/svg"><path fill="#FF2D55" d="M19.769 9.923L7.127 22.562 0 24l1.438-7.128 12.641-12.64 5.69 5.691zm1.414-1.414L24 5.689 18.309 0l-2.816 2.817 5.69 5.692z"/></svg><svg width="18" height="4" viewBox="0 0 18 4" id="ellipsis" x="52" y="32" xmlns="http://www.w3.org/2000/svg"><g fill="none" fill-rule="evenodd"><path d="M-3-10h24v24H-3z"/><path fill="#FFF" fill-rule="nonzero" d="M2 0a2 2 0 110 4 2 2 0 010-4zm7 0a2 2 0 110 4 2 2 0 010-4zm7 0a2 2 0 110 4 2 2 0 010-4z"/></g></svg><svg width="14" height="16" viewBox="0 0 14 16" id="export" x="50" y="45" xmlns="http://www.w3.org/2000/svg"><g fill="none" fill-rule="evenodd" transform="matrix(-1 0 0 1 19 -4)"><path d="M0 0h24v24H0z"/><path fill="#FFF" d="M16.762 10.713a.808.808 0 000-1.145.805.805 0 00-1.145 0l-2.807 2.81V4.81a.81.81 0 00-1.62 0v7.568l-2.807-2.81a.808.808 0 00-1.145 0 .808.808 0 000 1.145l4.19 4.19a.8.8 0 00.572.238.8.8 0 00.572-.238l4.19-4.19z"/><rect width="14" height="1.5" x="5" y="18" fill="#FFF" rx=".75"/></g></svg><svg width="12" height="22" viewBox="0 0 12 22" id="facebook" x="28" y="20" xmlns="http://www.w3.org/2000/svg"><g fill="none" fill-rule="evenodd"><path d="M-10-5h32v32h-32z"/><path d="M11.548.338L8.67.333c-3.234 0-5.323 2.061-5.323 5.25v2.421H.453A.444.444 0 000 8.44v3.508c0 .24.203.435.453.435h2.894v8.85c0 .24.202.435.452.435h3.776c.25 0 .452-.195.452-.435v-8.85h3.384c.25 0 .453-.195.453-.435l.001-3.508a.427.427 0 00-.132-.307.462.462 0 00-.32-.128H8.026V5.952c0-.986.245-1.487 1.582-1.487h1.939c.25 0 .452-.195.452-.436V.773a.444.444 0 00-.452-.435z" fill="#FFF" fill-rule="nonzero"/></g></svg><svg width="12" height="13" viewBox="0 0 12 13" id="geometries" x="54" y="94" xmlns="http://www.w3.org/2000/svg"><g fill="none" fill-rule="evenodd"><path d="M-6-5h24v24H-6z"/><path fill="#736E7D" fill-rule="nonzero" d="M11.626 2.43L6.242.051a.594.594 0 00-.485 0L.373 2.429A.634.634 0 000 3.012v6.976c0 .253.147.483.373.582l5.385 2.378a.593.593 0 00.484 0l5.385-2.378c.226-.1.373-.33.373-.583V3.012a.636.636 0 00-.374-.583zM7.168 5.563l3.6-1.59v4.665l-3.6-3.075zM1.23 3.974l3.601 1.59-3.6 3.075V3.974zm4.155 2.765v4.665l-3.602-1.59 3.602-3.075zM6 1.324l3.822 1.688L6 4.7 2.177 3.012 6 1.324zm.615 5.415l3.601 3.074-3.601 1.59V6.74z"/></g></svg><svg width="10" height="10" viewBox="0 0 10 10" id="grid" x="102" y="94" xmlns="http://www.w3.org/2000/svg"><g fill="none" fill-rule="evenodd"><path d="M-7-7h24v24H-7z"/><path fill="#FFF" d="M1 0h2a1 1 0 011 1v2a1 1 0 01-1 1H1a1 1 0 01-1-1V1a1 1 0 011-1zm6 0h2a1 1 0 011 1v2a1 1 0 01-1 1H7a1 1 0 01-1-1V1a1 1 0 011-1zm0 6h2a1 1 0 011 1v2a1 1 0 01-1 1H7a1 1 0 01-1-1V7a1 1 0 011-1zM1 6h2a1 1 0 011 1v2a1 1 0 01-1 1H1a1 1 0 01-1-1V7a1 1 0 011-1z"/></g></svg><svg width="10" height="10" viewBox="0 0 10 10" id="grid-active" y="108" xmlns="http://www.w3.org/2000/svg"><g fill="none" fill-rule="evenodd"><path d="M-7-7h24v24H-7z"/><path fill="#FF2D55" d="M1 0h2a1 1 0 011 1v2a1 1 0 01-1 1H1a1 1 0 01-1-1V1a1 1 0 011-1zm6 0h2a1 1 0 011 1v2a1 1 0 01-1 1H7a1 1 0 01-1-1V1a1 1 0 011-1zm0 6h2a1 1 0 011 1v2a1 1 0 01-1 1H7a1 1 0 01-1-1V7a1 1 0 011-1zM1 6h2a1 1 0 011 1v2a1 1 0 01-1 1H1a1 1 0 01-1-1V7a1 1 0 011-1z"/></g></svg><svg width="20" height="18" viewBox="0 0 20 18" id="heart" x="52" y="14" xmlns="http://www.w3.org/2000/svg"><path d="M9.944 17.005l6.589-5.689c1.283-1.126 2.157-2.538 2.535-4.087.199-.814.215-1.402.159-1.74l-.007-.051C18.963 2.698 17 .75 14.554.75a4.666 4.666 0 00-3.971 2.215l-.645 1.046-.635-1.052C8.463 1.569 7.036.75 5.446.75 3.002.75 1.036 2.699.773 5.491c-.056.332-.04.924.159 1.738.378 1.549 1.252 2.962 2.535 4.087l6.477 5.69z" fill-rule="nonzero" stroke="#FFF" stroke-width="1.5" fill="none"/></svg><svg width="20" height="18" viewBox="0 0 20 18" id="heart-full" y="45" xmlns="http://www.w3.org/2000/svg"><path d="M19.967 5.367C19.675 2.257 17.4 0 14.554 0a5.416 5.416 0 00-4.61 2.571C8.978.968 7.313 0 5.447 0 2.6 0 .325 2.257.033 5.367c-.023.137-.117.86.17 2.04.415 1.7 1.373 3.247 2.77 4.472L9.94 18l7.088-6.12c1.396-1.226 2.354-2.772 2.769-4.473.287-1.18.193-1.902.17-2.04z" fill="#FF79D5" fill-rule="nonzero"/></svg><svg style="isolation:isolate" viewBox="-72 14 14 15.931" width="14" height="15.931" id="import" x="90" y="56" xmlns="http://www.w3.org/2000/svg"><g clip-path="url(#_clipPath_XfclLsQdwtJSzBwsU1GbkoKctos3n2S2)"><path d="M-70.069 19.298l1.303 1.375 2.846-2.982v7.895h1.84v-7.895l2.846 2.982 1.303-1.375L-65 14l-5.069 5.298z" fill="#FF2D55"/><path d="M-71.169 28.483h12.338c.458 0 .831.324.831.724 0 .4-.373.724-.831.724h-12.338c-.458 0-.831-.324-.831-.724 0-.4.373-.724.831-.724z" fill="#ff2d55"/></g></svg><svg width="14" height="9" viewBox="0 0 14 9" id="list" x="106" y="14" xmlns="http://www.w3.org/2000/svg"><g fill="none" fill-rule="evenodd"><path d="M-5-7h24v24H-5z"/><path fill="#FFF" d="M.5 0h13a.5.5 0 110 1H.5a.5.5 0 010-1zm0 4h13a.5.5 0 110 1H.5a.5.5 0 110-1zm0 4h13a.5.5 0 110 1H.5a.5.5 0 110-1z"/></g></svg><svg width="14" height="9" viewBox="0 0 14 9" id="list-active" x="106" y="23" xmlns="http://www.w3.org/2000/svg"><g fill="none" fill-rule="evenodd"><path d="M-5-7h24v24H-5z"/><path fill="#FF2D55" d="M.5 0h13a.5.5 0 110 1H.5a.5.5 0 010-1zm0 4h13a.5.5 0 110 1H.5a.5.5 0 110-1zm0 4h13a.5.5 0 110 1H.5a.5.5 0 110-1z"/></g></svg><svg width="14" height="14" viewBox="0 0 14 14" id="locate-land" x="106" y="32" xmlns="http://www.w3.org/2000/svg"><g fill="none" fill-rule="evenodd"><path d="M-5-5h24v24H-5z"/><path fill="#FFF" fill-rule="nonzero" d="M13.711 6.396h-1.085a5.684 5.684 0 00-5.022-5.022V.289A.288.288 0 007.316 0h-.632c-.16 0-.288.13-.288.289v1.085a5.684 5.684 0 00-5.022 5.022H.289A.288.288 0 000 6.684v.632c0 .16.13.289.289.289h1.085a5.684 5.684 0 005.022 5.021v1.085c0 .16.129.289.288.289h.632a.29.29 0 00.289-.289v-1.085a5.684 5.684 0 005.021-5.022h1.085c.16 0 .289-.129.289-.288v-.632c0-.16-.13-.288-.289-.288zM3.593 7.604c.16 0 .289-.129.289-.288v-.632c0-.16-.13-.288-.289-.288h-.937a4.399 4.399 0 013.74-3.74v.937c0 .16.129.289.288.289h.632c.159 0 .288-.13.288-.289v-.937a4.398 4.398 0 013.74 3.74h-.937a.288.288 0 00-.289.288v.632c0 .16.13.289.289.289h.937a4.4 4.4 0 01-3.74 3.739v-.937a.288.288 0 00-.288-.289h-.632c-.16 0-.288.13-.288.29v.936a4.4 4.4 0 01-3.74-3.74h.937z"/></g></svg><svg width="8" height="14" viewBox="0 0 8 14" id="modal-back" x="106" y="46" xmlns="http://www.w3.org/2000/svg"><g fill="none" fill-rule="evenodd"><path d="M0-5h8v24H0z"/><path fill="#FFF" d="M0 7l6.379 6.228a.966.966 0 001.343 0 .912.912 0 000-1.31L2.686 7l5.036-4.917a.912.912 0 000-1.311.966.966 0 00-1.343 0L0 7z"/></g></svg><svg width="14" height="14" viewBox="0 0 14 14" id="modal-close" x="106" y="60" xmlns="http://www.w3.org/2000/svg"><g fill="none" fill-rule="evenodd"><path d="M-5-5h24v24H-5z"/><path fill="#FFF" d="M13.706.363l-.069-.069a1 1 0 00-1.414 0L7 5.517 1.777.294a1 1 0 00-1.414 0L.294.363a1 1 0 000 1.414L5.517 7 .294 12.223a1 1 0 000 1.414l.069.069a1 1 0 001.414 0L7 8.483l5.223 5.223a1 1 0 001.414 0l.069-.069a1 1 0 000-1.414L8.483 7l5.223-5.223a1 1 0 000-1.414z"/></g></svg><svg width="16" height="16" viewBox="0 0 16 16" id="move" x="74" xmlns="http://www.w3.org/2000/svg"><g fill="none" fill-rule="evenodd"><path d="M-4-4h24v24H-4z"/><path fill="#FFF" d="M15.875 7.698l-1.97-1.97a.427.427 0 00-.604.604l1.03 1.03a.123.123 0 01-.088.21H8.551a.123.123 0 01-.124-.123V1.757c0-.11.133-.165.211-.087l1.03 1.03a.427.427 0 00.604-.605L8.302.125a.428.428 0 00-.604 0l-1.97 1.97a.427.427 0 00.604.604l1.03-1.03a.123.123 0 01.21.088v5.692a.123.123 0 01-.123.124H1.757a.123.123 0 01-.087-.211l1.03-1.03a.427.427 0 00-.605-.604l-1.97 1.97a.428.428 0 000 .604l1.97 1.97a.427.427 0 00.604-.604l-1.03-1.03a.123.123 0 01.088-.21h5.692c.068 0 .124.055.124.123v5.692c0 .11-.133.165-.211.088l-1.03-1.03a.428.428 0 00-.604.604l1.97 1.97a.428.428 0 00.604 0l1.97-1.97a.427.427 0 00-.604-.604l-1.03 1.03a.123.123 0 01-.21-.088V8.551c0-.068.055-.124.123-.124h5.692c.11 0 .165.133.088.211l-1.03 1.03a.427.427 0 00.604.604l1.97-1.97a.428.428 0 000-.604z"/></g></svg><svg width="16" height="16" viewBox="0 0 16 16" id="move-active" x="74" y="16" xmlns="http://www.w3.org/2000/svg"><g fill="none" fill-rule="evenodd"><path d="M-4-4h24v24H-4z"/><path fill="#FF2D55" d="M15.875 7.698l-1.97-1.97a.427.427 0 00-.604.604l1.03 1.03a.123.123 0 01-.088.21H8.551a.123.123 0 01-.124-.123V1.757c0-.11.133-.165.211-.087l1.03 1.03a.427.427 0 00.604-.605L8.302.125a.428.428 0 00-.604 0l-1.97 1.97a.427.427 0 00.604.604l1.03-1.03a.123.123 0 01.21.088v5.692a.123.123 0 01-.123.124H1.757a.123.123 0 01-.087-.211l1.03-1.03a.427.427 0 00-.605-.604l-1.97 1.97a.428.428 0 000 .604l1.97 1.97a.427.427 0 00.604-.604l-1.03-1.03a.123.123 0 01.088-.21h5.692c.068 0 .124.055.124.123v5.692c0 .11-.133.165-.211.088l-1.03-1.03a.428.428 0 00-.604.604l1.97 1.97a.428.428 0 00.604 0l1.97-1.97a.427.427 0 00-.604-.604l-1.03 1.03a.123.123 0 01-.21-.088V8.551c0-.068.055-.124.123-.124h5.692c.11 0 .165.133.088.211l-1.03 1.03a.427.427 0 00.604.604l1.97-1.97a.428.428 0 000-.604z"/></g></svg><svg width="16" height="10" viewBox="0 0 16 10" id="preview" x="74" y="32" xmlns="http://www.w3.org/2000/svg"><g fill="none" fill-rule="evenodd"><path d="M-4-7h24v24H-4z"/><path fill="#FFF" fill-rule="nonzero" d="M8 0C4.943 0 2.17 1.672.125 4.39a.633.633 0 000 .755C2.171 7.865 4.943 9.537 8 9.537c3.057 0 5.83-1.672 7.875-4.389a.633.633 0 000-.756C13.829 1.672 11.057 0 8 0zm.22 8.127a3.367 3.367 0 01-3.578-3.578A3.373 3.373 0 017.78 1.411a3.367 3.367 0 013.577 3.577A3.383 3.383 0 018.22 8.127zm-.102-1.552a1.81 1.81 0 01-1.925-1.924 1.82 1.82 0 011.692-1.692A1.81 1.81 0 019.81 4.883a1.82 1.82 0 01-1.692 1.692z"/></g></svg><svg width="16" height="10" viewBox="0 0 16 10" id="preview-active" x="74" y="42" xmlns="http://www.w3.org/2000/svg"><g fill="none" fill-rule="evenodd"><path d="M-4-7h24v24H-4z"/><path fill="#FF2D55" fill-rule="nonzero" d="M8 0C4.943 0 2.17 1.672.125 4.39a.633.633 0 000 .755C2.171 7.865 4.943 9.537 8 9.537c3.057 0 5.83-1.672 7.875-4.389a.633.633 0 000-.756C13.829 1.672 11.057 0 8 0zm.22 8.127a3.367 3.367 0 01-3.578-3.578A3.373 3.373 0 017.78 1.411a3.367 3.367 0 013.577 3.577A3.383 3.383 0 018.22 8.127zm-.102-1.552a1.81 1.81 0 01-1.925-1.924 1.82 1.82 0 011.692-1.692A1.81 1.81 0 019.81 4.883a1.82 1.82 0 01-1.692 1.692z"/></g></svg><svg style="isolation:isolate" width="16" height="16" viewBox="0 0 16 16" id="reset-camera" y="63" xmlns="http://www.w3.org/2000/svg"><g clip-path="url(#_clipPath_GiyUyRPe8Yuj4G9fQA11K2724LE3zMUU)" fill="#D8D8D8"><path d="M7 0h2v4H7zM16 7v2h-4V7zM9 16H7v-4h2zM0 9V7h4v2zM6 6h4v4H6z"/></g></svg><svg width="15" height="16" viewBox="0 0 15 16" id="rotate" x="16" y="63" xmlns="http://www.w3.org/2000/svg"><g fill="none" fill-rule="evenodd"><path d="M-5-4h24v24H-5z"/><path fill="#FFF" d="M13.143 0c.315 0 .571.256.571.571V4a.571.571 0 01-.39.544l-3.43 1.143a.572.572 0 01-.36-1.086l2.531-.844A6.286 6.286 0 001.143 8 .571.571 0 110 8a7.414 7.414 0 0112.571-5.341V.57c0-.315.256-.571.572-.571zm1.143 7.429a.57.57 0 01.571.571 7.414 7.414 0 01-12.571 5.341v2.088a.571.571 0 11-1.143 0V12a.572.572 0 01.39-.544l3.43-1.143a.572.572 0 01.36 1.086l-2.531.844A6.286 6.286 0 0013.714 8c0-.316.256-.571.572-.571z"/></g></svg><svg width="15" height="16" viewBox="0 0 15 16" id="rotate-active" x="31" y="63" xmlns="http://www.w3.org/2000/svg"><g fill="none" fill-rule="evenodd"><path d="M-5-4h24v24H-5z"/><path fill="#FF2D55" d="M13.143 0c.315 0 .571.256.571.571V4a.571.571 0 01-.39.544l-3.43 1.143a.572.572 0 01-.36-1.086l2.531-.844A6.286 6.286 0 001.143 8 .571.571 0 110 8a7.414 7.414 0 0112.571-5.341V.57c0-.315.256-.571.572-.571zm1.143 7.429a.57.57 0 01.571.571 7.414 7.414 0 01-12.571 5.341v2.088a.571.571 0 11-1.143 0V12a.572.572 0 01.39-.544l3.43-1.143a.572.572 0 01.36 1.086l-2.531.844A6.286 6.286 0 0013.714 8c0-.316.256-.571.572-.571z"/></g></svg><svg width="16" height="7" viewBox="0 0 16 7" id="rotate-left" x="74" y="52" xmlns="http://www.w3.org/2000/svg"><g fill="none" fill-rule="evenodd"><path d="M20-8H-4v24h24z"/><path fill="#FFF" d="M.84 2.152c.3-.097.623.067.72.367l.646 1.985A7.414 7.414 0 0115.812 5.7a.571.571 0 01-1.087.353 6.286 6.286 0 00-11.699-.66l2.669.02a.572.572 0 01-.008 1.145L2.073 6.53a.572.572 0 01-.54-.396l-1.06-3.26a.571.571 0 01.367-.72z"/></g></svg><svg width="16" height="7" viewBox="0 0 16 7" id="rotate-right" x="52" y="36" xmlns="http://www.w3.org/2000/svg"><g fill="none" fill-rule="evenodd"><path d="M-4-8h24v24H-4z"/><path fill="#FFF" d="M15.16 2.152a.571.571 0 00-.72.367l-.646 1.985A7.414 7.414 0 00.188 5.7a.571.571 0 001.087.353 6.286 6.286 0 0111.699-.66l-2.669.02a.572.572 0 00.008 1.145l3.614-.028a.572.572 0 00.54-.396l1.06-3.26a.571.571 0 00-.367-.72z"/></g></svg><svg width="16" height="16" viewBox="0 0 24 24" id="scale" x="46" y="63" xmlns="http://www.w3.org/2000/svg"><path fill="#FFF" d="M11 4H9l3-3 3 3h-2v2h-2V4zm2 16h2l-3 3-3-3h2v-2h2v2zM3 13v2l-3-3 3-3v2h2v2H3zm18-2V9l3 3-3 3v-2h-2v-2h2zm-4-3H7v8h10V8z"/></svg><svg width="16" height="16" viewBox="0 0 24 24" id="scale-active" x="62" y="63" xmlns="http://www.w3.org/2000/svg"><path fill="#FF2D55" d="M11 4H9l3-3 3 3h-2v2h-2V4zm2 16h2l-3 3-3-3h2v-2h2v2zM3 13v2l-3-3 3-3v2h2v2H3zm18-2V9l3 3-3 3v-2h-2v-2h2zm-4-3H7v8h10V8z"/></svg><svg width="10" height="16" viewBox="0 0 10 16" id="scene-object" x="40" y="20" xmlns="http://www.w3.org/2000/svg"><g fill="none" fill-rule="evenodd"><path d="M-7-4h24v24H-7z"/><path d="M6.443 14.062v1.47a.47.47 0 01-.47.468H4.09a.47.47 0 01-.47-.469v-1.469h2.823zm2.38-3.562l1.113 1.922a.47.47 0 01-.407.703H.47a.47.47 0 01-.407-.703L1.177 10.5h7.646zm-.774-3.563L9.163 8.86a.47.47 0 01-.407.703H1.244a.47.47 0 01-.407-.703L1.95 6.937h6.098zM5.408.234l2.934 5.063A.47.47 0 017.935 6h-5.87a.47.47 0 01-.407-.703L4.592.234a.472.472 0 01.816 0z" fill="#736E7D" fill-rule="nonzero"/></g></svg><svg width="16" height="16" viewBox="0 0 16 16" id="scene-parcel" x="90" xmlns="http://www.w3.org/2000/svg"><g transform="translate(-4 -4)" fill="none" fill-rule="evenodd"><path d="M0 0h24v24H0z"/><rect fill="#736E7D" x="4" y="4" width="7" height="7" rx="1"/><rect fill="#736E7D" x="13" y="4" width="7" height="7" rx="1"/><rect fill="#736E7D" x="4" y="13" width="7" height="7" rx="1"/><rect fill="#736E7D" x="13" y="13" width="7" height="7" rx="1"/></g></svg><svg width="12" height="14" viewBox="0 0 12 14" id="share" x="106" y="74" xmlns="http://www.w3.org/2000/svg"><defs><path d="M14.999 14.896c-.506 0-.96.21-1.305.54L8.94 12.52c.035-.161.061-.324.061-.492 0-.168-.027-.33-.06-.492l4.7-2.888c.358.35.832.568 1.358.568 1.108 0 2.001-.94 2.001-2.108C17 5.942 16.106 5 14.999 5c-1.106 0-2 .942-2 2.108 0 .17.028.33.061.492l-4.7 2.89A1.933 1.933 0 007 9.92C5.893 9.92 5 10.862 5 12.028c0 1.166.893 2.108 2.001 2.108.526 0 1-.219 1.358-.569l4.746 2.922a2.152 2.152 0 00-.053.459c0 1.131.875 2.052 1.946 2.052 1.073 0 1.948-.92 1.948-2.052 0-1.132-.874-2.052-1.947-2.052z" id="bta"/></defs><use fill="#FFF" fill-rule="nonzero" xlink:href="#bta" transform="translate(-5 -5)"/></svg><svg width="16" height="10" viewBox="0 0 16 10" id="shortcuts" x="90" y="16" xmlns="http://www.w3.org/2000/svg"><g fill="none" fill-rule="evenodd"><path d="M-4-7h24v24H-4z"/><path fill="#FFF" fill-rule="nonzero" d="M15.687.313c.209.208.313.46.313.754v7.466c0 .295-.104.546-.313.754-.208.209-.46.313-.754.313H1.067c-.295 0-.546-.104-.754-.313A1.028 1.028 0 010 8.533V1.067C0 .772.104.52.313.313.52.104.773 0 1.067 0h13.866c.295 0 .546.104.754.313zm-.754 8.22V1.067H1.067v7.466h13.866zM2.267 7.467c-.09 0-.134-.045-.134-.134v-.8c0-.088.045-.133.134-.133h.8c.089 0 .133.045.133.133v.8c0 .089-.044.134-.133.134h-.8zm0-2.134c-.09 0-.134-.044-.134-.133v-.8c0-.089.045-.133.134-.133h1.866c.09 0 .134.044.134.133v.8c0 .089-.045.133-.134.133H2.267zm0-2.133c-.09 0-.134-.045-.134-.133v-.8c0-.09.045-.134.134-.134h.8c.089 0 .133.045.133.134v.8c0 .088-.044.133-.133.133h-.8zM11.6 6.4c.089 0 .133.045.133.133v.8c0 .09-.044.134-.133.134H4.4c-.089 0-.133-.045-.133-.134v-.8c0-.088.044-.133.133-.133h7.2zM5.333 5.2v-.8c0-.089.045-.133.134-.133h.8c.089 0 .133.044.133.133v.8c0 .089-.044.133-.133.133h-.8c-.09 0-.134-.044-.134-.133zm-.933-2c-.089 0-.133-.045-.133-.133v-.8c0-.09.044-.134.133-.134h.8c.089 0 .133.045.133.134v.8c0 .088-.044.133-.133.133h-.8zm3.067 2v-.8c0-.089.044-.133.133-.133h.8c.089 0 .133.044.133.133v.8c0 .089-.044.133-.133.133h-.8c-.089 0-.133-.044-.133-.133zm-.934-2c-.089 0-.133-.045-.133-.133v-.8c0-.09.044-.134.133-.134h.8c.09 0 .134.045.134.134v.8c0 .088-.045.133-.134.133h-.8zm3.067 2v-.8c0-.089.044-.133.133-.133h.8c.09 0 .133.044.133.133v.8c0 .089-.044.133-.133.133h-.8c-.089 0-.133-.044-.133-.133zm4.133 1.2c.09 0 .134.045.134.133v.8c0 .09-.045.134-.134.134h-.8c-.089 0-.133-.045-.133-.134v-.8c0-.088.044-.133.133-.133h.8zM8.667 3.2c-.09 0-.134-.045-.134-.133v-.8c0-.09.045-.134.134-.134h.8c.089 0 .133.045.133.134v.8c0 .088-.044.133-.133.133h-.8zm2.133 0c-.089 0-.133-.045-.133-.133v-.8c0-.09.044-.134.133-.134h.8c.089 0 .133.045.133.134v.8c0 .088-.044.133-.133.133h-.8zm.933 2v-.8c0-.089.045-.133.134-.133h.933v-2c0-.09.044-.134.133-.134h.8c.09 0 .134.045.134.134V5.2c0 .089-.045.133-.134.133h-1.866c-.09 0-.134-.044-.134-.133z"/></g></svg><svg width="14" height="14" viewBox="0 0 14 14" id="sidebar" y="94" xmlns="http://www.w3.org/2000/svg"><g fill="none" fill-rule="evenodd"><path d="M-5-5h24v24H-5z"/><path fill="#FFF" d="M2 0h10a2 2 0 012 2v10a2 2 0 01-2 2H2a2 2 0 01-2-2V2a2 2 0 012-2zm0 1a1 1 0 00-1 1v10a1 1 0 001 1h6V1H2z"/></g></svg><svg width="14" height="14" viewBox="0 0 14 14" id="sidebar-active" x="14" y="94" xmlns="http://www.w3.org/2000/svg"><g fill="none" fill-rule="evenodd"><path d="M-5-5h24v24H-5z"/><path fill="#FF2D55" d="M2 0h10a2 2 0 012 2v10a2 2 0 01-2 2H2a2 2 0 01-2-2V2a2 2 0 012-2zm0 1a1 1 0 00-1 1v10a1 1 0 001 1h6V1H2z"/></g></svg><svg width="16" height="16" fill="#fff" viewBox="0 0 16 16" id="smart" x="90" y="26" xmlns="http://www.w3.org/2000/svg"><path d="M5.333 16l2-6h-6l9.334-10-2 6h6L5.333 16z"/></svg><svg width="12" height="12" viewBox="0 0 12 12" id="textures" x="78" y="94" xmlns="http://www.w3.org/2000/svg"><g fill="none" fill-rule="evenodd"><path d="M-6-6h24v24H-6z"/><path fill="#736E7D" fill-rule="nonzero" d="M12 4.193V6.08L6.08 12H4.193L12 4.193zm0 5.137v1.337c0 .366-.15.7-.393.943-.24.24-.574.39-.94.39H9.33L12 9.33zM.05 11.007L11.007.05c.414.111.747.414.899.808l.044.135L.993 11.95a1.328 1.328 0 01-.497-.248l-.103-.092a1.309 1.309 0 01-.3-.468l-.043-.135L11.007.05zM7.807 0L0 7.807V5.92L5.92 0h1.887zM2.67 0L0 2.67V1.333C0 .643.531.071 1.205.006L1.333 0H2.67z"/></g></svg><svg width="12" height="10" viewBox="0 0 12 10" id="triangles" x="90" y="94" xmlns="http://www.w3.org/2000/svg"><g fill="none" fill-rule="evenodd"><path d="M-6-7h24v24H-6z"/><path fill="#736E7D" d="M6 0l6 10H0z"/></g></svg><svg width="24" height="20" viewBox="0 0 24 20" id="twitter" x="28" xmlns="http://www.w3.org/2000/svg"><g fill="none" fill-rule="evenodd"><path d="M-4-6h32v32H-4z"/><path d="M24 2.446c-.852.432-1.846.72-2.84.72.994-.576 1.846-1.583 2.13-2.734-.994.575-1.988 1.007-3.124 1.15C19.314.577 18.036 0 16.616 0c-2.699 0-4.971 2.302-4.971 5.036 0 .432 0 .72.142 1.151-4.118-.144-7.81-2.158-10.225-5.18a5.018 5.018 0 00-.71 2.59c0 1.727.852 3.31 2.272 4.173-.852 0-1.562-.288-2.272-.576 0 2.446 1.704 4.46 3.976 4.892-.426.144-.852.144-1.278.144-.284 0-.568 0-.994-.144.568 2.015 2.414 3.454 4.687 3.454-1.705 1.295-3.835 2.158-6.107 2.158H0A13.678 13.678 0 007.527 20c9.088 0 14.059-7.626 14.059-14.245v-.719c.852-.576 1.704-1.583 2.414-2.59z" fill="#FFF" fill-rule="nonzero"/></g></svg><svg width="16" height="14" viewBox="0 0 16 14" id="undo" x="90" y="42" xmlns="http://www.w3.org/2000/svg"><g fill="none" fill-rule="evenodd"><path d="M-4-5h24v24H-4z"/><path fill="#FFF" d="M10.541 13.5H5.673a.586.586 0 01-.59-.583c0-.322.265-.584.59-.584h4.868c2.36 0 4.279-1.896 4.279-4.228 0-2.33-1.92-4.227-4.279-4.227H2.016l1.231 1.217a.58.58 0 010 .824.594.594 0 01-.834 0L.173 3.71a.048.048 0 01-.004-.005l-.001-.001a.582.582 0 01-.123-.63.599.599 0 01.132-.193L2.413.67a.595.595 0 01.834 0 .578.578 0 010 .825L2.016 2.713h8.525c3.01 0 5.459 2.42 5.459 5.393 0 2.975-2.449 5.394-5.459 5.394z"/></g></svg><svg width="22" height="14" viewBox="0 0 22 14" id="view" x="52" xmlns="http://www.w3.org/2000/svg"><g fill="none" fill-rule="evenodd"><path d="M-5-9h32v32H-5z"/><path d="M11 .333C6.924.333 3.228 2.563.5 6.185a.844.844 0 000 1.009C3.228 10.82 6.924 13.05 11 13.05s7.772-2.23 10.5-5.852a.844.844 0 000-1.008C18.772 2.563 15.076.333 11 .333zm.292 10.836a4.49 4.49 0 01-4.77-4.77 4.497 4.497 0 014.186-4.185 4.49 4.49 0 014.77 4.77 4.511 4.511 0 01-4.186 4.185zm-.135-2.068a2.412 2.412 0 01-2.566-2.566 2.426 2.426 0 012.256-2.257 2.412 2.412 0 012.566 2.566 2.426 2.426 0 01-2.256 2.257z" fill="#FFF" fill-rule="nonzero"/></g></svg><svg width="15" height="15" viewBox="0 0 15 15" id="zoom-in" y="79" xmlns="http://www.w3.org/2000/svg"><g fill="none" fill-rule="evenodd"><path d="M-5-5h24v24H-5z"/><path fill="#D8D8D8" d="M10.89 9.477l3.181 3.18a1 1 0 01-1.414 1.414l-3.18-3.18a6 6 0 111.414-1.414zM6 11A5 5 0 106 1a5 5 0 000 10zm-.5-5.5V3h1v2.5H9v1H6.5V9h-1V6.5H3v-1h2.5z"/></g></svg><svg width="15" height="15" viewBox="0 0 15 15" id="zoom-out" x="15" y="79" xmlns="http://www.w3.org/2000/svg"><g fill="none" fill-rule="evenodd"><path d="M-5-5h24v24H-5z"/><path fill="#D8D8D8" d="M10.89 9.477l3.181 3.18a1 1 0 01-1.414 1.414l-3.18-3.18a6 6 0 111.414-1.414zM6 11A5 5 0 106 1a5 5 0 000 10zM3 5.5h6v1H3v-1z"/></g></svg></svg>