<svg width="61" height="61" viewBox="0 0 61 61" fill="none" xmlns="http://www.w3.org/2000/svg">
<path d="M2.33542 50.0263C1.75962 50.0263 1.1843 50.0098 0.609863 49.9768L0.681201 48.6216C7.17017 48.9962 13.7732 47.1539 19.2733 43.4351C19.8963 43.0144 20.5068 42.567 21.0887 42.1065C22.037 41.3562 23.0148 40.4944 24.1659 39.3955C24.9358 38.6606 25.7062 37.8919 26.4506 37.1489C28.3254 35.2789 30.2644 33.3449 32.412 31.7148C33.0642 31.2194 33.7475 30.7449 34.4419 30.3061C39.6556 27.0048 45.911 25.3645 52.0568 25.6887L51.9915 27.044C46.1015 26.7333 40.1079 28.3042 35.113 31.4671C34.4496 31.8873 33.7969 32.3396 33.1735 32.8137C31.0963 34.3899 29.1897 36.2919 27.3452 38.1319C26.5947 38.8798 25.8193 39.6539 25.0397 40.3985C23.858 41.5264 22.851 42.4134 21.8702 43.1894C21.2634 43.6698 20.6256 44.1365 19.9761 44.5752C14.7351 48.119 8.53098 50.0263 2.33504 50.0263L2.33542 50.0263Z" fill="white"/>
<path d="M19.5922 54.0642L19.0859 52.8152C23.4737 50.8681 27.162 47.6389 30.7283 44.5159C31.8637 43.5218 33.0376 42.4932 34.2206 41.5185C40.685 36.1886 46.524 33.7989 52.0703 34.2134L51.9782 35.5672C46.7686 35.1774 41.2224 37.4735 35.0226 42.5844C33.8552 43.5465 32.6883 44.5688 31.56 45.5566C27.9204 48.7427 24.157 52.0387 19.591 54.0642H19.5922Z" fill="white"/>
<path d="M24.2327 40.4535C21.3157 38.3246 18.082 36.7207 14.6211 35.6863C10.0884 34.3295 5.2921 34.0218 0.749981 34.7935L0.541992 33.4537C5.2716 32.6495 10.2634 32.9704 14.9776 34.3814C18.5765 35.457 21.94 37.1249 24.9746 39.3401L24.2327 40.4535Z" fill="white"/>
<path d="M17.6367 45.6303C12.757 42.5528 6.45936 41.5321 0.791369 42.8994L0.5 41.5766C6.48865 40.1316 13.1449 41.2131 18.3058 44.4675L17.6367 45.6303Z" fill="white"/>
<path d="M24.6027 40.5748C24.4734 40.5748 24.3437 40.5346 24.2316 40.4527C21.3146 38.3239 18.0809 36.7199 14.6205 35.6855C14.3444 35.6026 14.1531 35.3409 14.1503 35.0404V35.0321C14.1499 34.9706 14.1489 34.9081 14.1489 34.8455C14.1489 28.5011 19.0814 23.3398 25.1447 23.3398C27.3969 23.3398 29.5625 24.0475 31.4067 25.3873C33.2078 26.6955 34.5825 28.5108 35.3817 30.6381C35.497 30.9454 35.3845 31.2959 35.114 31.4665C34.4506 31.8867 33.7979 32.339 33.1748 32.8131C31.0977 34.3894 29.191 36.2914 27.3465 38.1313C26.5961 38.8797 25.8206 39.6534 25.0411 40.3979C24.9174 40.5152 24.7603 40.5748 24.6028 40.5748L24.6027 40.5748ZM15.4506 34.5266C18.703 35.5513 21.7575 37.0646 24.5443 39.0311C25.1877 38.4087 25.8284 37.7694 26.451 37.1479C28.3257 35.278 30.2647 33.3439 32.4123 31.7138C32.9145 31.3323 33.4342 30.964 33.9637 30.6145C32.3859 27.001 28.9803 24.6967 25.1452 24.6967C19.8987 24.6972 15.6119 29.078 15.4507 34.5267L15.4506 34.5266Z" fill="white"/>
<path d="M11.444 29.2853H3.14289C2.93398 29.2853 2.73756 29.1801 2.61574 29.0022C2.49391 28.8244 2.46148 28.5965 2.52818 28.3886L6.67873 15.563C6.76814 15.2877 7.0155 15.1021 7.29298 15.1021C7.57046 15.1021 7.81828 15.2872 7.90722 15.563L12.0578 28.3886C12.1245 28.5956 12.092 28.8244 11.9702 29.0022C11.8493 29.1801 11.6534 29.2853 11.444 29.2853ZM4.04759 27.9281H10.5398L7.29344 17.8969L4.04759 27.9281Z" fill="white"/>
<path d="M6.64502 24.8755H7.94212V34.2237H6.64502V24.8755Z" fill="white"/>
<path d="M49.1227 22.3092H40.8216C40.6127 22.3092 40.4163 22.2041 40.2944 22.0262C40.1726 21.8483 40.1402 21.6205 40.2069 21.4125L44.3574 8.58693C44.4468 8.31161 44.6942 8.12598 44.9717 8.12598C45.2492 8.12598 45.497 8.31114 45.5859 8.58693L49.7365 21.4125C49.8032 21.6195 49.7708 21.8483 49.6489 22.0262C49.528 22.2031 49.3321 22.3092 49.1227 22.3092ZM41.7263 20.952H48.2185L44.9722 10.9208L41.7263 20.952Z" fill="white"/>
<path d="M44.3237 17.8979H45.6208V27.2461H44.3237V17.8979Z" fill="white"/>
<path d="M8.71044 4.56083C8.5937 4.19923 8.42369 3.86043 8.20459 3.55263L9.245 2.7417C9.54611 3.16388 9.77957 3.63018 9.93939 4.12651L8.71044 4.56083Z" fill="white"/>
<path d="M13.0889 7.54795H1.43504C1.14274 7.54795 0.887035 7.34389 0.809218 7.0487C0.697116 6.61973 0.640137 6.17476 0.640137 5.72594C0.640137 2.97134 2.7817 0.730957 5.41374 0.730957C6.7233 0.730957 7.98139 1.30437 8.87684 2.28837C9.33683 2.07267 9.83618 1.9607 10.3471 1.9607C12.3315 1.9607 13.946 3.6499 13.946 5.72648C13.946 6.20829 13.8603 6.67798 13.6912 7.12147C13.593 7.37885 13.3544 7.54795 13.0889 7.54795ZM1.96536 6.19069H12.6062C12.6349 6.03849 12.6488 5.88338 12.6488 5.72585C12.6488 4.39775 11.6163 3.31733 10.347 3.31733C9.89444 3.31733 9.45669 3.45451 9.08051 3.71431C8.79377 3.91256 8.40928 3.84178 8.20362 3.55338C7.53934 2.62176 6.52253 2.08767 5.41362 2.08767C3.49678 2.08767 1.93712 3.71966 1.93712 5.72539C1.93758 5.88195 1.94683 6.03704 1.96536 6.19069Z" fill="white"/>
<path d="M36.4115 53.9205L35.4971 52.9574C37.7641 50.5998 40.1081 48.1626 42.8305 46.3058C45.9267 44.1948 49.1183 43.1754 52.0636 43.3602L51.9862 44.7145C49.3212 44.5477 46.4005 45.491 43.5393 47.4424C40.9284 49.2241 38.6317 51.6123 36.4115 53.9205Z" fill="white"/>
<path d="M26.832 12.0024H32.4418V13.3597H26.832V12.0024Z" fill="white"/>
<path d="M33.8037 12.0024H35.2304V13.3597H33.8037V12.0024Z" fill="white"/>
<ellipse cx="46.3676" cy="46.1154" rx="14.1322" ry="14.6154" fill="white"/>
<path fill-rule="evenodd" clip-rule="evenodd" d="M40.4384 38.5942H52.2979C52.7638 38.5942 53.145 38.9885 53.145 39.4703V41.2224C53.145 41.7043 52.7638 42.0985 52.2979 42.0985C51.832 42.0985 51.4508 41.7043 51.4508 41.2224V40.3464H41.2855V41.2224C41.2855 41.7043 40.9043 42.0985 40.4384 42.0985C39.9725 42.0985 39.5913 41.7043 39.5913 41.2224V39.4703C39.5913 38.9885 39.9725 38.5942 40.4384 38.5942ZM42.9806 47.3549C42.7222 47.3549 42.4689 47.234 42.3021 47.0045C42.0208 46.6173 42.0971 46.068 42.4715 45.778L45.8599 43.1498C46.153 42.922 46.5562 42.9159 46.8553 43.134L50.2437 45.5993C50.6266 45.8779 50.7189 46.4245 50.4495 46.8196C50.1802 47.2148 49.6524 47.3111 49.2695 47.0325L47.2129 45.5363C47.2145 45.5582 47.2153 45.5804 47.2153 45.6028V52.6113C47.2153 53.0949 46.8366 53.4874 46.3682 53.4874C45.8997 53.4874 45.5211 53.0949 45.5211 52.6113V45.6029L43.488 47.1797C43.3355 47.298 43.1576 47.3549 42.9806 47.3549Z" fill="#161518"/>
</svg>
