<svg xmlns="http://www.w3.org/2000/svg" width="73" height="73" viewBox="0 0 73 73">
    <path fill="#FFF" fill-rule="nonzero" d="M13.789 0c4.025 0 7.3 3.275 7.3 7.3s-3.275 7.3-7.3 7.3-7.3-3.275-7.3-7.3S9.764 0 13.789 0zM0 61.644V48.667c14.681.247 29.029 2.981 39.744 6.059C25.806 56.282 12.523 58.593 0 61.644zm47.971-8.11V32.83h-9.894c-2.215 0-4.01-1.787-4.01-3.991v-7.362c0-2.204 1.795-3.991 4.01-3.991 2.216 0 4.012 1.787 4.012 3.991v3.37h5.882V12.435c0-2.388 1.946-4.324 4.346-4.324 2.4 0 4.345 1.936 4.345 4.324v19.287h5.883v-6.43c0-2.205 1.796-3.992 4.01-3.992 2.216 0 4.012 1.787 4.012 3.992v10.422c0 2.204-1.796 3.99-4.011 3.99h-9.894v13.162c-2.923.19-5.819.414-8.69.667zM0 73v-7.07c22.075-5.412 46.615-8.488 73-9.152V73H0z"/>
</svg>
