<svg xmlns="http://www.w3.org/2000/svg" width="78" height="60" viewBox="0 0 78 60">
    <path fill="#FFF" fill-rule="nonzero" d="M78 29.922c0-1.136-.664-2.17-1.69-2.635l-5.931-2.69 5.932-2.689A2.895 2.895 0 0 0 78 19.272c0-1.136-.663-2.17-1.69-2.636L51.76 5.506c-.02-.01-.041-.019-.061-.027L40.172.254a2.834 2.834 0 0 0-2.344 0V.252L1.689 16.636A2.896 2.896 0 0 0 0 19.272c0 1.136.663 2.17 1.69 2.637l5.931 2.688-5.932 2.69A2.895 2.895 0 0 0 0 29.922c0 1.137.663 2.171 1.69 2.637l6.102 2.766-6.103 2.767A2.895 2.895 0 0 0 0 40.728c0 1.136.663 2.17 1.69 2.636l36.138 16.382a2.83 2.83 0 0 0 2.343.001l36.14-16.383A2.895 2.895 0 0 0 78 40.728c0-1.137-.663-2.171-1.69-2.637l-6.102-2.766 6.103-2.766A2.895 2.895 0 0 0 78 29.922zM27.247 10.4l6.182 2.7-6.643 2.9-6.092-2.738 6.553-2.862zm12.151 4.8l6.765 3.153-6.765 3.247-6.765-3.247 6.765-3.153zm17.908-1.922L51.251 16l-6.68-2.917 6.145-2.683 6.59 2.878zM33.43 24.176L25.513 28l-7.207-3.382 8.136-3.818 6.987 3.376zm6.004 2.224l7.526 3.636-7.596 3.564-7.526-3.53 7.596-3.67zm13.02.8l-7.882-3.385 7.021-3.015 8.102 3.38-7.24 3.02zm12.148-4.8l-8.09-3.592L62.653 16l8.183 3.632L64.6 22.4zM38.963 4.8l6.404 2.816-6.33 2.784-6.404-2.817 6.33-2.783zM15.336 16l6.154 2.812-8.082 3.588-6.245-2.772L15.336 16zm55.5 24.512L39 55.2 7.163 40.512l6.312-2.912 24.36 11.238a2.774 2.774 0 0 0 2.331 0L64.525 37.6l6.312 2.912zM39 44.8L7.163 30.046l6.142-2.846 24.528 11.366a2.776 2.776 0 0 0 2.333 0L64.695 27.2l6.142 2.846L39 44.8z"/>
</svg>
