<svg width="87" height="86" viewBox="0 0 87 86" fill="none" xmlns="http://www.w3.org/2000/svg">
<path d="M43.4522 16.27C54.6209 16.27 65.7884 16.2686 76.9574 16.2706C81.2354 16.2713 84.1347 18.9961 84.1347 23.0135C84.1361 36.4649 84.0708 49.9164 84.1754 63.3671C84.2056 67.2418 80.8901 70.2593 76.8614 70.2455C54.5917 70.1678 32.322 70.2093 10.0523 70.208C5.70207 70.2073 2.82599 67.5055 2.82527 63.4197C2.82387 49.9367 2.82387 36.4544 2.82527 22.9717C2.82597 19.0142 5.73783 16.2724 9.94628 16.2717C21.1149 16.2691 32.2825 16.2704 43.4514 16.2704L43.4522 16.27ZM43.4796 18.677C32.4098 18.677 21.3393 18.7342 10.271 18.6382C7.41108 18.6132 5.33524 20.5104 5.35357 23.2483C5.44413 36.5762 5.44203 49.9054 5.35357 63.2331C5.33602 65.8624 7.26371 67.8539 10.2724 67.8459C32.4127 67.7874 54.5512 67.7887 76.6915 67.8453C79.6538 67.8525 81.6294 65.9455 81.6139 63.2318C81.5388 49.9032 81.5395 36.5747 81.6139 23.2453C81.6301 20.4179 79.4982 18.6141 76.6888 18.6379C65.6197 18.7313 54.5485 18.676 43.4802 18.676L43.4796 18.677Z" fill="white"/>
<path d="M21.8166 43.8094C16.7813 39.5807 17.5065 33.5202 21.068 30.2574C24.917 26.7321 30.9878 26.7645 34.7483 30.3164C38.312 33.6821 38.8665 39.6729 33.9155 43.8162C34.3623 44.0263 34.7759 44.2033 35.1711 44.4101C40.506 47.2083 43.4953 51.4026 43.7906 57.1773C43.8494 58.3341 43.1143 58.7696 42.5024 58.8426C41.8367 58.936 40.7425 58.4839 40.6704 57.3152C40.5245 54.9479 39.7809 52.7914 38.3376 50.8405C35.2967 46.7296 29.6635 44.8179 24.4633 46.1411C19.3401 47.4444 15.5584 51.6659 15.1001 56.5948C15.0703 56.9103 15.0604 57.2279 15.0108 57.5408C14.8515 58.5451 14.0434 58.9561 13.1866 58.8712C12.6314 58.8255 11.812 58.4324 11.8658 57.3372C12.1491 51.5414 15.0853 47.2768 20.4512 44.4401C20.8585 44.2246 21.2912 44.0509 21.8181 43.8097L21.8166 43.8094ZM27.8165 42.9397C28.8179 42.8575 29.9071 42.9868 30.8038 42.6566C34.0572 41.4567 35.7101 37.7821 34.5799 34.5882C33.4482 31.3888 29.8186 29.4525 26.3783 30.2123C22.6779 31.029 20.3664 34.1288 20.8827 37.6555C21.1157 39.2458 21.9528 40.5524 23.205 41.6589C24.5307 42.8296 26.0965 43.061 27.8169 42.9403L27.8165 42.9397ZM64.7436 31.0727C67.6834 31.0727 70.6231 31.0694 73.5629 31.0747C74.5714 31.0767 75.133 32.0114 75.1365 32.7306C75.1394 33.3671 74.553 34.2965 73.5927 34.2971C67.7138 34.2998 61.8345 34.2998 55.9549 34.2971C54.9684 34.2965 54.3728 33.4267 54.3728 32.5385C54.3728 31.9418 54.8232 31.0741 55.9252 31.0734C58.865 31.0721 61.804 31.0727 64.7438 31.0727L64.7436 31.0727ZM64.9837 44.9265C62.0787 44.9265 59.1736 44.9304 56.2686 44.9245C55.27 44.9225 54.7332 44.0269 54.6992 43.2566C54.746 42.6652 55.2446 41.7033 56.2537 41.7027C61.9959 41.7 67.7387 41.7 73.4808 41.7027C74.541 41.7033 75.1352 42.6527 75.1359 43.3938C75.1366 44.1025 74.4199 44.9265 73.33 44.9265C70.493 44.9278 67.8208 44.9271 64.9831 44.9271L64.9837 44.9265ZM66.6168 52.3293C68.9815 52.3293 71.3469 52.3379 73.7123 52.3306C74.7038 52.3273 75.1337 53.3224 75.1365 53.98C75.14 54.735 74.5593 55.5524 73.7215 55.5531C68.8895 55.5571 64.0581 55.5584 59.2261 55.5518C58.2856 55.5504 57.6971 54.912 57.6921 53.9362C57.6872 52.9511 58.2608 52.3346 59.2162 52.332C61.6827 52.3247 64.1495 52.3293 66.6161 52.3293L66.6168 52.3293Z" fill="white"/>
</svg>
