<svg width="20" height="12" viewBox="0 0 20 12" fill="none" xmlns="http://www.w3.org/2000/svg">
<path fill-rule="evenodd" clip-rule="evenodd" d="M19.8729 5.6338C19.6942 5.40371 15.4371 0 9.99991 0C4.56275 0 0.305392 5.40371 0.126914 5.63358C-0.0423048 5.85186 -0.0423048 6.14792 0.126914 6.3662C0.305392 6.59629 4.56275 12 9.99991 12C15.4371 12 19.6942 6.59625 19.8729 6.36638C20.0424 6.14814 20.0424 5.85186 19.8729 5.6338ZM9.99991 10.7586C5.99486 10.7586 2.52606 7.17207 1.49922 5.99958C2.52473 4.82605 5.98627 1.24137 9.99991 1.24137C14.0048 1.24137 17.4733 4.8273 18.5006 6.00042C17.4751 7.17391 14.0136 10.7586 9.99991 10.7586ZM9.99991 2.27586C7.81858 2.27586 6.04385 3.94656 6.04385 6.00002C6.04385 8.05348 7.81858 9.72417 9.99991 9.72417C12.1812 9.72417 13.956 8.05348 13.956 6.00002C13.956 3.94656 12.1812 2.27586 9.99991 2.27586ZM9.99991 8.48276C8.54561 8.48276 7.36256 7.36903 7.36256 6.00002C7.36256 4.63101 8.54565 3.51727 9.99991 3.51727C11.4542 3.51727 12.6373 4.63101 12.6373 6.00002C12.6373 7.36903 11.4542 8.48276 9.99991 8.48276Z" fill="#FFFFFF"/>
</svg>
