<svg width="80" height="68" viewBox="0 0 80 68" fill="none" xmlns="http://www.w3.org/2000/svg">
<path d="M41.0076 12.269L41.0075 12.2691L41.0168 12.2788C41.9992 13.2997 43.3962 13.8831 44.8227 13.8831H70.143C74.7432 13.8831 78.4998 17.6467 78.4998 22.2832L78.4998 58.0694L78.4998 58.0761C78.5204 62.6953 74.7818 66.4778 70.1849 66.5H70.1792H9.85685C5.25666 66.5 1.5 62.7363 1.5 58.0997V9.90034C1.5 5.26392 5.25664 1.50022 9.85681 1.50036H9.85685L27.0684 1.50038L27.077 1.50033C29.3256 1.48732 31.5245 2.33413 33.1219 3.92557L41.0076 12.269Z" stroke="white" stroke-width="3"/>
<path fill-rule="evenodd" clip-rule="evenodd" d="M58.5227 46.9194H50.563L52.536 26.9529C52.536 26.295 51.8616 25.7786 48.5704 25.3967C46.3666 25.1408 43.3511 25 40.0796 25C36.808 25 33.7925 25.1408 31.5885 25.3967C28.2973 25.7786 27.6229 26.295 27.6229 26.9529L29.6016 46.9194H21.4773C21.2137 46.9194 21 47.1401 21 47.4123C21 48.1571 21.5881 48.889 22.7481 49.5877C23.7537 50.1934 25.1992 50.7791 26.9283 51.2818C30.6855 52.3737 35.4789 53 40.0796 53C44.6735 53 49.4384 52.3735 53.1526 51.2814C54.8605 50.7791 56.2875 50.1929 57.2795 49.586C58.4212 48.8877 59 48.1564 59 47.4123C59 47.1401 58.7863 46.9194 58.5227 46.9194ZM32.1772 26.3237C34.2913 26.1059 37.0978 25.9859 40.0796 25.9859C43.0613 25.9859 45.8678 26.1059 47.9819 26.3237C50.069 26.5387 50.9761 26.7951 51.3596 26.9529C50.9763 27.1104 50.0691 27.3668 47.9815 27.5816C45.8675 27.7993 43.0612 27.9191 40.0796 27.9191C37.0979 27.9191 34.292 27.7992 32.1773 27.5814C30.091 27.3665 29.1836 27.1104 28.7998 26.9528C29.1834 26.7949 30.0905 26.5387 32.1772 26.3237ZM29.0282 28.0628C28.9004 28.0277 28.7836 27.9915 28.675 27.9543L30.047 41.7512C31.1111 41.8669 32.1754 41.966 33.2163 42.0446C33.4728 42.0634 33.6688 42.2886 33.6596 42.554C33.6504 42.8194 33.4392 43.0295 33.1821 43.0293C33.1706 43.0293 33.1586 43.0288 33.1468 43.0279C32.1609 42.9534 31.1543 42.8607 30.1467 42.7533L30.5658 46.967C37.222 47.7315 42.946 47.7315 49.5985 46.967L50.019 42.7373C46.6911 43.1015 43.3471 43.2854 40.0006 43.2883C38.4278 43.2883 36.8578 43.2469 35.2818 43.1643C35.0185 43.1505 34.8159 42.9189 34.8292 42.6469C34.8426 42.375 35.0669 42.1658 35.3302 42.1796C40.2635 42.4351 45.2088 42.2861 50.1193 41.734L51.489 27.9528C51.3802 27.9903 51.263 28.0268 51.1348 28.0621C50.4932 28.2389 49.5934 28.3934 48.4603 28.5213C46.2679 28.7687 43.2916 28.905 40.0796 28.905C36.8705 28.905 33.8956 28.7688 31.703 28.5215C30.5703 28.3938 29.6704 28.2394 29.0282 28.0628ZM52.8914 50.3331C49.2586 51.4012 44.589 52.0141 40.0798 52.0141C35.5628 52.0141 30.8637 51.4013 27.1872 50.3328C24.0859 49.4314 22.6944 48.5129 22.1917 47.9053H30.1034L30.2029 47.9169C37.1279 48.7302 43.0356 48.7302 49.9574 47.9177L50.0614 47.9053H57.8259C57.2776 48.5902 55.6842 49.5118 52.8912 50.3331H52.8914ZM37.9358 36.437L37.6123 38.3868C37.5815 38.5717 37.6552 38.7586 37.8021 38.8689C37.9491 38.9792 38.144 38.9938 38.3049 38.9064L40 37.9861L41.6951 38.9063C41.856 38.9936 42.0508 38.979 42.1978 38.8688C42.3448 38.7585 42.4185 38.5715 42.3877 38.3866L42.0642 36.4369L43.4358 35.0563C43.5659 34.9254 43.6128 34.7294 43.5566 34.5509C43.5005 34.3724 43.351 34.2424 43.1712 34.2154L41.2756 33.9314L40.4281 32.1576C40.3477 31.9893 40.1817 31.8827 40 31.8827C39.8183 31.8827 39.6523 31.9893 39.5719 32.1576L38.7244 33.9314L36.8288 34.2154C36.649 34.2424 36.4995 34.3724 36.4434 34.5509C36.3872 34.7294 36.4341 34.9254 36.5642 35.0563L37.9358 36.437ZM39.1099 34.8697C39.2655 34.8464 39.3999 34.7455 39.4694 34.5999L40 33.4895L40.5305 34.5999C40.6001 34.7455 40.7345 34.8464 40.8901 34.8697L42.0768 35.0475L41.2181 35.9119C41.1056 36.0252 41.0543 36.1883 41.0808 36.3482L41.2835 37.569L40.2221 36.9928C40.0831 36.9173 39.9169 36.9173 39.7779 36.9928L38.7165 37.569L38.9192 36.3482C38.9457 36.1883 38.8944 36.0252 38.7819 35.9119L37.9236 35.0475L39.1099 34.8697Z" fill="white"/>
</svg>
