<svg width="96" height="70" viewBox="0 0 96 70" fill="none" xmlns="http://www.w3.org/2000/svg">
<path fill-rule="evenodd" clip-rule="evenodd" d="M94.7941 54.5156H74.6855L79.6698 5.31259C79.6698 3.69125 77.9661 2.41876 69.6516 1.4775C64.084 0.847025 56.4659 0.5 48.201 0.5C39.9361 0.5 32.318 0.847025 26.7498 1.4775C18.4353 2.41876 16.7316 3.69125 16.7316 5.31259L21.7303 54.5156H1.20588C0.53989 54.5156 0 55.0595 0 55.7304C0 57.5657 1.48584 59.3693 4.41633 61.0912C6.95671 62.5838 10.6085 64.027 14.9768 65.2659C24.4687 67.9566 36.5783 69.5 48.201 69.5C59.8068 69.5 71.8444 67.9562 81.2276 65.2648C85.5422 64.0272 89.1474 62.5826 91.6534 61.087C94.5377 59.366 96 57.5641 96 55.7304C96 55.0595 95.4601 54.5156 94.7941 54.5156ZM28.2371 3.76191C33.5781 3.22518 40.6681 2.92958 48.201 2.92958C55.7339 2.92958 62.8239 3.22518 68.1649 3.76191C73.4374 4.29176 75.7292 4.92365 76.6979 5.31239C75.7296 5.70071 73.4378 6.3324 68.1637 6.86185C62.8231 7.39818 55.7335 7.69357 48.201 7.69357C40.6685 7.69357 33.5799 7.39798 28.2375 6.86124C22.9668 6.3318 20.6744 5.70051 19.7047 5.31218C20.6738 4.92325 22.9656 4.29176 28.2371 3.76191ZM20.2817 8.04769C19.9589 7.96103 19.6639 7.87195 19.3895 7.78023L22.8556 41.7797C25.5439 42.0648 28.2326 42.3092 30.8623 42.5027C31.5103 42.549 32.0054 43.104 31.9822 43.758C31.9589 44.4121 31.4255 44.9299 30.7758 44.9293C30.7469 44.9293 30.7165 44.9281 30.6866 44.9258C28.1961 44.7424 25.6531 44.5138 23.1074 44.2492L24.1662 54.633C40.9818 56.5169 55.4425 56.5169 72.2488 54.633L73.3112 44.2097C64.9039 45.1073 56.4558 45.5605 48.0014 45.5676C44.0282 45.5676 40.0619 45.4656 36.0803 45.2619C35.4151 45.2279 34.9033 44.6572 34.937 43.9871C34.9708 43.317 35.5373 42.8014 36.2025 42.8354C48.6658 43.465 61.159 43.0979 73.5646 41.7374L77.0249 7.77658C76.75 7.86891 76.4539 7.9588 76.1301 8.04586C74.5092 8.48157 72.236 8.8624 69.3734 9.17744C63.8348 9.78726 56.3155 10.1232 48.201 10.1232C40.0939 10.1232 32.5784 9.78747 27.0392 9.17805C24.1777 8.86321 21.9042 8.48278 20.2817 8.04769ZM80.5678 62.928C71.3902 65.56 59.5933 67.0704 48.2016 67.0704C36.7904 67.0704 24.9189 65.5602 15.6308 62.9272C7.79601 60.7059 4.28067 58.4424 3.01068 56.9452H22.9981L23.2493 56.9737C40.7442 58.9781 55.669 58.9781 73.1554 56.9757L73.4183 56.9452H93.0339C91.6488 58.6329 87.6232 60.9042 80.5672 62.928H80.5678ZM42.7852 28.6841L41.9678 33.4888C41.8902 33.9446 42.0762 34.4052 42.4475 34.677C42.8189 34.9488 43.3112 34.9846 43.7175 34.7694L48 32.5014L52.2825 34.769C52.6888 34.9842 53.1811 34.9484 53.5525 34.6766C53.9238 34.4048 54.1098 33.9442 54.0322 33.4884L53.2148 28.6837L56.6799 25.2817C57.0087 24.9589 57.1271 24.4761 56.9852 24.0362C56.8433 23.5964 56.4658 23.2759 56.0115 23.2095L51.2225 22.5095L49.0815 18.1383C48.8784 17.7235 48.4591 17.4609 48 17.4609C47.5409 17.4609 47.1216 17.7235 46.9185 18.1383L44.7775 22.5095L39.9885 23.2095C39.5342 23.2759 39.1567 23.5964 39.0148 24.0362C38.8729 24.4761 38.9913 24.9589 39.3201 25.2817L42.7852 28.6841ZM45.7514 24.8217C46.1443 24.7642 46.484 24.5157 46.6597 24.157L48 21.4205L49.3403 24.157C49.516 24.5157 49.8557 24.7642 50.2486 24.8217L53.2466 25.2598L51.0774 27.3902C50.7932 27.6692 50.6635 28.0712 50.7305 28.4652L51.2424 31.4737L48.5611 30.0536C48.2098 29.8675 47.7902 29.8675 47.4389 30.0536L44.7576 31.4737L45.2695 28.4652C45.3365 28.0712 45.2068 27.6692 44.9226 27.3902L42.7544 25.2598L45.7514 24.8217Z" fill="white"/>
</svg>
