<svg width="96" height="96" viewBox="0 0 96 96" fill="none" xmlns="http://www.w3.org/2000/svg">
<rect width="95.9998" height="95.9998" rx="47.9999" fill="#37333D"/>
<g filter="url(#filter0_di_1787_93)">
<path d="M61.5 24H34.5C32.0156 24 30 26.0156 30 28.5V67.5C30 69.9844 32.0156 72 34.5 72H61.5C63.9844 72 66 69.9844 66 67.5V28.5C66 26.0156 63.9844 24 61.5 24ZM61.5 67.5H34.5V28.5H61.5V67.5Z" fill="white" fill-opacity="0.4" shape-rendering="crispEdges"/>
</g>
<g filter="url(#filter1_di_1787_93)">
<path d="M52.5 34.5H43.5C42.675 34.5 42 33.825 42 33C42 32.175 42.675 31.5 43.5 31.5H52.5C53.325 31.5 54 32.175 54 33C54 33.825 53.325 34.5 52.5 34.5Z" fill="white" fill-opacity="0.8" shape-rendering="crispEdges"/>
<path d="M54 45C54 48.3094 51.3094 51 48 51C44.6906 51 42 48.3094 42 45C42 41.6906 44.6906 39 48 39C51.3094 39 54 41.6906 54 45Z" fill="white" fill-opacity="0.8" shape-rendering="crispEdges"/>
<path d="M56.4 63H39.6C38.4375 63 37.5 62.1937 37.5 61.2V59.4C37.5 56.4188 40.3219 54 43.8 54C44.8687 54 45.4781 54.75 48 54.75C50.4469 54.75 51.1875 54 52.2 54C55.6781 54 58.5 56.4188 58.5 59.4V61.2C58.5 62.1937 57.5625 63 56.4 63Z" fill="white" fill-opacity="0.8" shape-rendering="crispEdges"/>
</g>
<defs>
<filter id="filter0_di_1787_93" x="26" y="22" width="44" height="56" filterUnits="userSpaceOnUse" color-interpolation-filters="sRGB">
<feFlood flood-opacity="0" result="BackgroundImageFix"/>
<feColorMatrix in="SourceAlpha" type="matrix" values="0 0 0 0 0 0 0 0 0 0 0 0 0 0 0 0 0 0 127 0" result="hardAlpha"/>
<feOffset dy="2"/>
<feGaussianBlur stdDeviation="2"/>
<feComposite in2="hardAlpha" operator="out"/>
<feColorMatrix type="matrix" values="0 0 0 0 0 0 0 0 0 0 0 0 0 0 0 0 0 0 0.25 0"/>
<feBlend mode="normal" in2="BackgroundImageFix" result="effect1_dropShadow_1787_93"/>
<feBlend mode="normal" in="SourceGraphic" in2="effect1_dropShadow_1787_93" result="shape"/>
<feColorMatrix in="SourceAlpha" type="matrix" values="0 0 0 0 0 0 0 0 0 0 0 0 0 0 0 0 0 0 127 0" result="hardAlpha"/>
<feOffset dy="1"/>
<feComposite in2="hardAlpha" operator="arithmetic" k2="-1" k3="1"/>
<feColorMatrix type="matrix" values="0 0 0 0 1 0 0 0 0 1 0 0 0 0 1 0 0 0 0.25 0"/>
<feBlend mode="normal" in2="shape" result="effect2_innerShadow_1787_93"/>
</filter>
<filter id="filter1_di_1787_93" x="33.5" y="29.5" width="29" height="39.5" filterUnits="userSpaceOnUse" color-interpolation-filters="sRGB">
<feFlood flood-opacity="0" result="BackgroundImageFix"/>
<feColorMatrix in="SourceAlpha" type="matrix" values="0 0 0 0 0 0 0 0 0 0 0 0 0 0 0 0 0 0 127 0" result="hardAlpha"/>
<feOffset dy="2"/>
<feGaussianBlur stdDeviation="2"/>
<feComposite in2="hardAlpha" operator="out"/>
<feColorMatrix type="matrix" values="0 0 0 0 0 0 0 0 0 0 0 0 0 0 0 0 0 0 0.25 0"/>
<feBlend mode="normal" in2="BackgroundImageFix" result="effect1_dropShadow_1787_93"/>
<feBlend mode="normal" in="SourceGraphic" in2="effect1_dropShadow_1787_93" result="shape"/>
<feColorMatrix in="SourceAlpha" type="matrix" values="0 0 0 0 0 0 0 0 0 0 0 0 0 0 0 0 0 0 127 0" result="hardAlpha"/>
<feOffset dy="1"/>
<feComposite in2="hardAlpha" operator="arithmetic" k2="-1" k3="1"/>
<feColorMatrix type="matrix" values="0 0 0 0 1 0 0 0 0 1 0 0 0 0 1 0 0 0 1 0"/>
<feBlend mode="normal" in2="shape" result="effect2_innerShadow_1787_93"/>
</filter>
</defs>
</svg>
