<svg width="96" height="96" viewBox="0 0 96 96" fill="none" xmlns="http://www.w3.org/2000/svg">
<rect width="95.9998" height="95.9998" rx="47.9999" fill="#37333D"/>
<g filter="url(#filter0_di_1775_109)">
<path fill-rule="evenodd" clip-rule="evenodd" d="M69 31.0412V47.4078C69 47.9829 68.5338 48.4491 67.9588 48.449H63.2017V38.141C63.2017 36.8492 62.1507 35.7983 60.859 35.7983H44.3037V31.0412C44.3037 30.4662 44.7699 30 45.3449 30H67.9588C68.5338 30 69 30.4662 69 31.0412ZM60.859 58.5489H55.9978V45.4491V45.2409C55.9978 43.9491 54.9468 42.8981 53.6551 42.8981H44.3037H34.2039V38.1411C34.2039 37.566 34.6701 37.0999 35.2451 37.0999H44.3037H60.859C61.4341 37.0999 61.9002 37.566 61.9002 38.1411V48.4491V57.5077C61.9002 58.0827 61.4341 58.5489 60.859 58.5489Z" fill="white" fill-opacity="0.4" shape-rendering="crispEdges"/>
</g>
<g filter="url(#filter1_di_1775_109)">
<path fill-rule="evenodd" clip-rule="evenodd" d="M27 64.6074V45.2408C27 44.6658 27.4662 44.1996 28.0412 44.1996H35.9024H36.5531H37.2039H47.3037H53.6551C54.2302 44.1996 54.6963 44.6657 54.6963 45.2408V45.449V55.5488V56.1995V56.8503V64.6074C54.6963 65.1825 54.2302 65.6486 53.6551 65.6486H28.0412C27.4662 65.6486 27 65.1825 27 64.6074ZM45.8766 48.0802L49.4193 50.1365C49.6748 50.2828 49.865 50.5235 49.9505 50.8086C50.0359 51.0938 50.0101 51.4014 49.8783 51.6677L48.5588 54.3583C48.4631 54.5514 48.3165 54.7136 48.1354 54.8269C47.9544 54.9402 47.7459 55.0002 47.5332 55H46.1635V60.8333C46.1635 61.1428 46.0426 61.4395 45.8274 61.6583C45.6122 61.8771 45.3204 62 45.016 62H36.984C36.6796 62 36.3878 61.8771 36.1726 61.6583C35.9574 61.4395 35.8365 61.1428 35.8365 60.8333V55H34.4668C34.2541 55.0002 34.0456 54.9402 33.8646 54.8269C33.6835 54.7136 33.5369 54.5514 33.4412 54.3583L32.1217 51.6677C31.9899 51.4014 31.9641 51.0938 32.0495 50.8086C32.135 50.5235 32.3252 50.2828 32.5806 50.1365L36.1234 48.0802C36.2104 48.0283 36.3093 48.0006 36.4102 48H38.7051C38.8573 48 39.0032 48.0615 39.1108 48.1709C39.2184 48.2803 39.2788 48.4286 39.2788 48.5833C39.2788 49.0475 39.4602 49.4926 39.783 49.8208C40.1057 50.149 40.5435 50.3333 41 50.3333C41.4565 50.3333 41.8943 50.149 42.217 49.8208C42.5398 49.4926 42.7212 49.0475 42.7212 48.5833C42.7212 48.4286 42.7816 48.2803 42.8892 48.1709C42.9968 48.0615 43.1427 48 43.2949 48H45.5898C45.6907 48.0006 45.7896 48.0283 45.8766 48.0802Z" fill="white" fill-opacity="0.8" shape-rendering="crispEdges"/>
</g>
<defs>
<filter id="filter0_di_1775_109" x="30.2039" y="28" width="42.7961" height="36.5489" filterUnits="userSpaceOnUse" color-interpolation-filters="sRGB">
<feFlood flood-opacity="0" result="BackgroundImageFix"/>
<feColorMatrix in="SourceAlpha" type="matrix" values="0 0 0 0 0 0 0 0 0 0 0 0 0 0 0 0 0 0 127 0" result="hardAlpha"/>
<feOffset dy="2"/>
<feGaussianBlur stdDeviation="2"/>
<feComposite in2="hardAlpha" operator="out"/>
<feColorMatrix type="matrix" values="0 0 0 0 0 0 0 0 0 0 0 0 0 0 0 0 0 0 0.25 0"/>
<feBlend mode="normal" in2="BackgroundImageFix" result="effect1_dropShadow_1775_109"/>
<feBlend mode="normal" in="SourceGraphic" in2="effect1_dropShadow_1775_109" result="shape"/>
<feColorMatrix in="SourceAlpha" type="matrix" values="0 0 0 0 0 0 0 0 0 0 0 0 0 0 0 0 0 0 127 0" result="hardAlpha"/>
<feOffset dy="1"/>
<feComposite in2="hardAlpha" operator="arithmetic" k2="-1" k3="1"/>
<feColorMatrix type="matrix" values="0 0 0 0 1 0 0 0 0 1 0 0 0 0 1 0 0 0 0.25 0"/>
<feBlend mode="normal" in2="shape" result="effect2_innerShadow_1775_109"/>
</filter>
<filter id="filter1_di_1775_109" x="23" y="42.1996" width="35.6963" height="29.449" filterUnits="userSpaceOnUse" color-interpolation-filters="sRGB">
<feFlood flood-opacity="0" result="BackgroundImageFix"/>
<feColorMatrix in="SourceAlpha" type="matrix" values="0 0 0 0 0 0 0 0 0 0 0 0 0 0 0 0 0 0 127 0" result="hardAlpha"/>
<feOffset dy="2"/>
<feGaussianBlur stdDeviation="2"/>
<feComposite in2="hardAlpha" operator="out"/>
<feColorMatrix type="matrix" values="0 0 0 0 0 0 0 0 0 0 0 0 0 0 0 0 0 0 0.25 0"/>
<feBlend mode="normal" in2="BackgroundImageFix" result="effect1_dropShadow_1775_109"/>
<feBlend mode="normal" in="SourceGraphic" in2="effect1_dropShadow_1775_109" result="shape"/>
<feColorMatrix in="SourceAlpha" type="matrix" values="0 0 0 0 0 0 0 0 0 0 0 0 0 0 0 0 0 0 127 0" result="hardAlpha"/>
<feOffset dy="1"/>
<feComposite in2="hardAlpha" operator="arithmetic" k2="-1" k3="1"/>
<feColorMatrix type="matrix" values="0 0 0 0 1 0 0 0 0 1 0 0 0 0 1 0 0 0 1 0"/>
<feBlend mode="normal" in2="shape" result="effect2_innerShadow_1775_109"/>
</filter>
</defs>
</svg>
