<svg width="96" height="96" viewBox="0 0 96 96" fill="none" xmlns="http://www.w3.org/2000/svg">
<rect width="95.9998" height="95.9998" rx="47.9999" fill="#37333D"/>
<g filter="url(#filter0_di_1787_28)">
<path fill-rule="evenodd" clip-rule="evenodd" d="M38.5 35C40.9853 35 43 32.9853 43 30.5C43 28.0147 40.9853 26 38.5 26C36.0147 26 34 28.0147 34 30.5C34 32.9853 36.0147 35 38.5 35ZM21 65H38.4774V44L21 65ZM38.4774 44V65H55.9548L38.4774 44Z" fill="white" fill-opacity="0.4" shape-rendering="crispEdges"/>
</g>
<g filter="url(#filter1_bdi_1787_28)">
<path fill-rule="evenodd" clip-rule="evenodd" d="M58.5 42C62.0899 42 65 39.0899 65 35.5C65 31.9101 62.0899 29 58.5 29C54.9101 29 52 31.9101 52 35.5C52 39.0899 54.9101 42 58.5 42ZM41 65H58H76L58 49L41 65Z" fill="white" fill-opacity="0.8" shape-rendering="crispEdges"/>
</g>
<defs>
<filter id="filter0_di_1787_28" x="17" y="24" width="42.9548" height="47" filterUnits="userSpaceOnUse" color-interpolation-filters="sRGB">
<feFlood flood-opacity="0" result="BackgroundImageFix"/>
<feColorMatrix in="SourceAlpha" type="matrix" values="0 0 0 0 0 0 0 0 0 0 0 0 0 0 0 0 0 0 127 0" result="hardAlpha"/>
<feOffset dy="2"/>
<feGaussianBlur stdDeviation="2"/>
<feComposite in2="hardAlpha" operator="out"/>
<feColorMatrix type="matrix" values="0 0 0 0 0 0 0 0 0 0 0 0 0 0 0 0 0 0 0.25 0"/>
<feBlend mode="normal" in2="BackgroundImageFix" result="effect1_dropShadow_1787_28"/>
<feBlend mode="normal" in="SourceGraphic" in2="effect1_dropShadow_1787_28" result="shape"/>
<feColorMatrix in="SourceAlpha" type="matrix" values="0 0 0 0 0 0 0 0 0 0 0 0 0 0 0 0 0 0 127 0" result="hardAlpha"/>
<feOffset dy="1"/>
<feComposite in2="hardAlpha" operator="arithmetic" k2="-1" k3="1"/>
<feColorMatrix type="matrix" values="0 0 0 0 1 0 0 0 0 1 0 0 0 0 1 0 0 0 0.25 0"/>
<feBlend mode="normal" in2="shape" result="effect2_innerShadow_1787_28"/>
</filter>
<filter id="filter1_bdi_1787_28" x="37" y="25" width="43" height="46" filterUnits="userSpaceOnUse" color-interpolation-filters="sRGB">
<feFlood flood-opacity="0" result="BackgroundImageFix"/>
<feGaussianBlur in="BackgroundImageFix" stdDeviation="2"/>
<feComposite in2="SourceAlpha" operator="in" result="effect1_backgroundBlur_1787_28"/>
<feColorMatrix in="SourceAlpha" type="matrix" values="0 0 0 0 0 0 0 0 0 0 0 0 0 0 0 0 0 0 127 0" result="hardAlpha"/>
<feOffset dy="2"/>
<feGaussianBlur stdDeviation="2"/>
<feComposite in2="hardAlpha" operator="out"/>
<feColorMatrix type="matrix" values="0 0 0 0 0 0 0 0 0 0 0 0 0 0 0 0 0 0 0.25 0"/>
<feBlend mode="normal" in2="effect1_backgroundBlur_1787_28" result="effect2_dropShadow_1787_28"/>
<feBlend mode="normal" in="SourceGraphic" in2="effect2_dropShadow_1787_28" result="shape"/>
<feColorMatrix in="SourceAlpha" type="matrix" values="0 0 0 0 0 0 0 0 0 0 0 0 0 0 0 0 0 0 127 0" result="hardAlpha"/>
<feOffset dy="1"/>
<feComposite in2="hardAlpha" operator="arithmetic" k2="-1" k3="1"/>
<feColorMatrix type="matrix" values="0 0 0 0 1 0 0 0 0 1 0 0 0 0 1 0 0 0 1 0"/>
<feBlend mode="normal" in2="shape" result="effect3_innerShadow_1787_28"/>
</filter>
</defs>
</svg>
