<svg xmlns="http://www.w3.org/2000/svg" width="24" height="24" viewBox="0 0 24 24">
    <g fill="none" fill-rule="evenodd">
        <path d="M0 0H24V24H0z"/>
        <path fill="#FFF" d="M12 1c6.075 0 11 4.925 11 11s-4.925 11-11 11c-5.566 0-10.166-4.134-10.898-9.5h9.397l.001 2.757c0 .442.358.8.8.8.19 0 .375-.068.52-.193l4.97-4.257c.336-.287.375-.792.088-1.128-.027-.03-.056-.06-.087-.087l-4.97-4.26c-.336-.288-.84-.249-1.128.087-.125.145-.193.33-.193.52V10.5H1.1C1.833 5.135 6.434 1 12 1z"/>
    </g>
</svg>
