<svg width="12" height="12" viewBox="0 0 12 12" fill="none" xmlns="http://www.w3.org/2000/svg">
<path fill-rule="evenodd" clip-rule="evenodd" d="M12 6C12 9.31371 9.31371 12 6 12C2.68629 12 0 9.31371 0 6C0 2.68629 2.68629 0 6 0C9.31371 0 12 2.68629 12 6ZM11 6C11 8.76142 8.76142 11 6 11C3.23858 11 1 8.76142 1 6C1 3.23858 3.23858 1 6 1C8.76142 1 11 3.23858 11 6ZM7 6C7.82843 6 8.5 5.32843 8.5 4.5C8.5 3.67157 7.82843 3 7 3C6.17157 3 5.5 3.67157 5.5 4.5C5.5 5.32843 6.17157 6 7 6Z" fill="#736E7D"/>
</svg>
