<svg xmlns="http://www.w3.org/2000/svg" width="1377" height="408" viewBox="0 0 1377 408">
    <path fill="#FFBC5B" fill-rule="evenodd" d="M807.645 71.042l4.173 10.89L800 79.848l7.645-8.806zm195 6l4.173 10.89L995 85.848l7.645-8.806zm-99.258-4.862l-.21 11.66L893 77.48l10.387-5.3zm100-63l-.21 11.66L993 14.48l10.387-5.3zm69.798 52.488L1064 54.482l11.203-4.3-2.018 11.486zM1177.04 74.89l-7.646-8.806L1181.211 64l-4.172 10.89zm66-61l-7.646-8.806L1247.211 3l-4.172 10.89zm129 67l-7.646-8.806L1376.211 70l-4.172 10.89zm-99.258-6.23l-10.388-5.301L1272.57 63l.21 11.66zm100-63l-10.388-5.301L1372.57 0l.21 11.66zM21.302 107.89L17.13 97l11.817 2.084-7.645 8.806zm-17-73L.13 24l11.817 2.084-7.645 8.806zm150-6L150.13 18l11.817 2.084-7.645 8.806zm26.18 60.77l.21-11.66 10.177 6.359-10.387 5.301zm100-63l.21-11.66 10.177 6.359-10.387 5.301zm110.213 75.23L386.523 91l11.818 2.084-7.646 8.806zm133-79L519.523 12l11.818 2.084-7.646 8.806zm129 67L648.523 79l11.818 2.084-7.646 8.806zm-102.82-6.23l.21-11.66 10.177 6.359-10.387 5.301zm100-63l.21-11.66 10.177 6.359-10.387 5.301zm-81.18 116.188l-4.172-10.89 11.818 2.084-7.646 8.806zm-195-6l-4.172-10.89 11.818 2.084-7.646 8.806zm99.258 4.862l.211-11.66 10.177 6.36-10.388 5.3zm-100 63l.211-11.66 10.177 6.36-10.388 5.3zm-69.797-52.488l9.185 7.186-11.203 4.3 2.018-11.486zM199.302 133l7.645 8.806-11.817 2.084 4.172-10.89zm-66 61l7.645 8.806-11.817 2.084 4.172-10.89zm-129-67l7.645 8.806L.13 137.89 4.302 127zm99.258 6.23l10.387 5.3-10.176 6.36-.211-11.66zm-100 63l10.387 5.3-10.176 6.36-.211-11.66zM1355.039 100l4.172 10.89-11.818-2.084 7.646-8.806zm17 73l4.172 10.89-11.818-2.084 7.646-8.806zm-150 6l4.172 10.89-11.818-2.084 7.646-8.806zm-26.18-60.77l-.21 11.66-10.177-6.36 10.387-5.3zm-100 63l-.21 11.66-10.177-6.36 10.387-5.3zM985.645 106l4.173 10.89L978 114.806l7.645-8.806zm-133 79l4.173 10.89L845 193.806l7.645-8.806zm-129-67l4.173 10.89L716 126.806l7.645-8.806zm102.82 6.23l-.21 11.66-10.177-6.36 10.388-5.3zm-100 63l-.21 11.66-10.177-6.36 10.388-5.3zm81.18 83.812l4.173 10.89L800 279.848l7.645-8.806zm195 6l4.173 10.89L995 285.848l7.645-8.806zm-99.258-4.862l-.21 11.66L893 277.48l10.387-5.3zm100-63l-.21 11.66L993 214.48l10.387-5.3zm69.798 52.488l-9.185-7.186 11.203-4.3-2.018 11.486zm103.854 13.222l-7.646-8.806 11.818-2.084-4.172 10.89zm66-61l-7.646-8.806 11.818-2.084-4.172 10.89zm129 67l-7.646-8.806 11.818-2.084-4.172 10.89zm-99.258-6.23l-10.388-5.301L1272.57 263l.21 11.66zm100-63l-10.388-5.301L1372.57 200l.21 11.66zM21.302 307.89L17.13 297l11.817 2.084-7.645 8.806zm-17-73L.13 224l11.817 2.084-7.645 8.806zm150-6L150.13 218l11.817 2.084-7.645 8.806zm26.18 60.77l.21-11.66 10.177 6.359-10.387 5.301zm100-63l.21-11.66 10.177 6.359-10.387 5.301zm110.213 75.23L386.523 291l11.818 2.084-7.646 8.806zm133-79L519.523 212l11.818 2.084-7.646 8.806zm129 67L648.523 279l11.818 2.084-7.646 8.806zm-102.82-6.23l.21-11.66 10.177 6.359-10.387 5.301zm100-63l.21-11.66 10.177 6.359-10.387 5.301zm-81.18 116.188l-4.172-10.89 11.818 2.084-7.646 8.806zm-195-6l-4.172-10.89 11.818 2.084-7.646 8.806zm99.258 4.862l.211-11.66 10.177 6.36-10.388 5.3zm-100 63l.211-11.66 10.177 6.36-10.388 5.3zm-69.797-52.488l9.185 7.186-11.203 4.3 2.018-11.486zM199.302 333l7.645 8.806-11.817 2.084 4.172-10.89zm-66 61l7.645 8.806-11.817 2.084 4.172-10.89zm-129-67l7.645 8.806L.13 337.89 4.302 327zm99.258 6.23l10.387 5.3-10.176 6.36-.211-11.66zm-100 63l10.387 5.3-10.176 6.36-.211-11.66zM1355.039 300l4.172 10.89-11.818-2.084 7.646-8.806zm17 73l4.172 10.89-11.818-2.084 7.646-8.806zm-150 6l4.172 10.89-11.818-2.084 7.646-8.806zm-26.18-60.77l-.21 11.66-10.177-6.36 10.387-5.3zm-100 63l-.21 11.66-10.177-6.36 10.387-5.3zM985.645 306l4.173 10.89L978 314.806l7.645-8.806zm-133 79l4.173 10.89L845 393.806l7.645-8.806zm-129-67l4.173 10.89L716 326.806l7.645-8.806zm102.82 6.23l-.21 11.66-10.177-6.36 10.388-5.3zm-100 63l-.21 11.66-10.177-6.36 10.388-5.3z" opacity=".4"/>
</svg>
