<svg xmlns="http://www.w3.org/2000/svg" width="1397" height="390" viewBox="0 0 1397 390">
    <path fill="#C640CD" fill-rule="evenodd" d="M723.792 49.332l2.018 11.486-11.203-4.3 9.185-7.186zm63.733-26.438l7.645 8.806-11.817 2.084 4.172-10.89zm-26.88 57.148l4.173 10.89L753 88.848l7.645-8.806zm-17-73l4.173 10.89L736 15.848l7.645-8.806zm150-6l4.173 10.89L886 9.848l7.645-8.806zm-33.822 31.016l7.798 8.671-11.78 2.29 3.982-10.961zm116.067-2.913l7.798 8.671-11.78 2.29 3.982-10.961zm181.028-2.403l-4.172-10.89 11.818 2.084-7.646 8.806zm-26.88 57.148l-7.645-8.806L1134.211 73l-4.172 10.89zm-17-73l-7.645-8.806L1117.211 0l-4.172 10.89zm116.178 24.984l-3.981-10.961 11.78 2.29-7.799 8.671zm116.067-2.913L1341.301 22l11.78 2.29-7.798 8.671zM2.601 67.668L.584 56.182l11.203 4.3L2.6 67.668zm69.054-25.926l-7.645-8.806 11.817-2.084-4.172 10.89zm36.647 39.148L104.13 70l11.817 2.084-7.645 8.806zm195 6L299.13 76l11.817 2.084-7.645 8.806zM144.124 50.874l-7.797-8.671 11.78-2.29-3.983 10.961zm116.067-2.913l-7.798-8.671 11.78-2.29-3.982 10.961zm111.804 13.707l-2.018-11.486 11.203 4.3-9.185 7.186zm69.053-25.926l-7.645-8.806 11.818-2.084-4.173 10.89zm36.647 39.148L473.523 64l11.818 2.084-7.646 8.806zm-84-55L389.523 9l11.818 2.084-7.646 8.806zm119.823 24.984l-7.798-8.671 11.78-2.29-3.982 10.961zm116.066-2.913l-7.797-8.671 11.78-2.29-3.983 10.961zm43.419 98.597l-2.018-11.486 11.203 4.3-9.185 7.186zm-63.733 26.438l-7.646-8.806 11.818-2.084-4.172 10.89zm26.88-57.148l-4.173-10.89 11.818 2.084-7.646 8.806zm17 73l-4.173-10.89 11.818 2.084-7.646 8.806zm-150 6l-4.173-10.89 11.818 2.084-7.646 8.806zm33.822-31.016l-7.798-8.671 11.78-2.29-3.982 10.961zm-116.067 2.913l-7.798-8.671 11.78-2.29-3.982 10.961zm-181.029 2.403l4.173 10.89-11.818-2.084 7.645-8.806zM266.756 106l7.645 8.806-11.817 2.084 4.172-10.89zm17 73l7.645 8.806-11.817 2.084 4.172-10.89zm-116.178-24.984l3.982 10.961-11.78-2.29 7.798-8.671zm-116.066 2.913l3.981 10.961-11.78-2.29 7.799-8.671zm1342.681-34.707l2.018 11.486-11.203-4.3 9.185-7.186zm-69.053 25.926l7.645 8.806-11.818 2.084 4.173-10.89zM1288.493 109l4.172 10.89-11.818-2.084 7.646-8.806zm-195-6l4.172 10.89-11.818-2.084 7.646-8.806zm159.177 36.016l7.798 8.671-11.78 2.29 3.982-10.961zm-116.066 2.913l7.797 8.671-11.78 2.29 3.983-10.961zM1024.8 128.222l2.018 11.486-11.203-4.3 9.185-7.186zm-69.054 25.926l7.646 8.806-11.818 2.084 4.172-10.89zM919.1 115l4.173 10.89-11.818-2.084 7.645-8.806zm84 55l4.173 10.89-11.818-2.084 7.645-8.806zm-119.822-24.984l7.798 8.671-11.78 2.29 3.982-10.961zm-116.067 2.913l7.798 8.671-11.78 2.29 3.982-10.961zm-43.418 101.403l2.018 11.486-11.203-4.3 9.185-7.186zm63.733-26.438l7.645 8.806-11.817 2.084 4.172-10.89zm-26.88 57.148l4.173 10.89L753 288.848l7.645-8.806zm-17-73l4.173 10.89L736 215.848l7.645-8.806zm150-6l4.173 10.89L886 209.848l7.645-8.806zm-33.822 31.016l7.798 8.671-11.78 2.29 3.982-10.961zm116.067-2.913l7.798 8.671-11.78 2.29 3.982-10.961zm181.028-2.403l-4.172-10.89 11.818 2.084-7.646 8.806zm-26.88 57.148l-7.645-8.806 11.818-2.084-4.172 10.89zm-17-73l-7.645-8.806 11.818-2.084-4.172 10.89zm116.178 24.984l-3.981-10.961 11.78 2.29-7.799 8.671zm116.067-2.913L1341.301 222l11.78 2.29-7.798 8.671zM2.601 267.668L.584 256.182l11.203 4.3-9.186 7.186zm69.054-25.926l-7.645-8.806 11.817-2.084-4.172 10.89zm36.647 39.148L104.13 270l11.817 2.084-7.645 8.806zm195 6L299.13 276l11.817 2.084-7.645 8.806zm-159.178-36.016l-7.797-8.671 11.78-2.29-3.983 10.961zm116.067-2.913l-7.798-8.671 11.78-2.29-3.982 10.961zm111.804 13.707l-2.018-11.486 11.203 4.3-9.185 7.186zm69.053-25.926l-7.645-8.806 11.818-2.084-4.173 10.89zm36.647 39.148L473.523 264l11.818 2.084-7.646 8.806zm-84-55L389.523 209l11.818 2.084-7.646 8.806zm119.823 24.984l-7.798-8.671 11.78-2.29-3.982 10.961zm116.066-2.913l-7.797-8.671 11.78-2.29-3.983 10.961zm43.419 98.597l-2.018-11.486 11.203 4.3-9.185 7.186zm-63.733 26.438l-7.646-8.806 11.818-2.084-4.172 10.89zm26.88-57.148l-4.173-10.89 11.818 2.084-7.646 8.806zm17 73l-4.173-10.89 11.818 2.084-7.646 8.806zm-150 6l-4.173-10.89 11.818 2.084-7.646 8.806zm33.822-31.016l-7.798-8.671 11.78-2.29-3.982 10.961zm-116.067 2.913l-7.798-8.671 11.78-2.29-3.982 10.961zm-181.029 2.403l4.173 10.89-11.818-2.084 7.645-8.806zM266.756 306l7.645 8.806-11.817 2.084 4.172-10.89zm17 73l7.645 8.806-11.817 2.084 4.172-10.89zm-116.178-24.984l3.982 10.961-11.78-2.29 7.798-8.671zm-116.066 2.913l3.981 10.961-11.78-2.29 7.799-8.671zm1342.681-34.707l2.018 11.486-11.203-4.3 9.185-7.186zm-69.053 25.926l7.645 8.806-11.818 2.084 4.173-10.89zM1288.493 309l4.172 10.89-11.818-2.084 7.646-8.806zm-195-6l4.172 10.89-11.818-2.084 7.646-8.806zm159.177 36.016l7.798 8.671-11.78 2.29 3.982-10.961zm-116.066 2.913l7.797 8.671-11.78 2.29 3.983-10.961zM1024.8 328.222l2.018 11.486-11.203-4.3 9.185-7.186zm-69.054 25.926l7.646 8.806-11.818 2.084 4.172-10.89zM919.1 315l4.173 10.89-11.818-2.084 7.645-8.806zm84 55l4.173 10.89-11.818-2.084 7.645-8.806zm-119.822-24.984l7.798 8.671-11.78 2.29 3.982-10.961zm-116.067 2.913l7.798 8.671-11.78 2.29 3.982-10.961z" opacity=".4"/>
</svg>
