<svg width="120" height="120" viewBox="0 0 120 120" fill="none" xmlns="http://www.w3.org/2000/svg">
<path d="M4.2711 110.915C2.93126 110.915 1.59253 110.878 0.255859 110.804L0.421856 107.754C15.5212 108.597 30.886 104.452 43.6842 96.0849C45.134 95.1383 46.5546 94.1316 47.9086 93.0956C50.1151 91.4073 52.3905 89.4683 55.0691 86.9957C56.8605 85.3424 58.653 83.6127 60.3854 81.9409C64.7477 77.7334 69.2597 73.3819 74.257 69.7141C75.7747 68.5995 77.3647 67.5318 78.9803 66.5447C91.1122 59.1167 105.668 55.426 119.969 56.1556L119.817 59.2049C106.111 58.5059 92.1647 62.0404 80.542 69.1568C78.9984 70.1024 77.4795 71.1199 76.0289 72.1867C71.1955 75.7333 66.7589 80.0128 62.4669 84.1527C60.7207 85.8355 58.9163 87.5773 57.1023 89.2524C54.3525 91.7903 52.0092 93.786 49.7271 95.5321C48.3151 96.6129 46.8308 97.6631 45.3195 98.6501C33.1242 106.624 18.6877 110.915 4.27022 110.915L4.2711 110.915Z" fill="white"/>
<path d="M55.2232 89.3751C48.4355 84.5853 40.9108 80.9764 32.8577 78.649C22.3103 75.5963 11.1498 74.9039 0.580654 76.6401L0.0966797 73.6257C11.1021 71.8163 22.7177 72.5383 33.6872 75.7131C42.0615 78.1332 49.8881 81.8858 56.9495 86.87L55.2232 89.3751Z" fill="white"/>
<path d="M39.8757 101.023C28.5212 94.0988 13.867 91.8022 0.677992 94.8786L0 91.9024C13.9351 88.6512 29.4238 91.0845 41.4328 98.4068L39.8757 101.023Z" fill="white"/>
<path d="M56.0848 89.6487C55.7841 89.6487 55.4823 89.5582 55.2214 89.3739C48.4338 84.584 40.9091 80.9752 32.8571 78.6478C32.2146 78.4613 31.7695 77.8724 31.763 77.1962V77.1777C31.7619 77.0392 31.7598 76.8985 31.7598 76.7578C31.7598 62.4828 43.2373 50.87 57.346 50.87C62.5867 50.87 67.626 52.4623 71.9172 55.4767C76.1082 58.4203 79.3072 62.5046 81.1668 67.2911C81.4352 67.9826 81.1733 68.7711 80.5438 69.155C79.0002 70.1005 77.4814 71.118 76.0316 72.1848C71.1981 75.7314 66.7615 80.0109 62.4695 84.1508C60.7233 85.8347 58.919 87.5754 57.1049 89.2506C56.8171 89.5145 56.4517 89.6486 56.0852 89.6486L56.0848 89.6487ZM34.7886 76.0402C42.3566 78.3458 49.4644 81.7506 55.949 86.1753C57.4463 84.7749 58.937 83.3364 60.3857 81.9382C64.748 77.7307 69.26 73.3792 74.2573 69.7114C75.4258 68.8531 76.6352 68.0243 77.8672 67.2379C74.1958 59.1075 66.2712 53.9228 57.3472 53.9228C45.139 53.9239 35.1639 63.7809 34.7889 76.0404L34.7886 76.0402Z" fill="white"/>
<path d="M25.4662 64.2476H6.15022C5.66409 64.2476 5.20704 64.0109 4.92357 63.6107C4.64009 63.2105 4.56462 62.6979 4.71984 62.23L14.3778 33.3724C14.5859 32.7529 15.1615 32.3353 15.8072 32.3353C16.4528 32.3353 17.0295 32.7519 17.2365 33.3724L26.8945 62.23C27.0497 62.6957 26.9742 63.2105 26.6907 63.6107C26.4094 64.011 25.9534 64.2476 25.4662 64.2476ZM8.25539 61.1938H23.3622L15.8082 38.6237L8.25539 61.1938Z" fill="white"/>
<path d="M14.2988 54.325H17.3171V75.3584H14.2988V54.325Z" fill="white"/>
<path d="M113.142 48.5513H93.826C93.3399 48.5513 92.8828 48.3146 92.5993 47.9144C92.3159 47.5141 92.2404 47.0015 92.3956 46.5336L102.054 17.6761C102.262 17.0566 102.837 16.6389 103.483 16.6389C104.129 16.6389 104.705 17.0555 104.912 17.6761L114.57 46.5336C114.725 46.9993 114.65 47.5141 114.367 47.9144C114.085 48.3124 113.629 48.5513 113.142 48.5513ZM95.9312 45.4974H111.038L103.484 22.9273L95.9312 45.4974Z" fill="white"/>
<path d="M101.975 38.6259H104.993V59.6593H101.975V38.6259Z" fill="white"/>
<path d="M19.1058 8.61692C18.8341 7.80332 18.4385 7.041 17.9287 6.34846L20.3497 4.52386C21.0503 5.47377 21.5936 6.52295 21.9655 7.63968L19.1058 8.61692Z" fill="white"/>
<path d="M29.2936 15.3382H2.17584C1.4957 15.3382 0.900684 14.8791 0.71961 14.2149C0.458759 13.2498 0.326172 12.2486 0.326172 11.2387C0.326172 5.04086 5.30943 0 11.434 0C14.4812 0 17.4087 1.29019 19.4923 3.50418C20.5627 3.01885 21.7247 2.76693 22.9135 2.76693C27.5311 2.76693 31.2878 6.56761 31.2878 11.2399C31.2878 12.324 31.0884 13.3808 30.695 14.3786C30.4665 14.9578 29.9112 15.3382 29.2936 15.3382ZM3.40986 12.2844H28.1702C28.2371 11.9419 28.2694 11.593 28.2694 11.2385C28.2694 8.25029 25.8668 5.81934 22.9133 5.81934C21.8602 5.81934 20.8416 6.12799 19.9663 6.71254C19.299 7.15861 18.4044 6.99936 17.9258 6.35045C16.3801 4.25431 14.014 3.05261 11.4337 3.05261C6.97336 3.05261 3.34416 6.72458 3.34416 11.2375C3.34523 11.5897 3.36674 11.9387 3.40986 12.2844Z" fill="white"/>
<path d="M61.2725 25.3613H74.3259V28.4152H61.2725V25.3613Z" fill="white"/>
<path d="M77.4951 25.3613H80.815V28.4152H77.4951V25.3613Z" fill="white"/>
<circle cx="96" cy="96" r="24" fill="#34CE76"/>
<path fill-rule="evenodd" clip-rule="evenodd" d="M108.656 86.5234C108.975 86.8296 108.985 87.3361 108.679 87.6546L91.0711 105.966C90.7606 106.289 90.2455 106.294 89.9288 105.978L81.9817 98.0305C81.6693 97.7181 81.6693 97.2115 81.9817 96.8991L83.78 95.1008C84.0924 94.7884 84.5989 94.7884 84.9114 95.1008L90.4476 100.637L105.692 84.7829C105.998 84.4644 106.505 84.4545 106.823 84.7607L108.656 86.5234Z" fill="#FCFCFC"/>
</svg>
