<svg width="86" height="86" viewBox="0 0 86 86" fill="none" xmlns="http://www.w3.org/2000/svg">
<path d="M3.0607 79.4891C2.10048 79.4891 1.14105 79.4625 0.183105 79.4093L0.30207 77.224C11.1233 77.8281 22.1347 74.8573 31.3067 68.8608C32.3458 68.1824 33.3638 67.461 34.3342 66.7185C35.9155 65.5085 37.5462 64.1189 39.4659 62.3469C40.7498 61.162 42.0344 59.9224 43.2759 58.7243C46.4023 55.7089 49.6359 52.5903 53.2173 49.9618C54.305 49.163 55.4444 48.3978 56.6023 47.6903C65.2968 42.367 75.7286 39.722 85.9775 40.2448L85.8685 42.4302C76.0462 41.9292 66.0511 44.4623 57.7215 49.5624C56.6153 50.24 55.5267 50.9692 54.4871 51.7337C51.0232 54.2755 47.8436 57.3425 44.7677 60.3094C43.5162 61.5154 42.2231 62.7637 40.923 63.9642C38.9524 65.783 37.273 67.2133 35.6375 68.4646C34.6255 69.2392 33.5618 69.9919 32.4787 70.6992C23.7387 76.4136 13.3926 79.4892 3.06006 79.4892L3.0607 79.4891Z" fill="white"/>
<path d="M31.8386 86L30.9943 83.9859C38.3114 80.8463 44.4621 75.6392 50.4095 70.6033C52.3028 69.0003 54.2604 67.3416 56.2333 65.7699C67.0135 57.1755 76.7508 53.3222 86 53.9905L85.8462 56.1734C77.1587 55.545 67.9097 59.2474 57.5706 67.4887C55.6239 69.0402 53.678 70.6885 51.7963 72.2815C45.7269 77.419 39.451 82.7337 31.8364 86H31.8386Z" fill="white"/>
<path d="M39.577 64.0522C34.7125 60.6194 29.3198 58.0331 23.5484 56.3651C15.9894 54.1773 7.99106 53.6811 0.416489 54.9254L0.0696411 52.765C7.95687 51.4684 16.2813 51.9858 24.1429 54.261C30.1445 55.9954 35.7535 58.6848 40.8142 62.2568L39.577 64.0522Z" fill="white"/>
<path d="M28.5776 72.3999C20.4402 67.4375 9.93799 65.7915 0.485894 67.9963L0 65.8634C9.98684 63.5333 21.0871 65.2772 29.6935 70.5249L28.5776 72.3999Z" fill="white"/>
<path d="M40.1939 64.2482C39.9784 64.2482 39.7621 64.1834 39.5752 64.0513C34.7107 60.6185 29.318 58.0322 23.5474 56.3642C23.087 56.2306 22.7679 55.8085 22.7633 55.3239V55.3106C22.7625 55.2114 22.761 55.1105 22.761 55.0097C22.761 44.7793 30.9866 36.4568 41.0978 36.4568C44.8536 36.4568 48.4651 37.5979 51.5405 39.7583C54.544 41.8678 56.8367 44.795 58.1694 48.2253C58.3617 48.7208 58.174 49.2859 57.7229 49.561C56.6166 50.2387 55.5281 50.9679 54.4891 51.7324C51.0252 54.2742 47.8456 57.3411 44.7696 60.3081C43.5182 61.5148 42.2251 62.7624 40.925 63.9629C40.7187 64.152 40.4569 64.2482 40.1942 64.2482L40.1939 64.2482ZM24.9317 54.4955C30.3554 56.1478 35.4493 58.5879 40.0966 61.7589C41.1696 60.7554 42.238 59.7244 43.2762 58.7224C46.4026 55.707 49.6361 52.5884 53.2176 49.9598C54.055 49.3447 54.9217 48.7507 55.8046 48.1872C53.1735 42.3604 47.4942 38.6447 41.0987 38.6447C32.3494 38.6455 25.2006 45.7097 24.9319 54.4956L24.9317 54.4955Z" fill="white"/>
<path d="M18.2506 46.0441H4.40743C4.05904 46.0441 3.73149 45.8745 3.52834 45.5877C3.32518 45.3008 3.27109 44.9335 3.38233 44.5982L10.3039 23.9169C10.453 23.4729 10.8655 23.1736 11.3282 23.1736C11.791 23.1736 12.2043 23.4722 12.3526 23.9169L19.2741 44.5982C19.3854 44.9319 19.3313 45.3008 19.1281 45.5877C18.9265 45.8745 18.5997 46.0441 18.2506 46.0441ZM5.91614 43.8555H16.7427L11.329 27.6803L5.91614 43.8555Z" fill="white"/>
<path d="M10.2473 38.9329H12.4103V54.0069H10.2473V38.9329Z" fill="white"/>
<path d="M81.0846 34.7951H67.2415C66.8931 34.7951 66.5655 34.6255 66.3624 34.3386C66.1592 34.0518 66.1051 33.6844 66.2164 33.3491L73.138 12.6679C73.287 12.2239 73.6996 11.9246 74.1623 11.9246C74.625 11.9246 75.0383 12.2231 75.1866 12.6679L82.1082 33.3491C82.2194 33.6829 82.1654 34.0518 81.9622 34.3386C81.7606 34.6239 81.4338 34.7951 81.0846 34.7951ZM68.7502 32.6065H79.5767L74.1631 16.4312L68.7502 32.6065Z" fill="white"/>
<path d="M73.0813 27.6819H75.2444V42.7558H73.0813V27.6819Z" fill="white"/>
<path d="M13.6923 6.17542C13.4976 5.59234 13.2141 5.04601 12.8487 4.54969L14.5837 3.24207C15.0858 3.92283 15.4752 4.67475 15.7417 5.47506L13.6923 6.17542Z" fill="white"/>
<path d="M20.9935 10.9924H1.55912C1.07168 10.9924 0.645254 10.6634 0.515485 10.1874C0.328541 9.49566 0.233521 8.77813 0.233521 8.05441C0.233521 3.61262 3.80485 0 8.19412 0C10.378 0 12.476 0.924635 13.9693 2.51133C14.7364 2.16351 15.5691 1.98297 16.4211 1.98297C19.7304 1.98297 22.4227 4.70679 22.4227 8.05529C22.4227 8.8322 22.2798 9.58958 21.9978 10.3047C21.8341 10.7197 21.4361 10.9924 20.9935 10.9924ZM2.4435 8.80383H20.1884C20.2363 8.5584 20.2595 8.30828 20.2595 8.05427C20.2595 5.91271 18.5376 4.17053 16.421 4.17053C15.6663 4.17053 14.9363 4.39173 14.3089 4.81066C13.8307 5.13034 13.1896 5.01621 12.8466 4.55116C11.7388 3.04893 10.0432 2.1877 8.19391 2.1877C4.99734 2.1877 2.39641 4.81928 2.39641 8.05353C2.39718 8.30598 2.4126 8.55605 2.4435 8.80383Z" fill="white"/>
<path d="M59.8868 85.7679L58.3619 84.2149C62.1424 80.4132 66.0513 76.4832 70.5913 73.4891C75.7546 70.0851 81.0771 68.4414 85.9886 68.7393L85.8596 70.9231C81.4154 70.6542 76.5448 72.1752 71.7732 75.3219C67.4194 78.195 63.5892 82.0458 59.8868 85.7679Z" fill="white"/>
<path d="M43.9118 18.1756H53.2668V20.3642H43.9118V18.1756Z" fill="white"/>
<path d="M55.5381 18.1756H57.9173V20.3642H55.5381V18.1756Z" fill="white"/>
</svg>
