<svg width="120" height="120" viewBox="0 0 120 120" fill="none" xmlns="http://www.w3.org/2000/svg">
<path d="M4.27062 110.915C2.93077 110.915 1.59204 110.878 0.255371 110.803L0.421368 107.754C15.5207 108.597 30.8855 104.452 43.6837 96.0845C45.1335 95.1378 46.5541 94.1312 47.9081 93.0951C50.1146 91.4069 52.39 89.4678 55.0686 86.9953C56.86 85.3419 58.6525 83.6123 60.3849 81.9405C64.7473 77.733 69.2592 73.3815 74.2565 69.7137C75.7742 68.5991 77.3642 67.5314 78.9799 66.5443C91.1117 59.1163 105.668 55.4256 119.968 56.1551L119.816 59.2045C106.111 58.5054 92.1642 62.04 80.5415 69.1564C78.9979 70.102 77.4791 71.1195 76.0284 72.1862C71.195 75.7328 66.7584 80.0123 62.4664 84.1522C60.7202 85.835 58.9158 87.5768 57.1018 89.252C54.3521 91.7898 52.0087 93.7856 49.7266 95.5317C48.3146 96.6125 46.8303 97.6627 45.319 98.6497C33.1237 106.623 18.6872 110.915 4.26973 110.915L4.27062 110.915Z" fill="white"/>
<path d="M55.2236 89.3754C48.436 84.5855 40.9113 80.9766 32.8582 78.6493C22.3108 75.5965 11.1503 74.9041 0.581142 76.6404L0.097168 73.6259C11.1026 71.8166 22.7181 72.5386 33.6877 75.7133C42.062 78.1334 49.8886 81.8861 56.95 86.8702L55.2236 89.3754Z" fill="white"/>
<path d="M39.8757 101.023C28.5212 94.0985 13.867 91.8019 0.677992 94.8783L0 91.9021C13.9351 88.6509 29.4238 91.0842 41.4328 98.4065L39.8757 101.023Z" fill="white"/>
<path d="M56.0843 89.6479C55.7836 89.6479 55.4818 89.5574 55.2209 89.373C48.4333 84.5832 40.9086 80.9743 32.8566 78.6469C32.2141 78.4604 31.769 77.8715 31.7625 77.1953V77.1768C31.7614 77.0383 31.7593 76.8976 31.7593 76.7569C31.7593 62.482 43.2368 50.8691 57.3455 50.8691C62.5862 50.8691 67.6255 52.4614 71.9167 55.4759C76.1077 58.4194 79.3067 62.5038 81.1663 67.2903C81.4347 67.9817 81.1728 68.7702 80.5433 69.1541C78.9997 70.0997 77.4809 71.1172 76.0311 72.1839C71.1977 75.7306 66.761 80.01 62.469 84.1499C60.7228 85.8338 58.9185 87.5746 57.1044 89.2497C56.8166 89.5136 56.4512 89.6478 56.0847 89.6478L56.0843 89.6479ZM34.7881 76.0394C42.3562 78.3449 49.4639 81.7497 55.9486 86.1744C57.4458 84.7741 58.9365 83.3356 60.3852 81.9374C64.7476 77.7299 69.2595 73.3784 74.2568 69.7106C75.4253 68.8523 76.6347 68.0234 77.8667 67.2371C74.1953 59.1066 66.2708 53.922 57.3468 53.922C45.1385 53.9231 35.1634 63.7801 34.7884 76.0395L34.7881 76.0394Z" fill="white"/>
<path d="M25.4657 64.2483H6.14973C5.6636 64.2483 5.20655 64.0116 4.92308 63.6114C4.6396 63.2111 4.56413 62.6985 4.71935 62.2307L14.3774 33.3731C14.5854 32.7536 15.161 32.3359 15.8067 32.3359C16.4523 32.3359 17.029 32.7526 17.236 33.3731L26.894 62.2307C27.0492 62.6964 26.9737 63.2111 26.6902 63.6114C26.4089 64.0116 25.9529 64.2483 25.4657 64.2483ZM8.2549 61.1944H23.3617L15.8077 38.6243L8.2549 61.1944Z" fill="white"/>
<path d="M14.2983 54.3242H17.3166V75.3576H14.2983V54.3242Z" fill="white"/>
<path d="M113.142 48.551H93.8255C93.3394 48.551 92.8823 48.3143 92.5989 47.9141C92.3154 47.5139 92.2399 47.0013 92.3951 46.5334L102.053 17.6758C102.261 17.0563 102.837 16.6387 103.482 16.6387C104.128 16.6387 104.705 17.0553 104.912 17.6758L114.57 46.5334C114.725 46.9991 114.65 47.5139 114.366 47.9141C114.085 48.3122 113.629 48.551 113.142 48.551ZM95.9307 45.4972H111.037L103.484 22.9271L95.9307 45.4972Z" fill="white"/>
<path d="M101.974 38.625H104.992V59.6584H101.974V38.625Z" fill="white"/>
<path d="M19.1053 8.61649C18.8337 7.80289 18.4381 7.04058 17.9282 6.34803L20.3492 4.52344C21.0498 5.47334 21.5931 6.52253 21.965 7.63925L19.1053 8.61649Z" fill="white"/>
<path d="M29.2931 15.3382H2.17536C1.49521 15.3382 0.900196 14.8791 0.719122 14.2149C0.45827 13.2498 0.325684 12.2486 0.325684 11.2387C0.325684 5.04086 5.30894 0 11.4335 0C14.4807 0 17.4082 1.29019 19.4919 3.50418C20.5622 3.01885 21.7242 2.76693 22.913 2.76693C27.5306 2.76693 31.2873 6.56761 31.2873 11.2399C31.2873 12.324 31.0879 13.3808 30.6945 14.3786C30.466 14.9578 29.9107 15.3382 29.2931 15.3382ZM3.40937 12.2844H28.1697C28.2366 11.9419 28.2689 11.593 28.2689 11.2385C28.2689 8.25029 25.8663 5.81934 22.9129 5.81934C21.8597 5.81934 20.8411 6.12799 19.9658 6.71254C19.2986 7.15861 18.4039 6.99936 17.9253 6.35045C16.3796 4.25431 14.0136 3.05261 11.4332 3.05261C6.97287 3.05261 3.34367 6.72458 3.34367 11.2375C3.34474 11.5897 3.36626 11.9387 3.40937 12.2844Z" fill="white"/>
<path d="M61.2725 25.3613H74.3259V28.4152H61.2725V25.3613Z" fill="white"/>
<path d="M77.4951 25.3613H80.815V28.4152H77.4951V25.3613Z" fill="white"/>
<circle cx="95.9999" cy="95.9999" r="20.4179" fill="#FF2D55"/>
<path fill-rule="evenodd" clip-rule="evenodd" d="M102.201 89.8816C102.77 90.4499 102.769 91.3709 102.2 91.9386L91.9846 102.12C91.4149 102.688 90.4918 102.687 89.9226 102.119C89.3535 101.551 89.354 100.63 89.9236 100.062L100.139 89.8806C100.708 89.3129 101.631 89.3133 102.201 89.8816Z" fill="white"/>
<path fill-rule="evenodd" clip-rule="evenodd" d="M102.201 102.119C101.631 102.688 100.708 102.688 100.139 102.12L89.9236 91.939C89.354 91.3712 89.3535 90.4503 89.9227 89.882C90.4918 89.3137 91.4149 89.3132 91.9846 89.881L102.2 100.062C102.769 100.63 102.77 101.551 102.201 102.119Z" fill="white"/>
</svg>
