<svg width="54" height="56" viewBox="0 0 54 56" fill="none" xmlns="http://www.w3.org/2000/svg">
<path fill-rule="evenodd" clip-rule="evenodd" d="M36.6462 5.04281L35.0594 4.45751C33.7751 3.98372 32.7627 2.97104 32.2892 1.68628L31.7039 0.0994373C31.682 0.039624 31.6251 0 31.5615 0C31.4979 0 31.441 0.039624 31.4191 0.0992486L30.834 1.68591C30.3603 2.97067 29.3478 3.98353 28.0634 4.45732L26.4767 5.04262C26.417 5.06451 26.3774 5.12149 26.3774 5.18508C26.3774 5.24867 26.417 5.30565 26.4767 5.32754L28.0632 5.91303C29.3478 6.38682 30.3603 7.39968 30.834 8.68463L31.4191 10.2715C31.441 10.3311 31.4979 10.3707 31.5615 10.3707C31.6251 10.3707 31.682 10.3311 31.7039 10.2715L32.2892 8.68444C32.7629 7.39949 33.7753 6.38682 35.0598 5.91322L36.6464 5.32773C36.706 5.30584 36.7456 5.24886 36.7456 5.18527C36.7456 5.12168 36.706 5.0647 36.6462 5.04281ZM10.6351 24.2469L9.40068 20.899C8.40151 18.1885 6.26567 16.0522 3.55621 15.053L0.209378 13.8182C0.0835624 13.7718 0 13.6518 0 13.5176C0 13.3835 0.0835624 13.2635 0.209378 13.217L3.5564 11.9823C6.26586 10.9828 8.40151 8.84652 9.40068 6.13643L10.6351 2.78858C10.6815 2.66273 10.8014 2.57914 10.9355 2.57914C11.0697 2.57914 11.1896 2.66273 11.236 2.78858L12.4704 6.13643C13.4694 8.84652 15.6052 10.9828 18.3145 11.9823L21.6615 13.217C21.7873 13.2635 21.8709 13.3835 21.8709 13.5176C21.8709 13.6518 21.7873 13.7718 21.6615 13.8182L18.3147 15.053C15.6054 16.0522 13.4696 18.1887 12.4704 20.899L11.236 24.2469C11.1896 24.3729 11.0697 24.4565 10.9355 24.4565C10.8014 24.4565 10.6815 24.3729 10.6351 24.2469ZM33.1892 33.8049L36.5358 35.0395C36.6616 35.0859 36.7454 35.2059 36.7454 35.3401C36.7454 35.4742 36.6618 35.5942 36.536 35.6406L33.189 36.8756C30.4797 37.8749 28.3441 40.0113 27.3449 42.7214L26.1105 46.0695C26.0641 46.1953 25.9442 46.2789 25.81 46.2789C25.6759 46.2789 25.556 46.1953 25.5096 46.0695L24.2752 42.7214C23.276 40.0113 21.1404 37.875 18.4311 36.8756L15.0841 35.6406C14.9582 35.5942 14.8747 35.4742 14.8747 35.3401C14.8747 35.2059 14.9582 35.0859 15.0841 35.0395L18.4309 33.8049C21.1402 32.8054 23.276 30.6691 24.2752 27.9589L25.5096 24.6112C25.556 24.4854 25.6759 24.4018 25.81 24.4018C25.9442 24.4018 26.0641 24.4854 26.1105 24.6112L27.3449 27.9591C28.3439 30.6691 30.4797 32.8054 33.1892 33.8049ZM53.8576 20.7198L51.5829 19.8807C49.7417 19.2014 48.2902 17.7495 47.6112 15.9077L46.7723 13.6325C46.7406 13.5471 46.6591 13.4901 46.568 13.4901C46.4769 13.4901 46.3954 13.5471 46.3638 13.6325L45.5251 15.9075C44.8461 17.7495 43.3946 19.2014 41.5532 19.8807L39.2787 20.7198C39.1932 20.7513 39.1363 20.8328 39.1363 20.9239C39.1363 21.015 39.1932 21.0967 39.2787 21.1283L41.5534 21.9672C43.3946 22.6466 44.8461 24.0985 45.5251 25.9403L46.3638 28.2159C46.3954 28.3013 46.4769 28.3583 46.568 28.3583C46.6591 28.3583 46.7406 28.3013 46.7723 28.2159L47.6112 25.9403C48.2902 24.0984 49.7415 22.6466 51.5829 21.9673L53.8576 21.1283C53.943 21.0967 54 21.015 54 20.9239C54 20.8328 53.943 20.7513 53.8576 20.7198ZM46.7608 50.0864L48.3476 50.6719C48.4074 50.6938 48.447 50.7508 48.447 50.8144C48.447 50.8779 48.4074 50.9349 48.3477 50.9568L46.7612 51.5423C45.4766 52.0161 44.4643 53.029 43.9906 54.3137L43.4053 55.9007C43.3834 55.9604 43.3265 56 43.2629 56C43.1993 56 43.1424 55.9604 43.1205 55.9007L42.5352 54.3137C42.0615 53.029 41.0491 52.0161 39.7646 51.5423L38.178 50.9568C38.1184 50.9349 38.0788 50.8779 38.0788 50.8144C38.0788 50.7508 38.1184 50.6938 38.178 50.6719L39.7648 50.0864C41.049 49.6128 42.0613 48.6001 42.535 47.3154L43.1203 45.7285C43.1422 45.6689 43.1991 45.6293 43.2627 45.6293C43.3263 45.6293 43.3832 45.6689 43.4051 45.7285L43.9904 47.3154C44.4641 48.5999 45.4764 49.6126 46.7608 50.0864ZM15.1889 46.6733L17.1846 47.4091C17.2599 47.4367 17.3095 47.5084 17.3095 47.5884C17.3095 47.6684 17.2597 47.7401 17.1846 47.7676L15.1887 48.5039C13.5731 49.1 12.2997 50.3738 11.704 51.9897L10.968 53.9862C10.9405 54.0613 10.8688 54.1111 10.7888 54.1111C10.7088 54.1111 10.6373 54.0613 10.6096 53.9862L9.87376 51.9899C9.27788 50.3738 8.00426 49.0998 6.38885 48.5039L4.39335 47.7676C4.31827 47.7401 4.26847 47.6684 4.26847 47.5884C4.26847 47.5084 4.31808 47.4367 4.39335 47.4091L6.38866 46.6733C8.00445 46.0772 9.27807 44.8032 9.87376 43.1871L10.6096 41.191C10.6373 41.1161 10.7088 41.0661 10.7888 41.0661C10.8688 41.0661 10.9403 41.1161 10.968 41.191L11.7038 43.1873C12.2999 44.8034 13.5735 46.0774 15.1889 46.6733Z" fill="#736E7D"/>
</svg>
