<svg width="14" height="15" viewBox="0 0 14 15" fill="none" xmlns="http://www.w3.org/2000/svg">
<path d="M13.8659 6.80947L11.7236 6.01919C9.98918 5.37941 8.62198 4.01191 7.98251 2.27711L7.19235 0.134068C7.16264 0.0535066 7.08585 0 7 0C6.91415 0 6.83736 0.0535066 6.80765 0.134068L6.01749 2.27699C5.3779 4.01191 4.01069 5.37941 2.27642 6.01919L0.134028 6.80947C0.0534904 6.83918 0 6.916 0 7.00188C0 7.08775 0.0534904 7.16457 0.134028 7.19428L2.27654 7.98481C4.01082 8.62459 5.3779 9.99209 6.01749 11.7269L6.80765 13.87C6.83736 13.9506 6.91415 14.0041 7 14.0041C7.08585 14.0041 7.16264 13.9506 7.19235 13.87L7.98251 11.7269C8.6221 9.99209 9.98918 8.62447 11.7235 7.98481L13.866 7.19428C13.9465 7.16457 14 7.08775 14 7.00188C14 6.916 13.9464 6.83918 13.8659 6.80947Z" fill="#FF2D55"/>
</svg>
