<svg width="30" height="30" viewBox="0 0 30 30" fill="none" xmlns="http://www.w3.org/2000/svg">
<path fill-rule="evenodd" clip-rule="evenodd" d="M20.359 2.7015L19.4775 2.38795C18.7639 2.13413 18.2015 1.59163 17.9385 0.903365L17.6133 0.05327C17.6011 0.0212271 17.5695 0 17.5342 0C17.4989 0 17.4672 0.0212271 17.4551 0.0531689L17.13 0.903163C16.8669 1.59143 16.3043 2.13403 15.5908 2.38785L14.7093 2.7014C14.6762 2.71313 14.6541 2.74366 14.6541 2.77772C14.6541 2.81178 14.6762 2.84231 14.7093 2.85404L15.5907 3.16769C16.3043 3.42151 16.8669 3.96411 17.13 4.65248L17.4551 5.50257C17.4672 5.53452 17.4989 5.55574 17.5342 5.55574C17.5695 5.55574 17.6011 5.53452 17.6133 5.50257L17.9385 4.65238C18.2016 3.96401 18.764 3.42151 19.4777 3.16779L20.3591 2.85414C20.3922 2.84241 20.4142 2.81189 20.4142 2.77782C20.4142 2.74376 20.3922 2.71323 20.359 2.7015ZM5.90836 12.9893L5.2226 11.1958C4.6675 9.74381 3.48093 8.59936 1.97567 8.06404L0.116321 7.40256C0.0464235 7.37769 0 7.3134 0 7.24154C0 7.16967 0.0464235 7.10538 0.116321 7.08051L1.97578 6.41904C3.48103 5.88361 4.6675 4.73916 5.2226 3.28733L5.90836 1.49384C5.93414 1.42642 6.00079 1.38164 6.0753 1.38164C6.14981 1.38164 6.21646 1.42642 6.24224 1.49384L6.928 3.28733C7.48299 4.73916 8.66957 5.88361 10.1747 6.41904L12.0342 7.08051C12.1041 7.10538 12.1505 7.16967 12.1505 7.24154C12.1505 7.3134 12.1041 7.37769 12.0342 7.40256L10.1748 8.06404C8.66967 8.59936 7.4831 9.74391 6.928 11.1958L6.24224 12.9893C6.21646 13.0569 6.14981 13.1016 6.0753 13.1016C6.00079 13.1016 5.93414 13.0569 5.90836 12.9893ZM18.4384 18.1098L20.2977 18.7712C20.3676 18.7961 20.4141 18.8604 20.4141 18.9322C20.4141 19.0041 20.3677 19.0684 20.2978 19.0933L18.4383 19.7548C16.9332 20.2902 15.7467 21.4347 15.1916 22.8865L14.5058 24.6801C14.4801 24.7476 14.4134 24.7923 14.3389 24.7923C14.2644 24.7923 14.1977 24.7476 14.172 24.6801L13.4862 22.8865C12.9311 21.4347 11.7446 20.2903 10.2395 19.7548L8.38003 19.0933C8.31013 19.0684 8.26371 19.0041 8.26371 18.9322C8.26371 18.8604 8.31013 18.7961 8.38003 18.7712L10.2394 18.1098C11.7445 17.5744 12.9311 16.43 13.4862 14.978L14.172 13.1846C14.1977 13.1172 14.2644 13.0724 14.3389 13.0724C14.4134 13.0724 14.4801 13.1172 14.5058 13.1846L15.1916 14.9781C15.7466 16.43 16.9332 17.5744 18.4384 18.1098ZM29.9209 11.0998L28.6572 10.6503C27.6343 10.2864 26.8279 9.50861 26.4506 8.52195L25.9846 7.30311C25.967 7.25732 25.9217 7.2268 25.8711 7.2268C25.8205 7.2268 25.7752 7.25732 25.7576 7.30311L25.2917 8.52185C24.9145 9.50861 24.1081 10.2864 23.0851 10.6503L21.8215 11.0998C21.774 11.1167 21.7424 11.1604 21.7424 11.2092C21.7424 11.258 21.774 11.3018 21.8215 11.3187L23.0852 11.7681C24.1081 12.1321 24.9145 12.9099 25.2917 13.8966L25.7576 15.1156C25.7752 15.1614 25.8205 15.1919 25.8711 15.1919C25.9217 15.1919 25.967 15.1614 25.9846 15.1156L26.4506 13.8966C26.8279 12.9098 27.6342 12.1321 28.6572 11.7682L29.9209 11.3187C29.9683 11.3018 30 11.258 30 11.2092C30 11.1604 29.9683 11.1167 29.9209 11.0998ZM25.9782 26.832L26.8597 27.1457C26.8929 27.1574 26.915 27.1879 26.915 27.222C26.915 27.256 26.8929 27.2866 26.8598 27.2983L25.9784 27.6119C25.2648 27.8658 24.7023 28.4084 24.4392 29.0966L24.114 29.9468C24.1019 29.9788 24.0702 30 24.0349 30C23.9996 30 23.968 29.9788 23.9558 29.9468L23.6306 29.0966C23.3675 28.4084 22.8051 27.8658 22.0914 27.6119L21.21 27.2983C21.1769 27.2866 21.1549 27.256 21.1549 27.222C21.1549 27.1879 21.1769 27.1574 21.21 27.1457L22.0915 26.832C22.805 26.5783 23.3674 26.0358 23.6305 25.3475L23.9557 24.4974C23.9678 24.4655 23.9995 24.4443 24.0348 24.4443C24.0701 24.4443 24.1018 24.4655 24.1139 24.4974L24.4391 25.3475C24.7022 26.0357 25.2647 26.5782 25.9782 26.832ZM8.43829 25.0035L9.54701 25.3977C9.58882 25.4125 9.61638 25.4509 9.61638 25.4938C9.61638 25.5366 9.58872 25.575 9.54701 25.5898L8.43819 25.9842C7.54063 26.3035 6.83317 26.9859 6.50223 27.8516L6.09333 28.9211C6.07803 28.9614 6.03821 28.9881 5.99377 28.9881C5.94934 28.9881 5.90963 28.9614 5.89422 28.9211L5.48542 27.8517C5.15438 26.9859 4.44681 26.3034 3.54936 25.9842L2.44075 25.5898C2.39904 25.575 2.37138 25.5366 2.37138 25.4938C2.37138 25.4509 2.39894 25.4125 2.44075 25.3977L3.54926 25.0035C4.44692 24.6842 5.15448 24.0017 5.48542 23.1359L5.89422 22.0666C5.90963 22.0265 5.94934 21.9997 5.99377 21.9997C6.03821 21.9997 6.07792 22.0265 6.09333 22.0666L6.50213 23.136C6.83328 24.0018 7.54084 24.6843 8.43829 25.0035Z" fill="#FF2D55"/>
</svg>
