<svg width="12" height="12" viewBox="0 0 12 12" fill="none" xmlns="http://www.w3.org/2000/svg">
<path fill-rule="evenodd" clip-rule="evenodd" d="M5.92 0L0 5.92V7.80666L7.80666 0H5.92ZM1.33334 0C0.6 0 0 0.6 0 1.33334V2.67L2.67 0H1.33334ZM6.08 12H4.19334L12 4.19334V6.08L6.08 12ZM11.0067 0.05L0.05 11.0067C0.11 11.2367 0.226656 11.4433 0.39 11.6067L0.393344 11.61C0.556688 11.7733 0.763344 11.89 0.993344 11.95L11.95 0.993344C11.8267 0.533344 11.4667 0.173344 11.0067 0.05ZM11.6067 11.61C11.3667 11.85 11.0333 12 10.6667 12H9.33L12 9.33V10.6667C12 11.0333 11.85 11.3667 11.6067 11.61Z" fill="#736E7D"/>
</svg>
