<svg width="48" height="48" viewBox="0 0 48 48" fill="none" xmlns="http://www.w3.org/2000/svg">
<rect width="48" height="48" rx="24" fill="#242129"/>
<path fill-rule="evenodd" clip-rule="evenodd" d="M20.9395 24.375C20.8612 24.481 20.7309 24.5417 20.5989 24.5417C20.5023 24.5417 20.4041 24.5086 20.3145 24.4459L14.2202 20.1759C14.0799 20.0776 14 19.9299 14 19.7707C14 19.6115 14.0817 19.4638 14.222 19.3655L20.3188 15.0959C20.4084 15.0332 20.5118 15 20.6084 15C20.8181 15 21.0402 15.1593 21.0402 15.4637V18.0513H32.7371C33.0518 18.0513 33.2776 18.3291 33.2776 18.6437V20.8986C33.2776 21.2132 33.0518 21.4752 32.7371 21.4752H21.0402V24.078C21.0402 24.1917 20.999 24.2944 20.9395 24.375ZM27.6837 24.0846L33.7783 28.3545C33.9186 28.4527 34 28.5996 34 28.7588C34 28.918 33.9201 29.0647 33.7798 29.163L27.687 33.4306C27.5983 33.4928 27.5037 33.5221 27.4081 33.5226C27.1994 33.5213 27.0003 33.3698 27.0003 33.0668V30.4791H15.2609C14.9462 30.4791 14.6995 30.2013 14.6995 29.8867V27.6318C14.6995 27.3172 14.9462 27.0552 15.2609 27.0552H27.0003V24.4523C27.0003 24.1479 27.2009 23.9886 27.4106 23.9886C27.5073 23.9886 27.5941 24.0218 27.6837 24.0846ZM27.4081 33.5226C27.4071 33.5226 27.4061 33.5226 27.4052 33.5226H27.4108C27.4099 33.5226 27.409 33.5226 27.4081 33.5226Z" fill="white"/>
</svg>
