<svg width="48" height="48" viewBox="0 0 48 48" fill="none" xmlns="http://www.w3.org/2000/svg">
<g clip-path="url(#clip0_6709_15241)">
<path d="M20 32.0004H28C29.1 32.0004 30 31.1004 30 30.0004V20.0004H33.18C34.96 20.0004 35.86 17.8404 34.6 16.5804L25.42 7.40043C24.64 6.62043 23.38 6.62043 22.6 7.40043L13.42 16.5804C12.16 17.8404 13.04 20.0004 14.82 20.0004H18V30.0004C18 31.1004 18.9 32.0004 20 32.0004ZM12 36.0004H36C37.1 36.0004 38 36.9004 38 38.0004C38 39.1004 37.1 40.0004 36 40.0004H12C10.9 40.0004 10 39.1004 10 38.0004C10 36.9004 10.9 36.0004 12 36.0004Z" fill="white"/>
</g>
<defs>
<clipPath id="clip0_6709_15241">
<rect width="48" height="48" fill="white"/>
</clipPath>
</defs>
</svg>
