<svg width="19" height="18" viewBox="0 0 19 18" fill="none" xmlns="http://www.w3.org/2000/svg">
<path fill-rule="evenodd" clip-rule="evenodd" d="M4.25 3H14.75C15.1625 3 15.5 3.3375 15.5 3.75V5.25C15.5 5.6625 15.1625 6 14.75 6C14.3375 6 14 5.6625 14 5.25V4.5H5V5.25C5 5.6625 4.6625 6 4.25 6C3.8375 6 3.5 5.6625 3.5 5.25V3.75C3.5 3.3375 3.8375 3 4.25 3ZM6.50075 10.5C6.272 10.5 6.04775 10.3965 5.9 10.2C5.651 9.8685 5.7185 9.39825 6.05 9.15L9.05 6.9C9.3095 6.705 9.6665 6.69975 9.93125 6.8865L12.9312 8.997C13.2703 9.2355 13.352 9.7035 13.1135 10.0417C12.875 10.38 12.4078 10.4625 12.0688 10.224L10.2479 8.94308C10.2493 8.96187 10.25 8.98085 10.25 9V15C10.25 15.414 9.91475 15.75 9.5 15.75C9.08525 15.75 8.75 15.414 8.75 15V9.00013L6.95 10.35C6.815 10.4513 6.6575 10.5 6.50075 10.5Z" fill="black"/>
</svg>
