<svg width="64" height="64" viewBox="0 0 64 64" fill="none" xmlns="http://www.w3.org/2000/svg">
    <path fill-rule="evenodd" clip-rule="evenodd" d="M64 32C64 49.6731 49.6731 64 32 64C14.3269 64 0 49.6731 0 32C0 14.3269 14.3269 0 32 0C49.6731 0 64 14.3269 64 32ZM19 24.7C19 23.5954 19.8954 22.7 21 22.7H37.0308C38.1353 22.7 39.0308 23.5954 39.0308 24.7V31.0931C39.0428 30.4515 39.3622 29.8537 39.8907 29.4871L44.4754 26.308C45.8017 25.3883 47.615 26.3375 47.615 27.9515V36.0784C47.615 37.6865 45.8134 38.6371 44.486 37.7292L39.9014 34.5936C39.3667 34.2279 39.0429 33.6264 39.0308 32.9803V39.2999C39.0308 40.4045 38.1353 41.2999 37.0308 41.2999H21C19.8954 41.2999 19 40.4045 19 39.3V24.7Z" fill="#716B7C"/>
</svg>
