<?xml version="1.0" standalone="no"?><!-- By Dani --><svg xmlns="http://www.w3.org/2000/svg" xmlns:xlink="http://www.w3.org/1999/xlink" style="isolation:isolate" viewBox="595 355 100 100" width="100" height="100"><defs><clipPath id="_clipPath_3n2EkfdjGyq2MZgFws9sgMXIyNHKImyO"><rect x="595" y="355" width="100" height="100"/></clipPath></defs><g clip-path="url(#_clipPath_3n2EkfdjGyq2MZgFws9sgMXIyNHKImyO)"><g><g><path d=" M 672.081 355.253 C 670.772 355.777 670.097 356.28 668.417 357.962 L 666.716 359.689 L 668.439 361.152 C 673.412 365.347 677.534 370.744 680.479 376.883 C 683.795 383.809 685.169 389.971 685.125 397.792 C 685.104 405.396 683.599 411.841 680.282 418.636 C 670.925 437.753 649.919 448.35 628.849 444.548 C 618.379 442.67 608.541 437.033 601.539 428.97 L 599.663 426.808 L 597.984 428.599 C 593.948 432.903 593.992 435.176 598.202 439.305 C 607.167 448.11 618.902 453.507 631.903 454.817 C 635.306 455.167 643.181 454.992 646.343 454.489 C 649.462 454.009 654.741 452.653 657.489 451.649 C 660.324 450.6 665.691 447.956 668.155 446.405 C 671.689 444.177 675.092 441.445 678.298 438.212 C 683.183 433.318 686.347 428.883 689.313 422.809 C 691.974 417.347 693.654 411.994 694.57 405.986 C 695.072 402.686 695.159 393.116 694.701 390.036 C 693.086 379.242 689.008 369.803 682.376 361.523 C 679.78 358.268 677.119 355.777 675.788 355.341 C 674.568 354.926 673.041 354.882 672.081 355.253 Z " fill="rgb(35,33,41)"/><path d=" M 633.386 393.51 L 604.506 422.438 L 605.924 424.165 C 612.009 431.44 620.211 436.378 629.547 438.344 C 633.211 439.131 639.559 439.306 643.442 438.759 C 652.69 437.448 660.804 433.297 667.392 426.502 C 673.52 420.188 677.403 412.279 678.624 403.583 C 679.061 400.611 679.038 394.865 678.603 391.829 C 677.36 383.351 673.585 375.573 667.653 369.368 C 665.777 367.401 662.658 364.584 662.353 364.584 C 662.309 364.583 649.265 377.604 633.386 393.51 Z  M 662.527 378.806 C 663.269 379.09 664.272 380.008 664.687 380.794 C 665.166 381.733 665.079 383.613 664.491 384.487 C 663.291 386.256 660.629 387.589 658.165 387.611 C 656.813 387.633 656.616 387.567 656.223 387.087 C 655.307 385.973 656.158 382.52 657.903 380.227 C 658.95 378.85 660.978 378.216 662.527 378.806 Z  M 667.98 397.377 C 669.376 398.055 670.097 399.365 669.965 401.048 C 669.791 403.408 667.893 405.002 665.58 404.697 C 663.203 404.369 660.323 402.774 659.669 401.42 C 659.342 400.742 659.342 400.567 659.604 399.934 C 659.997 399.016 661.262 398.121 663.159 397.465 C 665.057 396.788 666.715 396.766 667.98 397.377 Z  M 658.077 413.698 C 661.59 415.337 662.767 417.872 661.153 420.341 C 660.193 421.827 658.099 422.461 656.419 421.761 C 654.979 421.148 653.3 418.636 652.776 416.233 C 652.449 414.835 652.646 413.873 653.387 413.283 C 654.216 412.628 656.179 412.803 658.077 413.698 Z  M 627.06 416.342 C 627.518 416.713 627.584 416.932 627.562 418.265 C 627.541 420.733 626.21 423.399 624.443 424.601 C 623.57 425.191 621.695 425.279 620.756 424.797 C 618.749 423.749 618.008 421.52 618.99 419.51 C 620.167 417.063 625.424 415.01 627.06 416.342 Z  M 641.805 420.013 C 642.852 420.712 644.292 423.574 644.597 425.584 C 645.099 428.928 641.608 431.309 638.686 429.583 C 636.853 428.513 636.373 426.153 637.399 423.268 C 638.555 419.969 640.06 418.876 641.805 420.013 Z " fill="rgb(56,52,63)"/></g></g></g></svg>