<svg width="18" height="18" viewBox="0 0 24 25" fill="none" xmlns="http://www.w3.org/2000/svg">
<path fill-rule="evenodd" clip-rule="evenodd" d="M16.889 18.818C16.717 18.385 16.473 18.007 16.259 17.684C16.151 17.522 16.04 17.357 15.943 17.187C15.554 16.511 15.688 16.237 16.319 15.18L16.421 15.007C16.932 14.146 16.96 13.32 16.986 12.592C16.998 12.234 17.01 11.897 17.079 11.58C17.24 10.848 18.787 10.653 19.746 10.538C19.907 11.167 20 11.822 20 12.5C20 15.069 18.778 17.353 16.889 18.818ZM4.962 16.299C5.598 16.461 6.287 16.573 6.988 16.573C8.068 16.573 9.171 16.309 10.125 15.562C11.841 14.22 11.841 12.504 11.841 11.124C11.841 10.232 11.841 9.463 12.213 8.78C12.413 8.414 12.839 8.16 13.332 7.865C13.634 7.684 13.947 7.498 14.247 7.262C14.89 6.759 15.368 6.112 15.664 5.396C17.064 6.121 18.224 7.244 18.99 8.619C17.562 8.817 15.535 9.285 15.126 11.152C15.018 11.646 15.001 12.111 14.988 12.522C14.967 13.105 14.951 13.566 14.701 13.988L14.601 14.156C13.954 15.239 13.222 16.467 14.209 18.184C14.328 18.392 14.461 18.592 14.592 18.791C14.936 19.307 15.105 19.592 15.106 19.872C14.151 20.276 13.101 20.5 12 20.5C8.963 20.5 6.317 18.798 4.962 16.299ZM12 4.5C12.616 4.5 13.211 4.576 13.787 4.708C13.618 5.08 13.357 5.419 13.013 5.688C12.795 5.86 12.55 6.003 12.307 6.148C11.656 6.536 10.919 6.976 10.457 7.822C9.841 8.952 9.841 10.106 9.841 11.124C9.841 12.479 9.797 13.28 8.893 13.987C7.524 15.06 5.429 14.461 4.133 13.916C4.051 13.455 4 12.983 4 12.5C4 8.089 7.589 4.5 12 4.5ZM12 2.5C6.486 2.5 2 6.986 2 12.5C2 18.013 6.486 22.5 12 22.5C17.514 22.5 22 18.013 22 12.5C22 6.986 17.514 2.5 12 2.5Z" fill="white"/>
</svg>
